<svg width="160" height="132" viewBox="0 0 160 132" fill="none" xmlns="http://www.w3.org/2000/svg">
<g clip-path="url(#clip0)">
<path d="M62.7268 67.2947L9.63173 84.345C8.92137 84.5722 8.15057 84.5105 7.48844 84.1735C6.8263 83.8365 6.32691 83.2516 6.09982 82.5471L-3.38939 52.9974C-3.61489 52.2925 -3.5494 51.5262 -3.20729 50.8667C-2.86518 50.2071 -2.27439 49.7082 -1.56454 49.4794L51.5305 32.4292C52.2408 32.2019 53.0116 32.2636 53.6738 32.6006C54.3359 32.9377 54.8353 33.5225 55.0624 34.227L64.5516 63.7767C64.7771 64.4816 64.7116 65.2479 64.3695 65.9074C64.0274 66.567 63.4366 67.0659 62.7268 67.2947ZM-1.46412 49.7921C-2.09046 49.994 -2.61174 50.4342 -2.9136 51.0162C-3.21546 51.5981 -3.27325 52.2742 -3.07429 52.8962L6.41492 82.446C6.6153 83.0675 7.05594 83.5836 7.64018 83.881C8.22441 84.1783 8.90453 84.2328 9.53132 84.0323L62.6263 66.982C63.2527 66.7801 63.774 66.3399 64.0758 65.758C64.3777 65.176 64.4355 64.4999 64.2365 63.8779L54.7473 34.3282C54.5469 33.7066 54.1063 33.1905 53.522 32.8931C52.9378 32.5958 52.2577 32.5414 51.6309 32.7419L-1.46412 49.7921Z" fill="#E6E6E6"/>
<path d="M41.8571 48.5249L31.6162 51.8135C31.4282 51.8739 31.2716 52.0059 31.1811 52.1806C31.0905 52.3552 31.0732 52.5581 31.1332 52.7447C31.1931 52.9313 31.3252 53.0863 31.5006 53.1755C31.6759 53.2648 31.88 53.281 32.0681 53.2206L42.309 49.932C42.497 49.8716 42.6535 49.7396 42.7441 49.5649C42.8347 49.3903 42.8519 49.1874 42.792 49.0008C42.7321 48.8142 42.5999 48.6592 42.4246 48.57C42.2493 48.4807 42.0451 48.4645 41.8571 48.5249Z" fill="#E6E6E6"/>
<path d="M53.2705 49.7752L32.9116 56.3129C32.5949 56.4146 32.4396 56.8129 32.5641 57.2007C32.6886 57.5884 33.0468 57.8218 33.3635 57.7201L53.7223 51.1823C54.0391 51.0806 54.1944 50.6823 54.0699 50.2946C53.9454 49.9068 53.5872 49.6735 53.2705 49.7752Z" fill="#E6E6E6"/>
<path d="M54.7358 54.3385L34.377 60.8763C34.0603 60.978 33.9049 61.3762 34.0294 61.764C34.1539 62.1517 34.5121 62.3851 34.8288 62.2834L55.1877 55.7456C55.5044 55.6439 55.6598 55.2456 55.5352 54.8579C55.4107 54.4701 55.0525 54.2368 54.7358 54.3385Z" fill="#E6E6E6"/>
<path d="M29.1329 70.9251L11.487 76.5916C11.0483 76.732 10.5722 76.6939 10.1632 76.4857C9.75427 76.2776 9.44582 75.9163 9.30556 75.4812L3.02962 55.9378C2.89035 55.5024 2.93081 55.0291 3.14211 54.6217C3.35341 54.2144 3.7183 53.9062 4.15674 53.7649L21.8026 48.0983C22.2413 47.958 22.7174 47.9961 23.1264 48.2042C23.5353 48.4124 23.8438 48.7737 23.984 49.2087L30.26 68.7522C30.3992 69.1876 30.3588 69.6609 30.1475 70.0683C29.9362 70.4756 29.5713 70.7838 29.1329 70.9251Z" fill="#E6E6E6"/>
<path d="M54.749 38.122C57.8815 37.1161 59.6116 33.7806 58.6134 30.6721C57.6151 27.5635 54.2665 25.859 51.134 26.8649C48.0015 27.8709 46.2714 31.2063 47.2696 34.3149C48.2679 37.4234 51.6165 39.1279 54.749 38.122Z" fill="#E6E6E6"/>
<path d="M138.037 43.1106L84.9418 60.1609C84.2314 60.3881 83.4606 60.3265 82.7985 59.9894C82.1364 59.6524 81.637 59.0675 81.4099 58.3631L71.9207 28.8134C71.6952 28.1084 71.7607 27.3421 72.1028 26.6826C72.4449 26.0231 73.0357 25.5242 73.7455 25.2954L126.841 8.24511C127.551 8.01787 128.322 8.07953 128.984 8.41657C129.646 8.75361 130.145 9.3385 130.372 10.0429L139.862 39.5926C140.087 40.2976 140.022 41.0639 139.68 41.7234C139.337 42.3829 138.747 42.8818 138.037 43.1106ZM73.8459 25.6081C73.2196 25.81 72.6983 26.2502 72.3965 26.8321C72.0946 27.414 72.0368 28.0902 72.2358 28.7122L81.725 58.2619C81.9254 58.8834 82.366 59.3995 82.9502 59.6969C83.5345 59.9943 84.2146 60.0487 84.8414 59.8482L137.936 42.798C138.563 42.596 139.084 42.1558 139.386 41.5739C139.688 40.992 139.746 40.3158 139.547 39.6938L130.057 10.1441C129.857 9.52256 129.416 9.00648 128.832 8.7091C128.248 8.41171 127.568 8.3573 126.941 8.5578L73.8459 25.6081Z" fill="#3F3D56"/>
<path d="M117.167 24.3408L106.926 27.6295C106.738 27.6899 106.581 27.8219 106.491 27.9965C106.4 28.1712 106.383 28.3741 106.443 28.5607C106.503 28.7473 106.635 28.9023 106.81 28.9915C106.986 29.0808 107.19 29.097 107.378 29.0366L117.619 25.748C117.807 25.6876 117.963 25.5556 118.054 25.3809C118.145 25.2063 118.162 25.0033 118.102 24.8167C118.042 24.6301 117.91 24.4752 117.734 24.3859C117.559 24.2967 117.355 24.2805 117.167 24.3408Z" fill="#3F3D56"/>
<path d="M128.58 25.5911L108.221 32.1289C107.905 32.2306 107.749 32.6289 107.874 33.0166C107.998 33.4044 108.357 33.6377 108.673 33.536L129.032 26.9983C129.349 26.8966 129.504 26.4983 129.38 26.1105C129.255 25.7228 128.897 25.4894 128.58 25.5911Z" fill="#3F3D56"/>
<path d="M130.046 30.1545L109.687 36.6922C109.37 36.7939 109.215 37.1922 109.339 37.58C109.464 37.9677 109.822 38.2011 110.139 38.0994L130.498 31.5616C130.814 31.4599 130.97 31.0616 130.845 30.6739C130.721 30.2861 130.362 30.0528 130.046 30.1545Z" fill="#3F3D56"/>
<path d="M104.443 46.7411L86.7968 52.4076C86.3581 52.548 85.882 52.5099 85.473 52.3017C85.0641 52.0935 84.7556 51.7323 84.6154 51.2972L78.3394 31.7537C78.2002 31.3183 78.2406 30.845 78.4519 30.4377C78.6632 30.0303 79.0281 29.7222 79.4666 29.5809L97.1124 23.9143C97.5511 23.774 98.0272 23.812 98.4362 24.0202C98.8451 24.2284 99.1536 24.5896 99.2939 25.0247L105.57 44.5682C105.709 45.0036 105.669 45.4769 105.457 45.8842C105.246 46.2916 104.881 46.5997 104.443 46.7411Z" fill="#C8E3FF"/>
<path d="M130.059 13.9379C133.192 12.932 134.922 9.59657 133.923 6.48802C132.925 3.37948 129.577 1.67497 126.444 2.6809C123.312 3.68682 121.581 7.02226 122.58 10.1308C123.578 13.2394 126.927 14.9439 130.059 13.9379Z" fill="#C8E3FF"/>
<path d="M128.664 10.6903C128.51 10.7403 128.343 10.739 128.19 10.6867L128.18 10.6834L126.171 9.97478C126.077 9.94206 125.992 9.89136 125.918 9.82557C125.845 9.75978 125.785 9.68019 125.743 9.59137C125.701 9.50255 125.677 9.40624 125.672 9.30794C125.667 9.20965 125.682 9.1113 125.716 9.01853C125.749 8.92576 125.801 8.84039 125.867 8.76731C125.934 8.69423 126.014 8.63487 126.104 8.59262C126.194 8.55038 126.291 8.52608 126.39 8.52112C126.489 8.51616 126.588 8.53064 126.681 8.56372L127.983 9.02391L129.428 5.02968C129.461 4.93704 129.513 4.85178 129.579 4.77878C129.646 4.70578 129.726 4.64646 129.816 4.60422C129.905 4.56197 130.002 4.53762 130.101 4.53256C130.2 4.5275 130.299 4.54183 130.392 4.57472L130.383 4.60037L130.392 4.5749C130.58 4.64152 130.733 4.77958 130.818 4.95878C130.903 5.13799 130.913 5.34371 130.846 5.53082L129.146 10.229C129.107 10.3373 129.043 10.4353 128.959 10.5153C128.876 10.5953 128.775 10.6552 128.664 10.6903Z" fill="white"/>
<path d="M77.6887 113.886L24.5936 130.937C23.8833 131.164 23.1125 131.102 22.4504 130.765C21.7882 130.428 21.2888 129.843 21.0617 129.139L11.5725 99.589C11.347 98.8841 11.4125 98.1178 11.7546 97.4583C12.0967 96.7988 12.6875 96.2998 13.3974 96.071L66.4924 79.0208C67.2028 78.7935 67.9736 78.8552 68.6357 79.1922C69.2978 79.5293 69.7972 80.1142 70.0243 80.8186L79.5135 110.368C79.739 111.073 79.6735 111.84 79.3314 112.499C78.9893 113.159 78.3985 113.657 77.6887 113.886ZM13.4978 96.3837C12.8715 96.5856 12.3502 97.0258 12.0483 97.6078C11.7465 98.1897 11.6887 98.8658 11.8876 99.4878L21.3768 129.038C21.5772 129.659 22.0179 130.175 22.6021 130.473C23.1863 130.77 23.8664 130.824 24.4932 130.624L77.5883 113.574C78.2146 113.372 78.7359 112.932 79.0377 112.35C79.3396 111.768 79.3974 111.092 79.1984 110.47L69.7092 80.9198C69.5088 80.2982 69.0682 79.7822 68.484 79.4848C67.8997 79.1874 67.2196 79.133 66.5928 79.3335L13.4978 96.3837Z" fill="#3F3D56"/>
<path d="M56.8188 95.1165L46.5779 98.4051C46.3898 98.4655 46.2333 98.5975 46.1427 98.7722C46.0521 98.9468 46.0349 99.1498 46.0948 99.3364C46.1548 99.523 46.2869 99.6779 46.4622 99.7672C46.6376 99.8564 46.8417 99.8726 47.0298 99.8123L57.2706 96.5236C57.4587 96.4632 57.6152 96.3312 57.7058 96.1566C57.7964 95.9819 57.8136 95.779 57.7537 95.5924C57.6938 95.4058 57.5616 95.2508 57.3863 95.1616C57.2109 95.0723 57.0068 95.0561 56.8188 95.1165Z" fill="#3F3D56"/>
<path d="M68.2321 96.3668L47.8733 102.905C47.5566 103.006 47.4012 103.405 47.5257 103.792C47.6503 104.18 48.0085 104.413 48.3252 104.312L68.684 97.7739C69.0007 97.6722 69.1561 97.2739 69.0316 96.8862C68.9071 96.4984 68.5489 96.2651 68.2321 96.3668Z" fill="#3F3D56"/>
<path d="M69.6977 100.93L49.3389 107.468C49.0222 107.57 48.8668 107.968 48.9913 108.356C49.1158 108.743 49.474 108.977 49.7908 108.875L70.1496 102.337C70.4663 102.236 70.6217 101.837 70.4972 101.449C70.3726 101.062 70.0144 100.828 69.6977 100.93Z" fill="#3F3D56"/>
<path d="M44.0948 117.517L26.4489 123.183C26.0102 123.324 25.5341 123.286 25.1252 123.077C24.7162 122.869 24.4077 122.508 24.2675 122.073L17.9915 102.529C17.8523 102.094 17.8927 101.621 18.104 101.213C18.3153 100.806 18.6802 100.498 19.1187 100.357L36.7645 94.69C37.2032 94.5496 37.6793 94.5877 38.0883 94.7959C38.4972 95.004 38.8057 95.3653 38.9459 95.8004L45.2219 115.344C45.3612 115.779 45.3207 116.253 45.1094 116.66C44.8981 117.067 44.5332 117.375 44.0948 117.517Z" fill="#C8E3FF"/>
<path d="M69.7109 84.7136C72.8434 83.7077 74.5735 80.3722 73.5753 77.2637C72.5771 74.1551 69.2284 72.4506 66.0959 73.4566C62.9635 74.4625 61.2333 77.7979 62.2315 80.9065C63.2298 84.015 66.5784 85.7195 69.7109 84.7136Z" fill="#C8E3FF"/>
<path d="M68.3164 81.466C68.1618 81.5159 67.9953 81.5146 67.842 81.4623L67.8325 81.4591L65.8229 80.7504C65.7296 80.7177 65.6438 80.667 65.5705 80.6012C65.4971 80.5354 65.4375 80.4558 65.3953 80.367C65.353 80.2782 65.3288 80.1819 65.324 80.0836C65.3193 79.9853 65.3341 79.8869 65.3676 79.7942C65.4011 79.7014 65.4527 79.616 65.5194 79.543C65.5861 79.4699 65.6665 79.4105 65.7562 79.3683C65.8458 79.326 65.9429 79.3017 66.0418 79.2968C66.1408 79.2918 66.2397 79.3063 66.3328 79.3394L67.6348 79.7996L69.0799 75.8053C69.1134 75.7127 69.165 75.6274 69.2315 75.5544C69.2981 75.4814 69.3784 75.4221 69.468 75.3799C69.5575 75.3376 69.6544 75.3133 69.7532 75.3082C69.852 75.3031 69.9508 75.3175 70.0439 75.3504L70.0351 75.376L70.0444 75.3505C70.2322 75.4172 70.3854 75.5552 70.4704 75.7344C70.5554 75.9136 70.5653 76.1194 70.4979 76.3065L68.7981 81.0046C68.7587 81.113 68.6947 81.211 68.6112 81.291C68.5276 81.371 68.4267 81.4308 68.3164 81.466Z" fill="white"/>
<path d="M152.998 89.7023L99.9035 106.753C99.1931 106.98 98.4223 106.918 97.7602 106.581C97.098 106.244 96.5986 105.659 96.3716 104.955L86.8823 75.405C86.6568 74.7001 86.7223 73.9338 87.0644 73.2743C87.4065 72.6147 87.9973 72.1158 88.7072 71.887L141.802 54.8368C142.513 54.6095 143.283 54.6712 143.946 55.0082C144.608 55.3453 145.107 55.9301 145.334 56.6346L154.823 86.1843C155.049 86.8892 154.983 87.6555 154.641 88.315C154.299 88.9746 153.708 89.4735 152.998 89.7023ZM88.8076 72.1997C88.1813 72.4016 87.66 72.8418 87.3581 73.4238C87.0563 74.0057 86.9985 74.6818 87.1974 75.3038L96.6867 104.854C96.887 105.475 97.3277 105.991 97.9119 106.289C98.4961 106.586 99.1763 106.64 99.803 106.44L152.898 89.3896C153.524 89.1877 154.046 88.7475 154.348 88.1656C154.649 87.5836 154.707 86.9075 154.508 86.2855L145.019 56.7358C144.819 56.1142 144.378 55.5981 143.794 55.3007C143.21 55.0034 142.529 54.9489 141.903 55.1494L88.8076 72.1997Z" fill="#3F3D56"/>
<path d="M132.129 70.9325L121.888 74.2211C121.7 74.2815 121.543 74.4135 121.453 74.5882C121.362 74.7628 121.345 74.9657 121.405 75.1523C121.465 75.3389 121.597 75.4939 121.772 75.5832C121.947 75.6724 122.152 75.6886 122.34 75.6282L132.58 72.3396C132.768 72.2792 132.925 72.1472 133.016 71.9725C133.106 71.7979 133.123 71.595 133.064 71.4084C133.004 71.2218 132.871 71.0668 132.696 70.9775C132.521 70.8883 132.317 70.8721 132.129 70.9325Z" fill="#3F3D56"/>
<path d="M143.542 72.1827L123.183 78.7205C122.866 78.8222 122.711 79.2205 122.836 79.6083C122.96 79.996 123.318 80.2294 123.635 80.1277L143.994 73.5899C144.311 73.4882 144.466 73.0899 144.341 72.7022C144.217 72.3144 143.859 72.081 143.542 72.1827Z" fill="#3F3D56"/>
<path d="M145.008 76.7461L124.649 83.2838C124.332 83.3856 124.177 83.7838 124.301 84.1716C124.426 84.5593 124.784 84.7927 125.101 84.691L145.459 78.1532C145.776 78.0515 145.932 77.6532 145.807 77.2655C145.682 76.8777 145.324 76.6444 145.008 76.7461Z" fill="#3F3D56"/>
<path d="M119.405 93.3327L101.759 98.9993C101.32 99.1396 100.844 99.1015 100.435 98.8934C100.026 98.6852 99.7176 98.3239 99.5773 97.8889L93.3013 78.3454C93.1621 77.91 93.2025 77.4367 93.4138 77.0293C93.6251 76.622 93.99 76.3138 94.4285 76.1725L112.074 70.5059C112.513 70.3656 112.989 70.4037 113.398 70.6118C113.807 70.82 114.116 71.1813 114.256 71.6164L120.532 91.1598C120.671 91.5952 120.631 92.0685 120.419 92.4759C120.208 92.8832 119.843 93.1914 119.405 93.3327Z" fill="#C8E3FF"/>
<path d="M145.021 60.5296C148.153 59.5236 149.883 56.1882 148.885 53.0796C147.887 49.9711 144.538 48.2666 141.406 49.2725C138.273 50.2784 136.543 53.6139 137.541 56.7224C138.54 59.831 141.888 61.5355 145.021 60.5296Z" fill="#C8E3FF"/>
<path d="M143.626 57.2819C143.472 57.3319 143.305 57.3306 143.152 57.2783L143.142 57.275L141.133 56.5664C141.039 56.5337 140.954 56.483 140.88 56.4172C140.807 56.3514 140.747 56.2718 140.705 56.183C140.663 56.0942 140.639 55.9979 140.634 55.8996C140.629 55.8013 140.644 55.7029 140.677 55.6102C140.711 55.5174 140.763 55.432 140.829 55.3589C140.896 55.2858 140.976 55.2265 141.066 55.1842C141.156 55.142 141.253 55.1177 141.352 55.1127C141.451 55.1078 141.549 55.1223 141.643 55.1553L142.945 55.6155L144.39 51.6213C144.423 51.5286 144.475 51.4434 144.541 51.3704C144.608 51.2974 144.688 51.2381 144.778 51.1958C144.867 51.1536 144.964 51.1292 145.063 51.1242C145.162 51.1191 145.261 51.1334 145.354 51.1663L145.345 51.192L145.354 51.1665C145.542 51.2331 145.695 51.3712 145.78 51.5504C145.865 51.7296 145.875 51.9353 145.808 52.1224L144.108 56.8206C144.068 56.929 144.005 57.0269 143.921 57.1069C143.837 57.1869 143.737 57.2468 143.626 57.2819Z" fill="white"/>
<path d="M94.9563 45.5038C94.5553 45.6204 94.0563 45.7654 93.5869 45.6117C93.446 45.5625 93.3177 45.4832 93.2111 45.3795C93.1045 45.2757 93.0221 45.1499 92.9697 45.0109C92.9306 44.9127 92.9149 44.8068 92.9238 44.7014C92.9328 44.596 92.9661 44.494 93.0212 44.4033C93.1077 44.2827 93.2231 44.1855 93.3569 44.1205C93.4907 44.0554 93.6385 44.0246 93.787 44.0309L92.7071 41.7824L92.9349 41.6735L94.2045 44.3169L93.9765 44.2902C93.7122 44.2593 93.3786 44.3076 93.2349 44.5356C93.2004 44.5942 93.18 44.6599 93.1752 44.7274C93.1704 44.795 93.1814 44.8627 93.2072 44.9253C93.2468 45.0286 93.3084 45.1221 93.3877 45.1994C93.467 45.2767 93.5622 45.3361 93.6668 45.3735C94.0322 45.4932 94.4353 45.3943 94.8864 45.2632L94.9563 45.5038Z" fill="white"/>
<path d="M91.5947 42.3634L90.3 42.7791L90.3766 43.0177L91.6713 42.6019L91.5947 42.3634Z" fill="white"/>
<path d="M95.6809 41.0512L94.3862 41.4669L94.4628 41.7055L95.7575 41.2897L95.6809 41.0512Z" fill="white"/>
<path d="M86.993 40.2076C85.9126 40.4244 84.7869 39.6924 84.3752 38.7151C83.8855 37.5525 84.2227 36.1906 84.9704 35.2099C85.7524 34.1842 86.9134 33.4879 88.1071 33.0334C90.4385 32.1556 93.0113 32.1695 95.325 33.0723C96.4758 33.5301 97.6325 34.2126 98.3252 35.2631C98.9267 36.1755 99.0637 37.3839 98.4769 38.3466C98.3312 38.5832 98.1379 38.7873 97.9091 38.9463C97.6804 39.1052 97.4212 39.2154 97.148 39.27C96.4969 39.4074 95.8097 39.2653 95.1898 39.0638C93.9838 38.6718 92.8639 37.9457 91.5524 37.9596C90.5908 37.9698 89.5323 38.5726 89.2498 39.5291C89.1862 39.7478 89.1734 39.9777 89.2122 40.2015C89.2158 40.2508 89.2381 40.2967 89.2746 40.3301C89.3111 40.3634 89.3591 40.3817 89.4088 40.3812C89.4588 40.3787 89.506 40.3567 89.54 40.32C89.574 40.2832 89.5921 40.2347 89.5904 40.185C89.4132 39.1513 90.5198 38.389 91.4519 38.3387C92.811 38.2654 94.0088 39.1051 95.2636 39.4801C95.9223 39.703 96.6292 39.75 97.3136 39.6164C97.8995 39.4773 98.4113 39.1222 98.7451 38.6231C99.4025 37.6526 99.3583 36.3606 98.8217 35.357C98.2003 34.1948 97.0233 33.4057 95.8416 32.8815C93.4516 31.8366 90.7491 31.7266 88.2726 32.5737C87.0111 33.0107 85.7688 33.6969 84.888 34.7149C84.0337 35.7025 83.5603 37.0477 83.8568 38.3395C84.1177 39.4765 85.0878 40.4419 86.2705 40.5969C86.5493 40.6329 86.8323 40.6223 87.1079 40.5654C87.3464 40.5175 87.2296 40.1601 86.993 40.2076L86.993 40.2076Z" fill="white"/>
<path d="M109.717 91.47C109.316 91.5866 108.817 91.7316 108.348 91.5779C108.207 91.5287 108.079 91.4495 107.972 91.3457C107.865 91.2419 107.783 91.1161 107.731 90.9771C107.692 90.8789 107.676 90.773 107.685 90.6676C107.694 90.5622 107.727 90.4602 107.782 90.3695C107.869 90.2489 107.984 90.1517 108.118 90.0867C108.252 90.0216 108.4 89.9908 108.548 89.9971L107.468 87.7486L107.696 87.6397L108.965 90.2831L108.738 90.2564C108.473 90.2255 108.14 90.2738 107.996 90.5018C107.961 90.5604 107.941 90.6261 107.936 90.6937C107.931 90.7612 107.942 90.829 107.968 90.8915C108.008 90.9948 108.069 91.0883 108.149 91.1656C108.228 91.2429 108.323 91.3023 108.428 91.3397C108.793 91.4594 109.196 91.3606 109.647 91.2294L109.717 91.47Z" fill="white"/>
<path d="M106.356 88.3297L105.061 88.7454L105.138 88.9839L106.432 88.5682L106.356 88.3297Z" fill="white"/>
<path d="M110.442 87.0174L109.147 87.4332L109.224 87.6717L110.518 87.256L110.442 87.0174Z" fill="white"/>
<path d="M101.754 86.1738C100.674 86.3906 99.5479 85.6586 99.1362 84.6814C98.6465 83.5188 98.9837 82.1569 99.7314 81.1761C100.513 80.1504 101.674 79.4541 102.868 78.9996C105.2 78.1219 107.772 78.1358 110.086 79.0386C111.237 79.4963 112.393 80.1788 113.086 81.2294C113.688 82.1417 113.825 83.3501 113.238 84.3129C113.092 84.5494 112.899 84.7536 112.67 84.9125C112.441 85.0714 112.182 85.1817 111.909 85.2362C111.258 85.3737 110.571 85.2316 109.951 85.03C108.745 84.638 107.625 83.9119 106.313 83.9258C105.352 83.936 104.293 84.5388 104.011 85.4954C103.947 85.714 103.934 85.9439 103.973 86.1678C103.977 86.217 103.999 86.2629 104.036 86.2963C104.072 86.3296 104.12 86.3479 104.17 86.3474C104.22 86.3449 104.267 86.3229 104.301 86.2862C104.335 86.2495 104.353 86.201 104.351 86.1512C104.174 85.1175 105.281 84.3552 106.213 84.305C107.572 84.2317 108.77 85.0714 110.025 85.4463C110.683 85.6692 111.39 85.7163 112.075 85.5826C112.66 85.4436 113.172 85.0885 113.506 84.5893C114.163 83.6188 114.119 82.3269 113.583 81.3233C112.961 80.161 111.784 79.3719 110.603 78.8478C108.213 77.8028 105.51 77.6929 103.034 78.5399C101.772 78.977 100.53 79.6631 99.649 80.6812C98.7947 81.6687 98.3213 83.014 98.6178 84.3057C98.8787 85.4427 99.8488 86.4081 101.032 86.5631C101.31 86.5992 101.593 86.5885 101.869 86.5316C102.107 86.4837 101.991 86.1263 101.754 86.1738L101.754 86.1738Z" fill="white"/>
<path d="M33.6196 115.907C33.2187 116.024 32.7197 116.169 32.2503 116.015C32.1093 115.966 31.9811 115.886 31.8744 115.783C31.7678 115.679 31.6854 115.553 31.6331 115.414C31.5939 115.316 31.5782 115.21 31.5872 115.105C31.5961 114.999 31.6294 114.897 31.6846 114.806C31.7711 114.686 31.8865 114.589 32.0202 114.524C32.154 114.459 32.3019 114.428 32.4504 114.434L31.3705 112.186L31.5982 112.077L32.8678 114.72L32.6399 114.693C32.3756 114.663 32.042 114.711 31.8982 114.939C31.8638 114.997 31.8434 115.063 31.8386 115.131C31.8338 115.198 31.8447 115.266 31.8706 115.329C31.9101 115.432 31.9717 115.525 32.051 115.603C32.1303 115.68 32.2255 115.739 32.3302 115.777C32.6955 115.896 33.0986 115.798 33.5498 115.666L33.6196 115.907Z" fill="white"/>
<path d="M30.258 112.767L28.9634 113.182L29.04 113.421L30.3346 113.005L30.258 112.767Z" fill="white"/>
<path d="M34.3442 111.454L33.0496 111.87L33.1262 112.109L34.4208 111.693L34.3442 111.454Z" fill="white"/>
<path d="M25.6563 110.611C24.5759 110.828 23.4502 110.096 23.0385 109.118C22.5488 107.956 22.8861 106.594 23.6338 105.613C24.4157 104.587 25.5767 103.891 26.7704 103.437C29.1019 102.559 31.6746 102.573 33.9884 103.476C35.1392 103.933 36.2958 104.616 36.9885 105.666C37.5901 106.579 37.727 107.787 37.1402 108.75C36.9945 108.986 36.8012 109.191 36.5725 109.349C36.3437 109.508 36.0846 109.619 35.8113 109.673C35.1602 109.811 34.4731 109.669 33.8531 109.467C32.6471 109.075 31.5272 108.349 30.2158 108.363C29.2542 108.373 28.1956 108.976 27.9132 109.932C27.8496 110.151 27.8367 110.381 27.8755 110.605C27.8791 110.654 27.9015 110.7 27.938 110.733C27.9745 110.767 28.0224 110.785 28.0721 110.784C28.1221 110.782 28.1693 110.76 28.2033 110.723C28.2373 110.686 28.2554 110.638 28.2537 110.588C28.0766 109.555 29.1831 108.792 30.1152 108.742C31.4743 108.669 32.6721 109.508 33.9269 109.883C34.5857 110.106 35.2925 110.153 35.9769 110.02C36.5629 109.881 37.0746 109.525 37.4084 109.026C38.0659 108.056 38.0216 106.764 37.485 105.76C36.8636 104.598 35.6866 103.809 34.5049 103.285C32.1149 102.24 29.4124 102.13 26.936 102.977C25.6745 103.414 24.4321 104.1 23.5514 105.118C22.6971 106.106 22.2236 107.451 22.5201 108.743C22.7811 109.88 23.7511 110.845 24.9339 111C25.2126 111.036 25.4956 111.026 25.7712 110.969C26.0097 110.921 25.8929 110.563 25.6563 110.611L25.6563 110.611Z" fill="white"/>
<path d="M18.9589 70.2535C18.558 70.3701 18.059 70.5151 17.5896 70.3614C17.4487 70.3122 17.3204 70.2329 17.2138 70.1291C17.1072 70.0254 17.0248 69.8996 16.9724 69.7606C16.9333 69.6624 16.9176 69.5565 16.9265 69.4511C16.9355 69.3457 16.9688 69.2436 17.0239 69.153C17.1104 69.0324 17.2258 68.9352 17.3596 68.8701C17.4934 68.8051 17.6412 68.7743 17.7897 68.7805L16.7098 66.532L16.9376 66.4232L18.2071 69.0666L17.9792 69.0399C17.7149 69.009 17.3813 69.0573 17.2376 69.2853C17.2031 69.3439 17.1827 69.4095 17.1779 69.4771C17.1731 69.5447 17.1841 69.6124 17.2099 69.675C17.2495 69.7783 17.311 69.8717 17.3904 69.9491C17.4697 70.0264 17.5649 70.0858 17.6695 70.1232C18.0349 70.2429 18.438 70.144 18.8891 70.0129L18.9589 70.2535Z" fill="#3F3D56"/>
<path d="M15.5973 67.1131L14.3027 67.5288L14.3793 67.7674L15.6739 67.3516L15.5973 67.1131Z" fill="#3F3D56"/>
<path d="M19.6835 65.8009L18.3889 66.2166L18.4655 66.4552L19.7601 66.0394L19.6835 65.8009Z" fill="#3F3D56"/>
<path d="M10.9957 64.9573C9.91528 65.1741 8.78956 64.4421 8.3779 63.4648C7.88817 62.3022 8.22542 60.9403 8.97313 59.9595C9.75507 58.9339 10.9161 58.2376 12.1097 57.7831C14.4412 56.9053 17.014 56.9192 19.3277 57.822C20.4785 58.2798 21.6352 58.9623 22.3279 60.0128C22.9294 60.9252 23.0664 62.1336 22.4795 63.0963C22.3339 63.3329 22.1405 63.537 21.9118 63.696C21.6831 63.8549 21.4239 63.9651 21.1506 64.0197C20.4995 64.1572 19.8124 64.015 19.1925 63.8135C17.9865 63.4215 16.8666 62.6954 15.5551 62.7093C14.5935 62.7195 13.535 63.3223 13.2525 64.2788C13.1889 64.4975 13.1761 64.7274 13.2149 64.9512C13.2185 65.0005 13.2408 65.0464 13.2773 65.0798C13.3138 65.1131 13.3618 65.1314 13.4115 65.1309C13.4615 65.1284 13.5086 65.1064 13.5426 65.0697C13.5767 65.033 13.5948 64.9845 13.5931 64.9347C13.4159 63.901 14.5225 63.1387 15.4546 63.0884C16.8137 63.0151 18.0115 63.8548 19.2662 64.2298C19.925 64.4527 20.6319 64.4997 21.3163 64.3661C21.9022 64.227 22.414 63.8719 22.7478 63.3728C23.4052 62.4023 23.361 61.1103 22.8244 60.1067C22.203 58.9445 21.026 58.1553 19.8443 57.6312C17.4542 56.5863 14.7518 56.4763 12.2753 57.3234C11.0138 57.7604 9.77149 58.4465 8.89074 59.4646C8.03643 60.4522 7.56299 61.7974 7.85947 63.0892C8.12043 64.2262 9.09046 65.1916 10.2732 65.3466C10.552 65.3826 10.835 65.372 11.1106 65.3151C11.3491 65.2672 11.2323 64.9098 10.9957 64.9573L10.9957 64.9573Z" fill="#3F3D56"/>
</g>
<defs>
<clipPath id="clip0">
<rect width="144.957" height="90.9732" fill="white" transform="translate(-5.89966 45.18) rotate(-17.8032)"/>
</clipPath>
</defs>
</svg>
