<svg width="597" height="456" viewBox="0 0 597 456" fill="none" xmlns="http://www.w3.org/2000/svg">
<path d="M226.491 344.361H137.502C134.188 344.358 131.01 343.039 128.666 340.695C126.322 338.351 125.004 335.173 125 331.858V198.124C125.004 194.809 126.322 191.631 128.666 189.287C131.01 186.943 134.188 185.624 137.502 185.621H226.491C229.805 185.624 232.983 186.943 235.327 189.287C237.671 191.631 238.989 194.809 238.993 198.124V331.858C238.989 335.173 237.671 338.351 235.327 340.695C232.983 343.039 229.805 344.358 226.491 344.361V344.361ZM137.502 187.092C134.578 187.095 131.774 188.258 129.706 190.327C127.637 192.395 126.474 195.199 126.471 198.124V331.858C126.474 334.783 127.637 337.587 129.706 339.655C131.774 341.724 134.578 342.887 137.502 342.89H226.491C229.415 342.887 232.219 341.724 234.287 339.655C236.356 337.587 237.519 334.783 237.522 331.858V198.124C237.519 195.199 236.356 192.395 234.287 190.327C232.219 188.258 229.415 187.095 226.491 187.092H137.502Z" fill="#3F3D56"/>
<path d="M212.886 249.914H151.109C149.451 249.912 147.862 249.253 146.69 248.081C145.518 246.909 144.859 245.32 144.857 243.662V214.243C144.859 212.585 145.518 210.996 146.69 209.824C147.862 208.652 149.451 207.993 151.109 207.991H212.886C214.543 207.993 216.132 208.652 217.304 209.824C218.476 210.996 219.135 212.585 219.137 214.243V243.662C219.135 245.32 218.476 246.909 217.304 248.081C216.132 249.253 214.543 249.912 212.886 249.914Z" fill="#6C63FF"/>
<path d="M208.472 277.494H155.52C153.96 277.494 152.463 276.874 151.36 275.771C150.257 274.668 149.637 273.171 149.637 271.61C149.637 270.05 150.257 268.553 151.36 267.45C152.463 266.346 153.96 265.727 155.52 265.727H208.472C210.032 265.727 211.529 266.346 212.632 267.45C213.735 268.553 214.355 270.05 214.355 271.61C214.355 273.171 213.735 274.668 212.632 275.771C211.529 276.874 210.032 277.494 208.472 277.494Z" fill="#CCCCCC"/>
<path d="M208.472 299.559H155.52C153.96 299.559 152.463 298.939 151.36 297.835C150.257 296.732 149.637 295.235 149.637 293.675C149.637 292.114 150.257 290.618 151.36 289.514C152.463 288.411 153.96 287.791 155.52 287.791H208.472C210.032 287.791 211.529 288.411 212.632 289.514C213.735 290.618 214.355 292.114 214.355 293.675C214.355 295.235 213.735 296.732 212.632 297.835C211.529 298.939 210.032 299.559 208.472 299.559Z" fill="#CCCCCC"/>
<path d="M208.472 321.623H155.52C153.96 321.623 152.463 321.003 151.36 319.9C150.257 318.797 149.637 317.3 149.637 315.739C149.637 314.179 150.257 312.682 151.36 311.579C152.463 310.475 153.96 309.856 155.52 309.856H208.472C210.032 309.856 211.529 310.475 212.632 311.579C213.735 312.682 214.355 314.179 214.355 315.739C214.355 317.3 213.735 318.797 212.632 319.9C211.529 321.003 210.032 321.623 208.472 321.623Z" fill="#CCCCCC"/>
<path d="M443.446 419.381H354.458C351.143 419.377 347.965 418.058 345.621 415.714C343.277 413.37 341.959 410.192 341.955 406.877V273.143C341.959 269.828 343.277 266.65 345.621 264.306C347.965 261.962 351.143 260.644 354.458 260.64H443.446C446.76 260.644 449.938 261.962 452.282 264.306C454.626 266.65 455.944 269.828 455.948 273.143V406.877C455.944 410.192 454.626 413.37 452.282 415.714C449.938 418.058 446.76 419.377 443.446 419.381ZM354.458 262.111C351.533 262.114 348.729 263.278 346.661 265.346C344.593 267.414 343.429 270.218 343.426 273.143V406.877C343.429 409.802 344.593 412.607 346.661 414.675C348.729 416.743 351.533 417.906 354.458 417.91H443.446C446.37 417.906 449.174 416.743 451.243 414.675C453.311 412.607 454.474 409.802 454.477 406.877V273.143C454.474 270.218 453.311 267.414 451.243 265.346C449.174 263.278 446.37 262.114 443.446 262.111H354.458Z" fill="#3F3D56"/>
<path d="M425.427 293.675H372.475C370.915 293.675 369.418 293.055 368.315 291.952C367.212 290.848 366.592 289.352 366.592 287.791C366.592 286.231 367.212 284.734 368.315 283.631C369.418 282.527 370.915 281.907 372.475 281.907H425.427C426.987 281.907 428.484 282.527 429.587 283.631C430.691 284.734 431.31 286.231 431.31 287.791C431.31 289.352 430.691 290.848 429.587 291.952C428.484 293.055 426.987 293.675 425.427 293.675Z" fill="#CCCCCC"/>
<path d="M425.427 315.739H372.475C370.915 315.739 369.418 315.12 368.315 314.016C367.212 312.913 366.592 311.416 366.592 309.856C366.592 308.295 367.212 306.798 368.315 305.695C369.418 304.592 370.915 303.972 372.475 303.972H425.427C426.987 303.972 428.484 304.592 429.587 305.695C430.691 306.798 431.31 308.295 431.31 309.856C431.31 311.416 430.691 312.913 429.587 314.016C428.484 315.12 426.987 315.739 425.427 315.739Z" fill="#CCCCCC"/>
<path d="M429.839 372.004H368.062C366.404 372.002 364.816 371.342 363.644 370.17C362.472 368.999 361.813 367.41 361.811 365.752V336.333C361.813 334.675 362.472 333.086 363.644 331.914C364.816 330.742 366.404 330.083 368.062 330.081H429.839C431.496 330.083 433.085 330.742 434.257 331.914C435.429 333.086 436.088 334.675 436.09 336.333V365.752C436.088 367.41 435.429 368.999 434.257 370.17C433.085 371.342 431.496 372.002 429.839 372.004V372.004Z" fill="#E6E6E6"/>
<path d="M425.427 398.114H372.475C370.915 398.114 369.418 397.494 368.315 396.39C367.212 395.287 366.592 393.79 366.592 392.23C366.592 390.669 367.212 389.173 368.315 388.069C369.418 386.966 370.915 386.346 372.475 386.346H425.427C426.987 386.346 428.484 386.966 429.587 388.069C430.691 389.173 431.31 390.669 431.31 392.23C431.31 393.79 430.691 395.287 429.587 396.39C428.484 397.494 426.987 398.114 425.427 398.114Z" fill="#CCCCCC"/>
<path d="M389.022 206.826H300.034C296.719 206.822 293.541 205.504 291.197 203.16C288.853 200.816 287.535 197.637 287.531 194.323V111.337C287.535 108.022 288.853 104.844 291.197 102.5C293.541 100.156 296.719 98.8373 300.034 98.8336H389.022C392.337 98.8373 395.514 100.156 397.858 102.5C400.202 104.844 401.521 108.022 401.524 111.337V194.323C401.521 197.637 400.202 200.816 397.858 203.16C395.514 205.504 392.337 206.822 389.022 206.826V206.826ZM300.034 100.305C297.109 100.308 294.305 101.471 292.237 103.539C290.169 105.608 289.005 108.412 289.002 111.337V194.323C289.005 197.248 290.169 200.052 292.237 202.12C294.305 204.188 297.109 205.352 300.034 205.355H389.022C391.947 205.352 394.751 204.188 396.819 202.12C398.887 200.052 400.05 197.248 400.053 194.323V111.337C400.05 108.412 398.887 105.608 396.819 103.539C394.751 101.471 391.947 100.308 389.022 100.305H300.034Z" fill="#3F3D56"/>
<path d="M371.005 180.778H318.053C316.493 180.778 314.997 180.158 313.893 179.055C312.79 177.951 312.17 176.455 312.17 174.894C312.17 173.334 312.79 171.837 313.893 170.734C314.997 169.63 316.493 169.01 318.053 169.01H371.005C372.565 169.01 374.062 169.63 375.165 170.734C376.269 171.837 376.889 173.334 376.889 174.894C376.889 176.455 376.269 177.951 375.165 179.055C374.062 180.158 372.565 180.778 371.005 180.778Z" fill="#CCCCCC"/>
<path d="M371.005 158.714H318.053C316.493 158.714 314.997 158.094 313.893 156.99C312.79 155.887 312.17 154.39 312.17 152.83C312.17 151.269 312.79 149.773 313.893 148.669C314.997 147.566 316.493 146.946 318.053 146.946H371.005C372.565 146.946 374.062 147.566 375.165 148.669C376.269 149.773 376.889 151.269 376.889 152.83C376.889 154.39 376.269 155.887 375.165 156.99C374.062 158.094 372.565 158.714 371.005 158.714Z" fill="#CCCCCC"/>
<path d="M371.005 136.649H318.053C316.493 136.649 314.997 136.029 313.893 134.926C312.79 133.822 312.17 132.326 312.17 130.765C312.17 129.205 312.79 127.708 313.893 126.605C314.997 125.501 316.493 124.881 318.053 124.881H371.005C372.565 124.881 374.062 125.501 375.165 126.605C376.269 127.708 376.889 129.205 376.889 130.765C376.889 132.326 376.269 133.822 375.165 134.926C374.062 136.029 372.565 136.649 371.005 136.649Z" fill="#CCCCCC"/>
<path d="M231.638 206.09C240.98 206.09 248.553 198.517 248.553 189.174C248.553 179.832 240.98 172.258 231.638 172.258C222.296 172.258 214.723 179.832 214.723 189.174C214.723 198.517 222.296 206.09 231.638 206.09Z" fill="#6C63FF"/>
<path d="M229.961 195.627C229.581 195.628 229.21 195.505 228.906 195.277L228.887 195.263L224.912 192.219C224.727 192.078 224.571 191.902 224.454 191.701C224.338 191.5 224.261 191.278 224.231 191.048C224.2 190.818 224.214 190.583 224.274 190.359C224.334 190.134 224.438 189.923 224.579 189.739C224.72 189.554 224.897 189.4 225.098 189.283C225.299 189.167 225.522 189.092 225.752 189.062C225.983 189.032 226.217 189.047 226.441 189.108C226.666 189.169 226.876 189.273 227.06 189.415L229.635 191.389L235.72 183.454C235.861 183.269 236.037 183.115 236.237 182.999C236.438 182.883 236.66 182.808 236.89 182.777C237.12 182.747 237.353 182.762 237.577 182.822C237.802 182.882 238.012 182.985 238.196 183.127L238.158 183.178L238.197 183.127C238.568 183.413 238.811 183.834 238.872 184.298C238.933 184.762 238.808 185.232 238.523 185.604L231.366 194.938C231.201 195.153 230.988 195.327 230.744 195.447C230.501 195.566 230.233 195.628 229.961 195.627V195.627Z" fill="white"/>
<path d="M452.271 281.845C461.613 281.845 469.186 274.272 469.186 264.929C469.186 255.586 461.613 248.013 452.271 248.013C442.929 248.013 435.355 255.586 435.355 264.929C435.355 274.272 442.929 281.845 452.271 281.845Z" fill="#3F3D56"/>
<path d="M450.594 271.382C450.214 271.383 449.843 271.26 449.539 271.032L449.52 271.017L445.545 267.974C445.36 267.833 445.204 267.657 445.087 267.456C444.97 267.255 444.894 267.033 444.863 266.803C444.832 266.572 444.847 266.338 444.907 266.113C444.967 265.889 445.07 265.678 445.212 265.494C445.353 265.309 445.53 265.154 445.731 265.038C445.932 264.922 446.155 264.847 446.385 264.817C446.616 264.786 446.85 264.802 447.074 264.863C447.299 264.923 447.509 265.028 447.693 265.17L450.268 267.144L456.352 259.208C456.493 259.024 456.669 258.87 456.87 258.754C457.071 258.638 457.293 258.562 457.523 258.532C457.753 258.502 457.986 258.517 458.21 258.577C458.434 258.637 458.644 258.74 458.828 258.881L458.791 258.933L458.829 258.882C459.201 259.168 459.444 259.589 459.505 260.053C459.566 260.517 459.441 260.987 459.156 261.358L451.999 270.693C451.834 270.908 451.621 271.082 451.377 271.202C451.134 271.321 450.866 271.383 450.594 271.382Z" fill="white"/>
<path d="M398.583 117.832C407.925 117.832 415.498 110.259 415.498 100.916C415.498 91.5736 407.925 84 398.583 84C389.241 84 381.668 91.5736 381.668 100.916C381.668 110.259 389.241 117.832 398.583 117.832Z" fill="#3F3D56"/>
<path d="M398.5 109C403.194 109 407 105.194 407 100.5C407 95.8056 403.194 92 398.5 92C393.806 92 390 95.8056 390 100.5C390 105.194 393.806 109 398.5 109Z" fill="white"/>
<path d="M452.5 273C457.194 273 461 269.194 461 264.5C461 259.806 457.194 256 452.5 256C447.806 256 444 259.806 444 264.5C444 269.194 447.806 273 452.5 273Z" fill="white"/>
<path d="M231.5 197C236.194 197 240 193.194 240 188.5C240 183.806 236.194 180 231.5 180C226.806 180 223 183.806 223 188.5C223 193.194 226.806 197 231.5 197Z" fill="white"/>
</svg>
