<svg width="41" height="40" viewBox="0 0 41 40" fill="none" xmlns="http://www.w3.org/2000/svg">
<circle cx="20.271" cy="20" r="20" fill="#8FD5FF" fill-opacity="0.4"/>
<g clip-path="url(#clip0)">
<path d="M25.2397 28.2502C24.9557 28.2502 24.6978 28.2088 24.4735 28.1278C24.2507 28.0483 24.0372 27.9179 23.8403 27.7417C23.6421 27.565 23.4532 27.3534 23.2809 27.1124C23.1054 26.8668 22.9298 26.6166 22.7602 26.3688L20.4341 22.8029H16.4953V26.4594C16.4953 27.0524 16.3579 27.5038 16.0873 27.8029C15.8139 28.1036 15.4729 28.2497 15.0453 28.2497C14.6027 28.2497 14.2589 28.1019 13.9937 27.7982C13.729 27.4962 13.5948 27.0456 13.5948 26.4594V22.8029H11.3405C10.7508 22.8029 10.271 22.323 10.271 21.7333C10.271 21.1436 10.7508 20.6638 11.3405 20.6638H13.5948V18.8385H11.3405C10.7508 18.8387 10.271 18.3589 10.271 17.7694C10.271 17.18 10.7508 16.6999 11.3405 16.6999H13.5948V14.0347C13.5948 13.5196 13.6508 13.1149 13.7612 12.8323C13.8991 12.5052 14.1161 12.2525 14.4281 12.0506C14.7401 11.8482 15.0679 11.7498 15.4301 11.7498C15.7099 11.7498 15.9527 11.7955 16.1504 11.8861C16.3535 11.9788 16.5255 12.0993 16.6765 12.2543C16.8304 12.4118 16.9895 12.6184 17.15 12.8676C17.315 13.1241 17.4851 13.3911 17.6656 13.6764L19.6639 16.6999H24.0751V13.5406C24.0751 12.9396 24.2038 12.4854 24.4575 12.1901C24.7121 11.8938 25.0472 11.7498 25.4816 11.7498C25.9306 11.7498 26.2749 11.8941 26.5332 12.1908C26.7904 12.4859 26.9206 12.9403 26.9206 13.5406V16.6999H29.2015C29.7912 16.6999 30.271 17.1797 30.271 17.7694C30.271 18.3591 29.7912 18.8387 29.2015 18.8387H26.9206V20.6643H29.2015C29.7912 20.6643 30.271 21.1439 30.271 21.7338C30.271 22.3235 29.7912 22.8029 29.2015 22.8029H26.9206V26.2072C26.9206 27.5819 26.3709 28.2502 25.2397 28.2502ZM16.1424 22.0969H20.6254C20.7445 22.0969 20.8558 22.1572 20.9209 22.2569L23.3475 25.977C23.5094 26.2147 23.6831 26.4606 23.8551 26.702C23.9972 26.9 24.1507 27.0727 24.3111 27.2157C24.4403 27.3315 24.5749 27.4148 24.7128 27.464C24.8608 27.5179 25.0378 27.5447 25.2399 27.5447C25.651 27.5447 26.2148 27.5447 26.2148 26.2074V22.4499C26.2148 22.255 26.3732 22.0969 26.5678 22.0969H29.2017C29.4024 22.0969 29.5653 21.9338 29.5653 21.7333C29.5653 21.5329 29.4024 21.3698 29.2017 21.3698H26.5676C26.3727 21.3698 26.2146 21.2117 26.2146 21.0168V18.4857C26.2146 18.2909 26.3727 18.1328 26.5676 18.1328H29.2015C29.402 18.1328 29.565 17.9699 29.565 17.7694C29.565 17.569 29.402 17.4059 29.2015 17.4059H26.5676C26.3727 17.4059 26.2146 17.2477 26.2146 17.0529V13.5406C26.2146 13.0111 26.0984 12.7664 26.0005 12.6541C25.9151 12.5558 25.7868 12.4555 25.4816 12.4555C25.2531 12.4555 25.1117 12.5118 24.9931 12.6499C24.8968 12.7626 24.7815 13.0083 24.7815 13.5403V17.0527C24.7815 17.2475 24.6234 17.4056 24.4286 17.4056H19.474C19.3554 17.4056 19.2445 17.3461 19.1794 17.2473L17.073 14.0599C16.8893 13.7705 16.7201 13.5048 16.5561 13.2497C16.4215 13.0401 16.2918 12.8711 16.1708 12.7473C16.0817 12.6553 15.9793 12.584 15.8569 12.528C15.7536 12.4807 15.6056 12.4555 15.4301 12.4555C15.2053 12.4555 15.0091 12.5151 14.8119 12.6428C14.6199 12.7673 14.4937 12.912 14.4152 13.0979C14.3747 13.2015 14.3008 13.4749 14.3008 14.0347V17.0527C14.3008 17.2475 14.1427 17.4056 13.9478 17.4056H11.3405C11.14 17.4059 10.9769 17.569 10.9769 17.7694C10.9769 17.9699 11.14 18.1328 11.3405 18.1328H13.9478C14.1427 18.1328 14.3008 18.2909 14.3008 18.4857V21.017C14.3008 21.2119 14.1427 21.37 13.9478 21.37H11.3405C11.14 21.3698 10.9769 21.5331 10.9769 21.7333C10.9769 21.9336 11.14 22.0969 11.3405 22.0969H13.9478C14.1427 22.0969 14.3008 22.255 14.3008 22.4499V26.4594C14.3008 26.8639 14.3784 27.1663 14.525 27.3336C14.6538 27.4812 14.8091 27.5442 15.0453 27.5442C15.2719 27.5442 15.4268 27.48 15.5642 27.3285C15.7113 27.1666 15.7894 26.8658 15.7894 26.4601V22.4499C15.7894 22.255 15.9475 22.0969 16.1424 22.0969ZM24.4281 24.9028C24.3118 24.9028 24.2001 24.8449 24.1335 24.7442L22.7461 22.6443C22.6748 22.5358 22.6684 22.3967 22.7303 22.2826C22.7919 22.1682 22.9117 22.0969 23.0407 22.0969H24.4281C24.6229 22.0969 24.7811 22.255 24.7811 22.4499V24.5498C24.7811 24.7056 24.6785 24.8431 24.5297 24.888C24.4961 24.8979 24.4617 24.9028 24.4281 24.9028ZM23.697 22.8029L24.0751 23.3751V22.8029H23.697ZM24.4281 21.3698H22.0938C21.9752 21.3698 21.8643 21.3102 21.7991 21.2114L20.1267 18.6801C20.055 18.5716 20.0486 18.4326 20.1103 18.3182C20.1719 18.2041 20.2915 18.1325 20.4209 18.1325H24.4281C24.6229 18.1325 24.7811 18.2907 24.7811 18.4855V21.0168C24.7811 21.2119 24.6229 21.3698 24.4281 21.3698ZM22.2837 20.6638H24.0751V18.8385H21.0772L22.2837 20.6638ZM19.6905 21.3698H16.1424C15.9475 21.3698 15.7894 21.2117 15.7894 21.0168V18.4857C15.7894 18.2909 15.9475 18.1328 16.1424 18.1328H18.0397C18.1588 18.1328 18.2701 18.193 18.3353 18.293L19.9863 20.8243C20.0571 20.9328 20.0625 21.0712 20.0011 21.1851C19.9392 21.2992 19.8201 21.3698 19.6905 21.3698ZM16.4953 20.6638H19.0389L17.8484 18.8385H16.4953V20.6638ZM17.1048 17.4061H16.1424C15.9475 17.4061 15.7894 17.248 15.7894 17.0531V15.5775C15.7894 15.4212 15.892 15.2836 16.0417 15.2391C16.1911 15.1948 16.3527 15.2537 16.4379 15.3845L17.4004 16.8602C17.4712 16.9687 17.4771 17.1073 17.4154 17.2212C17.3535 17.3348 17.2345 17.4061 17.1048 17.4061Z" fill="#0770B0"/>
</g>
<defs>
<clipPath id="clip0">
<rect width="20" height="20" fill="white" transform="translate(10.271 10)"/>
</clipPath>
</defs>
</svg>
