<svg width="24" height="25" viewBox="0 0 24 25" fill="none" xmlns="http://www.w3.org/2000/svg">
<g id="account_balance_wallet_24px">
<path id="icon/action/account_balance_wallet_24px" fill-rule="evenodd" clip-rule="evenodd" d="M20.5 5.49058V7.71198C21.09 8.05298 21.5 8.66679 21.5 9.38777V15.2336C21.5 15.9546 21.09 16.5684 20.5 16.9094V19.1308C20.5 20.2025 19.6 21.0794 18.5 21.0794H4.5C3.39 21.0794 2.5 20.2025 2.5 19.1308V5.49058C2.5 4.41885 3.39 3.54198 4.5 3.54198H18.5C19.6 3.54198 20.5 4.41885 20.5 5.49058ZM12.5 15.2336H19.5V9.38777H12.5V15.2336ZM4.5 19.1308V5.49058H18.5V7.43918H12.5C11.4 7.43918 10.5 8.31605 10.5 9.38777V15.2336C10.5 16.3053 11.4 17.1822 12.5 17.1822H18.5V19.1308H4.5ZM14 12.3107C14 11.5035 14.6716 10.8492 15.5 10.8492C16.3284 10.8492 17 11.5035 17 12.3107C17 13.1178 16.3284 13.7721 15.5 13.7721C14.6716 13.7721 14 13.1178 14 12.3107Z" fill="#D2EEFF"/>
</g>
</svg>
