<svg width="134" height="270" viewBox="0 0 134 270" fill="none" xmlns="http://www.w3.org/2000/svg">
<g opacity="0.22" clip-path="url(#clip0)">
<path d="M109.63 47.901C97.7204 23.9597 68.833 14.6574 45.3636 26.3318L35.3966 31.2897C11.6768 43.0886 2.02755 71.8339 13.8275 95.5558C16.2544 100.435 19.454 104.822 23.3374 108.594C23.9583 109.198 24.9505 109.183 25.5538 108.562C26.1569 107.941 26.1426 106.949 25.5218 106.346C21.8931 102.821 18.9029 98.7205 16.6342 94.1597C5.60715 71.9916 14.6217 45.1249 36.7928 34.0964C47.5069 28.7669 59.6549 27.9287 70.9994 31.736C82.3438 35.5435 91.5265 43.5408 96.856 54.2549C107.883 76.423 98.8687 103.29 76.6975 114.318C61.4262 121.915 43.5042 120.105 30.1427 110.264C29.4453 109.751 28.4638 109.9 27.9511 110.597C27.4378 111.294 27.5866 112.275 28.2836 112.788C42.6012 123.333 61.7805 125.24 78.0936 117.125L88.0606 112.167C111.834 100.342 121.383 71.5288 109.63 47.901ZM108.422 85.591L102.482 88.5453C103.564 85.1016 104.249 81.594 104.54 78.0764L111.173 74.7769C110.704 78.5263 109.762 82.168 108.422 85.591ZM104.702 74.4951C104.723 71.4628 104.451 68.4373 103.892 65.4522L110.933 61.9498C111.437 64.9787 111.622 68.0486 111.49 71.1185L104.702 74.4951ZM110.28 58.7737L103.19 62.3005C102.484 59.5705 101.532 56.8862 100.336 54.2747L107.494 50.714C108.653 53.258 109.597 55.9461 110.28 58.7737ZM106.098 47.9072L98.9396 51.4679C97.5787 48.938 96.0121 46.5597 94.2607 44.3498L101.355 40.8211C103.141 43.0065 104.729 45.3761 106.098 47.9072ZM99.2042 38.3896L92.1708 41.8883C90.1274 39.6418 87.8784 37.5997 85.4471 35.7873L92.2249 32.4158C94.7552 34.1647 97.0942 36.167 99.2042 38.3896ZM89.136 30.4512L82.4937 33.7553C79.5126 31.8654 76.3022 30.2956 72.9031 29.0805L78.8473 26.1236C82.4202 27.1335 85.8788 28.5777 89.136 30.4512ZM68.5478 27.7459C63.6968 26.5056 58.7467 26.0419 53.8452 26.3382C60.3591 24.3835 67.2425 23.9336 73.9792 25.0442L68.5478 27.7459ZM100.92 92.8239L106.363 90.1165C103.184 96.1866 98.682 101.404 93.1452 105.431C96.351 101.693 98.9764 97.4544 100.92 92.8239Z" fill="#0A54A2"/>
<path d="M70.859 39.6001C71.152 38.7857 70.7291 37.8878 69.9145 37.5949C59.8341 33.9703 49.0026 34.6006 39.4159 39.3693C20.2063 48.925 12.3524 72.327 21.9078 91.5364C31.4631 110.746 54.8649 118.6 74.0745 109.045C93.2841 99.4893 101.138 76.0874 91.5828 56.878C88.1001 49.8766 82.6716 44.1533 75.8845 40.3268C75.1302 39.9018 74.1743 40.1682 73.7493 40.9223C73.324 41.6765 73.5909 42.6324 74.3448 43.0575C80.5835 46.5747 85.5739 51.8367 88.7761 58.2741C97.5616 75.9359 90.3402 97.4525 72.6782 106.238C55.0163 115.024 33.4998 107.802 24.7143 90.1404C15.9287 72.4784 23.1501 50.9618 40.8119 42.1763C49.6263 37.7918 59.5852 37.2123 68.8538 40.5448C69.6685 40.8377 70.5664 40.4149 70.859 39.6001Z" fill="#0A54A2"/>
<path d="M47.1457 73.0697L42.7156 75.2734C41.9404 75.659 41.6247 76.5996 42.0103 77.3748L45.5157 84.4219C45.9014 85.1971 46.8419 85.5128 47.6172 85.1272L58.6583 79.6349C59.2178 79.3566 59.5585 78.7727 59.5255 78.1486C59.4924 77.5245 59.0919 76.9797 58.5061 76.7622L48.3896 73.0037C47.9836 72.853 47.5334 72.8769 47.1457 73.0697ZM47.6244 81.6224L45.5151 77.382L47.9341 76.1787L54.0216 78.4402L47.6244 81.6224Z" fill="#0A54A2"/>
<path d="M66.3552 75.8063L70.8229 73.5839C71.1983 73.3972 71.4833 73.0678 71.6141 72.6696C71.7449 72.2715 71.7107 71.8371 71.5189 71.4642L67.9209 64.4633C67.5288 63.7004 66.5966 63.3945 65.8288 63.7764L54.8427 69.2413C54.2832 69.5196 53.9426 70.1036 53.9755 70.7277C54.0086 71.3517 54.4092 71.8965 54.9949 72.114L65.1114 75.8725C65.5173 76.0231 65.9675 75.9991 66.3552 75.8063ZM65.8397 67.272L68.0047 71.4846L65.5668 72.6973L59.4793 70.4358L65.8397 67.272Z" fill="#0A54A2"/>
<path d="M77.3443 56.7643C76.2922 54.6492 73.7156 53.7844 71.6004 54.8366L70.3442 55.4615L67.4541 49.8384C66.2845 47.5625 63.4692 46.6379 61.1786 47.7773L61.1226 47.8056C58.8167 48.9907 57.9048 51.8312 59.0899 54.1372L61.9233 59.6503L48.4667 66.344L36.3669 61.8488C34.5472 61.173 32.5327 61.6683 31.2332 63.1124C29.9347 64.5563 29.6546 66.6124 30.5194 68.3509L33.2791 73.8988L32.3347 74.3685C30.2196 75.4206 29.3548 77.9973 30.4069 80.1124C31.4591 82.2275 34.0357 83.0923 36.1508 82.0402L37.0952 81.5704L39.2045 85.8108L38.2601 86.2805C36.145 87.3326 35.2802 89.9093 36.3323 92.0244C37.3845 94.1395 39.9611 95.0043 42.0762 93.9522L43.0206 93.4824L45.6223 98.7128C46.777 101.034 49.6052 101.983 51.9266 100.829C54.2479 99.6739 55.1971 96.8457 54.0424 94.5244L51.4407 89.294L65.0346 82.532L68.7414 83.9092C69.5528 84.2105 70.455 83.7972 70.7567 82.9856C71.0582 82.1742 70.6447 81.2721 69.8331 80.9704L65.4902 79.3569C65.0842 79.2062 64.6341 79.23 64.2462 79.4229L48.6412 87.1854C47.866 87.571 47.5503 88.5116 47.9359 89.2868L51.2357 95.9205C51.6207 96.6944 51.3043 97.637 50.5304 98.0219C49.7565 98.4069 48.814 98.0906 48.429 97.3167L45.1292 90.6829C44.7436 89.9077 43.803 89.592 43.0278 89.9776L40.6801 91.1455C40.1127 91.4277 39.4212 91.1956 39.139 90.6283C38.8568 90.0609 39.0889 89.3694 39.6562 89.0872L42.0039 87.9194C42.7792 87.5338 43.0948 86.5932 42.7092 85.818L39.2038 78.7709C38.8182 77.9957 37.8776 77.68 37.1024 78.0656L34.7547 79.2335C34.1874 79.5157 33.4959 79.2836 33.2136 78.7163C32.9314 78.1489 33.1635 77.4574 33.7309 77.1752L36.0786 76.0074C36.8538 75.6218 37.1695 74.6812 36.7838 73.906L33.3261 66.9547C33.0378 66.3752 33.1312 65.6897 33.5635 65.2088C33.9969 64.7273 34.6687 64.5622 35.2752 64.7875L48.0108 69.5192C48.4168 69.67 48.8668 69.6461 49.2547 69.4532L64.741 61.7499C65.1163 61.5632 65.4013 61.2337 65.5321 60.8356C65.6629 60.4374 65.6287 60.003 65.4369 59.6302L61.8778 52.7046C61.4827 51.9358 61.7868 50.9888 62.5552 50.5937L62.5745 50.5841C63.3378 50.2045 64.276 50.5127 64.666 51.2713L68.263 58.2702C68.6551 59.0331 69.5873 59.3389 70.355 58.957L72.9963 57.6432C73.5636 57.361 74.2551 57.5931 74.5373 58.1604C74.8195 58.7277 74.5875 59.4192 74.0201 59.7014L71.4426 60.9835C71.0673 61.1703 70.7823 61.4997 70.6515 61.8978C70.5207 62.296 70.5549 62.7304 70.7467 63.1032L74.3447 70.1042C74.7368 70.8671 75.669 71.1729 76.4367 70.791L78.9216 69.555C79.4889 69.2728 80.1804 69.5049 80.4626 70.0722C80.7448 70.6395 80.5127 71.331 79.9454 71.6132L77.5245 72.8175C77.1492 73.0042 76.8642 73.3336 76.7334 73.7317C76.6026 74.1299 76.6368 74.5643 76.8286 74.9371L79.6825 80.4909C80.1264 81.3835 80.0256 82.3918 79.4252 83.0599C78.8051 83.7507 77.8451 83.9451 76.8594 83.5804L75.7189 83.1567C74.9075 82.8554 74.0054 83.2687 73.7037 84.0802C73.4022 84.8917 73.8157 85.7938 74.6272 86.0955L75.7697 86.5199C77.9737 87.3354 80.2682 86.8126 81.7572 85.1551C83.2221 83.5245 83.5095 81.1459 82.4893 79.095L80.3426 74.9169L81.3417 74.4198C83.4569 73.3677 84.3216 70.7911 83.2695 68.676C82.2174 66.5608 79.6408 65.6961 77.5256 66.7482L76.4258 67.2953L74.2607 63.0827L75.4164 62.5078C77.5317 61.4561 78.3964 58.8795 77.3443 56.7643Z" fill="#0A54A2"/>
</g>
<path d="M18.3982 255.789C8.84847 250.636 2.90347 243.6 0.728129 234.878C-0.887061 228.402 -0.422906 221.114 2.1075 213.218C3.98334 207.396 6.79583 201.896 10.4413 196.922C29.7813 170.423 31.5268 153.156 29.5855 143.337C27.4571 132.57 20.542 128.099 20.4723 128.055L20.7708 127.611C20.8422 127.655 27.9396 132.231 30.1192 143.216C31.3757 149.548 30.7846 156.769 28.3622 164.678C25.3473 174.521 19.4683 185.472 10.8887 197.228C7.27636 202.157 4.48942 207.606 2.63049 213.374C-1.51965 226.326 -2.1068 244.117 18.6648 255.327L18.3982 255.789Z" fill="#2F2E41"/>
<path d="M1.47718 206.589C-6.28041 202.536 -6.06443 196.111 -4.5172 191.436C-3.8312 189.374 -2.80256 187.426 -1.46918 185.664C5.5122 176.401 6.1431 170.383 5.44305 166.966C4.68266 163.255 2.24349 161.732 2.21898 161.717L2.52644 161.274C2.63485 161.34 5.19192 162.937 5.99708 166.866C7.04551 171.983 4.68858 178.41 -1.00826 185.969C-2.30752 187.686 -3.30985 189.583 -3.97832 191.592C-5.46369 196.081 -5.67528 202.247 1.75186 206.128L1.47718 206.589Z" fill="#2F2E41"/>
<path d="M34.9938 148.326L34.7497 147.864C41.3516 143.983 41.1635 137.818 39.8432 133.329C39.249 131.32 38.358 129.422 37.2031 127.706C32.1393 120.147 30.0442 113.72 30.9761 108.603C31.6918 104.674 33.9648 103.077 34.0612 103.011L34.3348 103.454C34.3129 103.469 32.1337 105.012 31.4648 108.724C30.8494 112.139 31.4163 118.151 37.6128 127.401C38.798 129.163 39.7123 131.11 40.3222 133.172C41.6975 137.848 41.8895 144.272 34.9938 148.326Z" fill="#2F2E41"/>
<path d="M51.1574 121.506C50.5627 122.358 49.7942 123.092 48.8957 123.667C47.9972 124.242 46.9863 124.645 45.9208 124.855C44.8553 125.064 43.756 125.076 42.6857 124.889C41.6155 124.701 40.5953 124.319 39.6833 123.763C38.7713 123.207 37.9855 122.489 37.3707 121.649C36.756 120.81 36.3243 119.865 36.1003 118.87C35.8764 117.874 35.8645 116.847 36.0655 115.848C36.2665 114.848 36.6764 113.895 37.2717 113.043C39.7733 109.461 52.3677 105.6 52.3677 105.6C52.3677 105.6 53.659 117.924 51.1574 121.506Z" fill="#0A54A2"/>
<path d="M47.4042 96.9059C46.8553 97.7581 46.1459 98.4924 45.3165 99.0671C44.4871 99.6417 43.554 100.045 42.5704 100.255C41.5869 100.464 40.5722 100.476 39.5842 100.289C38.5963 100.101 37.6546 99.7186 36.8127 99.1628C35.9709 98.607 35.2456 97.8888 34.6781 97.0492C34.1106 96.2096 33.7121 95.2651 33.5054 94.2697C33.2987 93.2742 33.2878 92.2473 33.4733 91.2475C33.6588 90.2478 34.0371 89.2949 34.5867 88.4431C36.8958 84.8611 48.5214 81 48.5214 81C48.5214 81 49.7134 93.3239 47.4042 96.9059Z" fill="#0A54A2"/>
<path d="M34.7854 187.168C32.9954 187.172 31.2577 186.519 29.8581 185.318C28.4585 184.117 27.4803 182.439 27.0843 180.561C26.6883 178.682 26.8981 176.714 27.6792 174.981C28.4604 173.247 29.7663 171.852 31.3823 171.023C35.2226 169.054 46.741 171.937 47.2297 172.06L47.5385 172.139L47.4004 172.446C47.1818 172.932 42.0042 184.375 38.1636 186.344C37.1088 186.887 35.9545 187.168 34.7854 187.168ZM35.4269 170.885C33.8647 170.885 32.4957 171.059 31.6011 171.517C29.8352 172.423 28.4757 174.046 27.8218 176.03C27.1679 178.014 27.2732 180.197 28.1144 182.097C28.9556 183.998 30.4639 185.461 32.3075 186.165C34.151 186.869 36.1788 186.755 37.9448 185.85C41.2859 184.137 45.9327 174.388 46.8004 172.517C45.412 172.185 39.6986 170.885 35.4269 170.885Z" fill="#2F2E41"/>
<path d="M17.9061 114.383C18.6586 115.056 19.2686 115.868 19.7012 116.772C20.1338 117.677 20.3806 118.656 20.4276 119.654C20.4745 120.651 20.3206 121.649 19.9747 122.588C19.6287 123.528 19.0975 124.391 18.4114 125.129C17.7253 125.867 16.8977 126.466 15.9758 126.89C15.054 127.314 14.056 127.556 13.0387 127.602C12.0215 127.648 11.005 127.498 10.0472 127.158C9.08944 126.819 8.20919 126.298 7.45672 125.625C4.29213 122.794 2.36743 110.779 2.36743 110.779C2.36743 110.779 14.7415 111.553 17.9061 114.383Z" fill="#0A54A2"/>
<path d="M-0.342855 148.047C1.28538 149.406 2.25716 151.302 2.35869 153.317C2.46022 155.332 1.68318 157.302 0.19853 158.792C-1.28613 160.283 -3.35678 161.173 -5.55793 161.266C-7.75908 161.359 -9.91041 160.647 -11.5387 159.288C-14.9293 156.457 -16.9915 144.442 -16.9915 144.442C-16.9915 144.442 -3.73349 145.216 -0.342855 148.047Z" fill="#0A54A2"/>
<path d="M19.9518 152.21C17.2038 152.21 11.9491 149.688 11.7081 149.571L11.4016 149.423L11.6175 149.166C11.802 148.945 16.1637 143.765 18.6169 143.25C19.8344 142.995 21.1067 143.219 22.154 143.873C23.2013 144.527 23.9377 145.557 24.2012 146.737C24.4648 147.917 24.2339 149.151 23.5594 150.166C22.8848 151.181 21.8219 151.895 20.6044 152.15C20.3896 152.193 20.1709 152.213 19.9518 152.21ZM12.2657 149.242C13.5599 149.841 18.5165 152.045 20.4884 151.63C21.563 151.404 22.5009 150.773 23.096 149.877C23.6912 148.981 23.8948 147.892 23.6621 146.85C23.4294 145.808 22.7794 144.899 21.8551 144.321C20.9308 143.744 19.8078 143.546 18.7329 143.771C16.7604 144.185 13.1884 148.178 12.2657 149.242Z" fill="#2F2E41"/>
<defs>
<clipPath id="clip0">
<rect width="107" height="107" fill="white" transform="translate(-10 47.6548) rotate(-26.4471)"/>
</clipPath>
</defs>
</svg>
