<svg width="41" height="40" viewBox="0 0 41 40" fill="none" xmlns="http://www.w3.org/2000/svg">
<circle cx="20.271" cy="20" r="20" fill="#C1B1FF" fill-opacity="0.4"/>
<path fill-rule="evenodd" clip-rule="evenodd" d="M25.8333 13.3333H25V11.6667H23.3333V13.3333H16.6667V11.6667H15V13.3333H14.1667C13.25 13.3333 12.5 14.0833 12.5 15V26.6667C12.5 27.5833 13.25 28.3333 14.1667 28.3333H25.8333C26.75 28.3333 27.5 27.5833 27.5 26.6667V15C27.5 14.0833 26.75 13.3333 25.8333 13.3333ZM25.8333 26.6667H14.1667V18.3333H25.8333V26.6667ZM14.1667 15V16.6667H25.8333V15H14.1667ZM15.8333 20H24.1667V21.6667H15.8333V20ZM21.6667 23.3333H15.8333V25H21.6667V23.3333Z" fill="#886BFE"/>
</svg>
