<svg height="512" viewBox="0 0 64 64" width="512" xmlns="http://www.w3.org/2000/svg"><g id="credit_card-hand-money-saving-investment-business-finance" data-name="credit card-hand-money-saving-investment-business-finance"><path d="m8 13h44v36h-44z" fill="#2488ff" transform="matrix(0 1 -1 0 61 1)"/><path d="m29-12h4a0 0 0 0 1 0 0v36a0 0 0 0 1 0 0h-4a2 2 0 0 1 -2-2v-32a2 2 0 0 1 2-2z" fill="#e1ecfd" transform="matrix(0 1 -1 0 36 -24)"/><path d="m12 59v-6h36v6a2 2 0 0 1 -2 2h-32a2 2 0 0 1 -2-2z" fill="#e1ecfd"/><path d="m55 39a3 3 0 0 1 6 0v10l-3 9v4h-20v-5l-4.14-3.91-.05-.09-5.62-10.34a3.01 3.01 0 0 1 1.03-4.12 2.986 2.986 0 0 1 4.11 1.03l3.67 6.1v-20.67a3 3 0 0 1 6 0v12a3 3 0 0 1 3-3 2.965 2.965 0 0 1 2 .77 1.2 1.2 0 0 1 .12.11 2.993 2.993 0 0 1 .88 2.12v1a3 3 0 0 1 6 0z" fill="#ffddce"/><rect fill="#e0e0e2" height="19" rx="2" width="30" x="3" y="14"/><path d="m3 18h30v3h-30z" fill="#3e3d42"/><path d="m28.5 27a1.5 1.5 0 0 1 0 3h-4a1.5 1.5 0 0 1 0-3z" fill="#00e7f0"/><path d="m28 56h4v2h-4z" fill="#5bcbfa"/></g></svg>