<svg width="1174" height="963" viewBox="0 0 1174 963" fill="none" xmlns="http://www.w3.org/2000/svg">
<g clip-path="url(#clip0)">
<path d="M526.848 947.672L517.407 950.125C515.813 950.787 514.195 951.424 512.503 952.136L526.848 947.672Z" fill="#E9D9F4"/>
<path d="M1120.05 537.084C1073.29 483.841 1004.95 449.924 950.73 398.349C874.271 325.585 870.568 219.934 823.217 131.646C760.172 14.1991 611.497 -28.4489 489.035 19.0794C333.494 79.4585 288.89 262.092 174.717 369.018C77.7824 459.759 -21.1381 543.657 3.94761 690.803C23.099 803.223 110.47 890.235 211.352 935.924C329.399 989.388 448.182 950.271 570.864 932.172C706.862 912.111 847.273 959.86 980.867 924.57C1107.55 891.02 1196.66 764.352 1168.8 633.171C1161.32 597.4 1144.5 564.248 1120.05 537.084V537.084Z" fill="#E9D9F4"/>
<path d="M948.131 849.967L597.814 833.658C594.275 833.491 590.803 832.629 587.597 831.12C584.391 829.611 581.514 827.485 579.13 824.864C576.745 822.243 574.901 819.177 573.702 815.843C572.502 812.508 571.972 808.97 572.14 805.431L573.292 780.906L575.475 734.065L581.164 609.481C581.315 605.926 582.167 602.437 583.672 599.213C585.177 595.989 587.305 593.095 589.933 590.697C592.561 588.299 595.637 586.445 598.984 585.24C602.332 584.036 605.884 583.506 609.437 583.681L959.754 600.014C966.898 600.351 973.615 603.511 978.429 608.8C983.244 614.089 985.761 621.073 985.428 628.217L979.69 751.992L977.483 798.858L976.306 824.167C976.155 827.713 975.306 831.194 973.807 834.412C972.308 837.629 970.189 840.518 967.572 842.915C964.955 845.312 961.89 847.168 958.554 848.378C955.218 849.588 951.676 850.128 948.131 849.967V849.967Z" fill="#FDD901"/>
<path d="M977.483 798.956L573.268 780.882L575.475 734.04L979.665 752.09L977.483 798.956Z" fill="#525753"/>
<path d="M565.544 449.876L897.641 337.235C904.434 334.934 911.863 335.421 918.298 338.588C924.733 341.755 929.65 347.345 931.971 354.132L994.967 539.905C996.105 543.261 996.57 546.808 996.336 550.343C996.103 553.879 995.175 557.334 993.606 560.511C992.037 563.688 989.858 566.525 987.192 568.859C984.527 571.194 981.428 572.98 978.072 574.116L645.877 686.683C639.103 688.982 631.694 688.495 625.28 685.331C618.865 682.167 613.969 676.584 611.669 669.811L548.673 484.112C547.531 480.756 547.062 477.208 547.292 473.671C547.522 470.134 548.447 466.677 550.014 463.497C551.581 460.318 553.759 457.478 556.424 455.141C559.088 452.804 562.187 451.015 565.544 449.876V449.876Z" fill="#364B8E"/>
<path d="M920.592 544.099C919.277 540.217 919.142 536.033 920.205 532.075C921.268 528.117 923.48 524.564 926.561 521.863C929.643 519.162 933.457 517.436 937.519 516.902C941.582 516.369 945.712 517.052 949.386 518.866C953.061 520.679 956.115 523.541 958.164 527.091C960.212 530.64 961.162 534.717 960.893 538.806C960.625 542.896 959.15 546.814 956.656 550.065C954.161 553.316 950.759 555.754 946.879 557.072C944.301 557.947 941.576 558.306 938.86 558.128C936.143 557.95 933.489 557.238 931.047 556.033C928.606 554.828 926.426 553.154 924.632 551.106C922.838 549.058 921.465 546.677 920.592 544.099V544.099Z" fill="#FDD901"/>
<path d="M897.689 551.799C896.375 547.918 896.24 543.734 897.303 539.776C898.365 535.818 900.577 532.264 903.659 529.564C906.741 526.863 910.554 525.137 914.617 524.603C918.68 524.07 922.809 524.753 926.484 526.566C930.159 528.38 933.213 531.242 935.261 534.791C937.309 538.341 938.259 542.418 937.991 546.507C937.723 550.596 936.248 554.514 933.753 557.765C931.259 561.017 927.857 563.455 923.977 564.773C921.399 565.648 918.674 566.007 915.958 565.828C913.241 565.65 910.586 564.938 908.145 563.733C905.704 562.529 903.524 560.855 901.73 558.807C899.936 556.759 898.563 554.378 897.689 551.799V551.799Z" fill="#F4554F"/>
<path d="M608.334 557.563L930.107 448.429C931.408 447.992 932.829 448.087 934.06 448.693C935.291 449.3 936.233 450.368 936.679 451.666V451.666C937.116 452.967 937.021 454.388 936.415 455.619C935.809 456.851 934.74 457.792 933.442 458.239L611.669 567.397C610.365 567.833 608.941 567.734 607.709 567.123C606.478 566.512 605.538 565.437 605.097 564.135V564.135C604.66 562.834 604.755 561.413 605.361 560.182C605.968 558.95 607.036 558.009 608.334 557.563V557.563Z" fill="white"/>
<path d="M650.215 653.991L689.416 640.698C694.841 638.858 697.748 632.968 695.909 627.542L689.995 610.1C688.156 604.674 682.266 601.767 676.841 603.607L637.64 616.9C632.215 618.739 629.308 624.629 631.148 630.055L637.061 647.498C638.901 652.924 644.79 655.831 650.215 653.991Z" fill="#FDD901"/>
<path d="M853.013 418.722L914.249 397.945C916.313 397.244 917.419 395.002 916.719 392.937L908.155 367.692C907.455 365.627 905.213 364.521 903.148 365.222L841.913 385.999C839.848 386.699 838.742 388.941 839.442 391.007L848.006 416.251C848.706 418.316 850.948 419.422 853.013 418.722Z" fill="white"/>
<path d="M765.751 448.162L826.991 427.395C829.055 426.695 830.162 424.453 829.462 422.388L820.903 397.142C820.202 395.076 817.961 393.97 815.896 394.67L754.657 415.437C752.592 416.137 751.485 418.379 752.186 420.444L760.745 445.69C761.445 447.755 763.686 448.862 765.751 448.162Z" fill="white"/>
<path d="M678.496 477.886L739.732 457.109C741.797 456.409 742.903 454.167 742.202 452.101L733.639 426.857C732.938 424.792 730.696 423.686 728.632 424.386L667.396 445.163C665.331 445.864 664.225 448.106 664.926 450.171L673.489 475.416C674.19 477.481 676.432 478.587 678.496 477.886Z" fill="white"/>
<path d="M590.17 507.728L651.41 486.961C653.474 486.261 654.581 484.019 653.881 481.954L645.322 456.708C644.621 454.643 642.38 453.536 640.315 454.236L579.076 475.003C577.011 475.703 575.904 477.945 576.604 480.01L585.164 505.256C585.864 507.321 588.105 508.428 590.17 507.728Z" fill="white"/>
<path d="M483.543 47.6509V274.722H257.649V40.5879L265.055 49.0733L272.877 40.0729L280.724 49.0733L288.571 40.0729L296.418 49.0733L304.265 40.0729L312.112 49.0733L319.959 40.0729L327.806 49.0733L335.653 40.0729L343.5 49.0733L351.347 40.0729L359.194 49.0733L367.016 40.0729L374.863 49.0733L382.71 40.0729L390.557 49.0733L398.404 40.0729L406.251 49.0733L414.098 40.0729L421.945 49.0733L429.792 40.0729L437.639 49.0733L445.485 40.0729L453.357 49.0733L461.204 40.0729L469.051 49.0733L476.922 40.0729L483.543 47.6509Z" fill="#F9F9F9"/>
<path d="M385.873 92.972H277.266C276.602 92.9731 275.962 92.7195 275.478 92.2634C274.995 91.8072 274.705 91.1832 274.667 90.5196V90.5196C274.673 89.8321 274.949 89.1746 275.435 88.6885C275.921 88.2023 276.579 87.9264 277.266 87.92H385.873C386.536 87.9576 387.16 88.248 387.616 88.7315C388.072 89.215 388.326 89.8549 388.325 90.5196V90.5196C388.325 91.17 388.067 91.7938 387.607 92.2537C387.147 92.7137 386.523 92.972 385.873 92.972Z" fill="#7F7F7F"/>
<path d="M385.873 143.394H277.266C276.575 143.394 275.911 143.121 275.42 142.634C274.928 142.148 274.649 141.486 274.643 140.795V140.795C274.68 140.131 274.971 139.507 275.454 139.051C275.937 138.595 276.577 138.341 277.242 138.342H385.848C386.499 138.342 387.122 138.601 387.582 139.06C388.042 139.52 388.301 140.144 388.301 140.795C388.302 141.455 388.052 142.092 387.601 142.575C387.15 143.058 386.532 143.351 385.873 143.394V143.394Z" fill="#7F7F7F"/>
<path d="M385.873 159.114H277.266C276.575 159.114 275.911 158.841 275.42 158.354C274.928 157.868 274.649 157.206 274.643 156.515V156.515C274.68 155.851 274.971 155.227 275.454 154.771C275.937 154.315 276.577 154.061 277.242 154.062H385.848C386.499 154.062 387.122 154.321 387.582 154.781C388.042 155.241 388.301 155.864 388.301 156.515C388.302 157.175 388.052 157.812 387.601 158.295C387.15 158.778 386.532 159.071 385.873 159.114Z" fill="#7F7F7F"/>
<path d="M373.955 206.299H277.119C275.765 206.299 274.667 207.397 274.667 208.752V209.022C274.667 210.376 275.765 211.474 277.119 211.474H373.955C375.31 211.474 376.407 210.376 376.407 209.022V208.752C376.407 207.397 375.31 206.299 373.955 206.299Z" fill="#7F7F7F"/>
<path d="M423.734 231.118H277.266C276.602 231.119 275.962 230.865 275.478 230.409C274.995 229.953 274.705 229.329 274.667 228.666V228.666C274.673 227.978 274.949 227.321 275.435 226.834C275.921 226.348 276.579 226.072 277.266 226.066H423.734C424.398 226.104 425.022 226.394 425.478 226.878C425.934 227.361 426.187 228.001 426.186 228.666V228.666C426.186 229.316 425.928 229.94 425.468 230.4C425.008 230.86 424.385 231.118 423.734 231.118Z" fill="#7F7F7F"/>
<path d="M412.234 111.316H277.364C277.014 111.329 276.664 111.272 276.336 111.148C276.008 111.023 275.708 110.834 275.454 110.592C275.2 110.349 274.998 110.059 274.858 109.737C274.719 109.414 274.646 109.068 274.643 108.717V108.717C274.68 108.053 274.971 107.429 275.454 106.973C275.937 106.517 276.577 106.263 277.242 106.264H412.111C412.776 106.263 413.415 106.517 413.899 106.973C414.382 107.429 414.673 108.053 414.71 108.717V108.717C414.705 109.384 414.446 110.024 413.986 110.506C413.526 110.989 412.9 111.279 412.234 111.316V111.316Z" fill="#7F7F7F"/>
<path d="M347.104 77.399L258.409 274.894H473.955L347.104 77.399Z" fill="#DDDDDD"/>
<path d="M333.299 129.17H590.31C592.34 129.176 594.348 129.583 596.22 130.368C598.093 131.152 599.792 132.298 601.22 133.74C602.648 135.182 603.778 136.892 604.544 138.772C605.311 140.652 605.698 142.664 605.685 144.694V335.494H317.875V144.694C317.858 142.659 318.245 140.641 319.014 138.757C319.782 136.872 320.916 135.159 322.35 133.716C323.784 132.272 325.49 131.127 327.369 130.347C329.249 129.567 331.264 129.167 333.299 129.17V129.17Z" fill="#444444"/>
<path d="M605.711 315.58H316.698C298.537 315.58 283.814 330.304 283.814 348.467V874.271C283.814 892.434 298.537 907.158 316.698 907.158H605.711C623.872 907.158 638.594 892.434 638.594 874.271V348.467C638.594 330.304 623.872 315.58 605.711 315.58Z" fill="#525753"/>
<path d="M604.925 351.778H310.567C306.721 351.778 303.603 354.896 303.603 358.743V531.763C303.603 535.609 306.721 538.728 310.567 538.728H604.925C608.771 538.728 611.889 535.609 611.889 531.763V358.743C611.889 354.896 608.771 351.778 604.925 351.778Z" fill="#444444"/>
<path d="M608.382 355.163H314.024C310.178 355.163 307.06 358.281 307.06 362.127V535.147C307.06 538.994 310.178 542.112 314.024 542.112H608.382C612.228 542.112 615.346 538.994 615.346 535.147V362.127C615.346 358.281 612.228 355.163 608.382 355.163Z" fill="#C3F291"/>
<path d="M648.892 890.236C646.44 890.223 644.092 889.242 642.361 887.505C640.629 885.769 639.654 883.418 639.647 880.966V339.957C639.66 337.509 640.638 335.165 642.369 333.434C644.1 331.703 646.444 330.725 648.892 330.712V330.712C651.342 330.718 653.69 331.694 655.422 333.427C657.154 335.159 658.13 337.507 658.137 339.957V880.966C658.137 883.42 657.164 885.774 655.431 887.512C653.698 889.25 651.346 890.23 648.892 890.236V890.236Z" fill="#525753"/>
<path d="M638.029 891.438C637.342 891.431 636.684 891.155 636.198 890.669C635.712 890.183 635.436 889.526 635.43 888.838V334.587C635.436 333.899 635.712 333.242 636.198 332.755C636.684 332.269 637.342 331.993 638.029 331.987V331.987C638.716 331.993 639.374 332.269 639.86 332.755C640.346 333.242 640.622 333.899 640.628 334.587V888.838C640.622 889.526 640.346 890.183 639.86 890.669C639.374 891.155 638.716 891.431 638.029 891.438Z" fill="#7F7F7F"/>
<path d="M376.358 592.608H310.395C304.558 592.608 299.826 597.34 299.826 603.178V628.61C299.826 634.447 304.558 639.18 310.395 639.18H376.358C382.195 639.18 386.927 634.447 386.927 628.61V603.178C386.927 597.34 382.195 592.608 376.358 592.608Z" fill="#444444"/>
<path d="M490.335 592.608H424.372C418.535 592.608 413.803 597.34 413.803 603.178V628.61C413.803 634.447 418.535 639.18 424.372 639.18H490.335C496.172 639.18 500.904 634.447 500.904 628.61V603.178C500.904 597.34 496.172 592.608 490.335 592.608Z" fill="#444444"/>
<path d="M601.909 592.608H535.946C530.109 592.608 525.377 597.34 525.377 603.178V628.61C525.377 634.447 530.109 639.18 535.946 639.18H601.909C607.746 639.18 612.478 634.447 612.478 628.61V603.178C612.478 597.34 607.746 592.608 601.909 592.608Z" fill="#444444"/>
<path d="M376.358 668.609H310.395C304.558 668.609 299.826 673.341 299.826 679.179V704.611C299.826 710.448 304.558 715.181 310.395 715.181H376.358C382.195 715.181 386.927 710.448 386.927 704.611V679.179C386.927 673.341 382.195 668.609 376.358 668.609Z" fill="#444444"/>
<path d="M490.335 668.609H424.372C418.535 668.609 413.803 673.341 413.803 679.179V704.611C413.803 710.448 418.535 715.181 424.372 715.181H490.335C496.172 715.181 500.904 710.448 500.904 704.611V679.179C500.904 673.341 496.172 668.609 490.335 668.609Z" fill="#444444"/>
<path d="M601.909 668.609H535.946C530.109 668.609 525.377 673.341 525.377 679.179V704.611C525.377 710.448 530.109 715.181 535.946 715.181H601.909C607.746 715.181 612.478 710.448 612.478 704.611V679.179C612.478 673.341 607.746 668.609 601.909 668.609Z" fill="#444444"/>
<path d="M376.358 741.299H310.395C304.558 741.299 299.826 746.032 299.826 751.869V777.301C299.826 783.139 304.558 787.871 310.395 787.871H376.358C382.195 787.871 386.927 783.139 386.927 777.301V751.869C386.927 746.032 382.195 741.299 376.358 741.299Z" fill="#444444"/>
<path d="M490.335 741.299H424.372C418.535 741.299 413.803 746.032 413.803 751.869V777.301C413.803 783.139 418.535 787.871 424.372 787.871H490.335C496.172 787.871 500.904 783.139 500.904 777.301V751.869C500.904 746.032 496.172 741.299 490.335 741.299Z" fill="#444444"/>
<path d="M601.909 741.299H535.946C530.109 741.299 525.377 746.032 525.377 751.869V777.301C525.377 783.139 530.109 787.871 535.946 787.871H601.909C607.746 787.871 612.478 783.139 612.478 777.301V751.869C612.478 746.032 607.746 741.299 601.909 741.299Z" fill="#444444"/>
<path d="M376.358 817.3H310.395C304.558 817.3 299.826 822.033 299.826 827.87V853.302C299.826 859.14 304.558 863.872 310.395 863.872H376.358C382.195 863.872 386.927 859.14 386.927 853.302V827.87C386.927 822.033 382.195 817.3 376.358 817.3Z" fill="#444444"/>
<path d="M490.335 817.3H424.372C418.535 817.3 413.803 822.033 413.803 827.87V853.302C413.803 859.14 418.535 863.872 424.372 863.872H490.335C496.172 863.872 500.904 859.14 500.904 853.302V827.87C500.904 822.033 496.172 817.3 490.335 817.3Z" fill="#444444"/>
<path d="M601.909 817.3H535.946C530.109 817.3 525.377 822.033 525.377 827.87V853.302C525.377 859.14 530.109 863.872 535.946 863.872H601.909C607.746 863.872 612.478 859.14 612.478 853.302V827.87C612.478 822.033 607.746 817.3 601.909 817.3Z" fill="#444444"/>
<path d="M574.419 387.976H339.796C338.922 387.97 338.086 387.618 337.471 386.998C336.855 386.378 336.51 385.539 336.51 384.665V384.665C336.51 384.234 336.595 383.806 336.76 383.408C336.925 383.009 337.167 382.647 337.472 382.342C337.777 382.036 338.14 381.794 338.538 381.629C338.937 381.464 339.364 381.379 339.796 381.379H574.419C575.289 381.386 576.121 381.734 576.735 382.349C577.35 382.964 577.699 383.796 577.705 384.665V384.665C577.699 385.537 577.351 386.372 576.737 386.991C576.123 387.61 575.291 387.963 574.419 387.976V387.976Z" fill="white"/>
<path d="M574.419 402.789H339.796C338.922 402.782 338.086 402.431 337.471 401.811C336.855 401.19 336.51 400.352 336.51 399.478V399.478C336.516 398.609 336.864 397.776 337.479 397.161C338.094 396.547 338.926 396.198 339.796 396.192H574.419C575.289 396.198 576.121 396.547 576.735 397.161C577.35 397.776 577.699 398.609 577.705 399.478V399.478C577.699 400.35 577.351 401.185 576.737 401.804C576.123 402.422 575.291 402.776 574.419 402.789V402.789Z" fill="white"/>
<path d="M574.419 450.538H339.796C338.926 450.532 338.094 450.183 337.479 449.568C336.864 448.953 336.516 448.121 336.51 447.252C336.51 446.378 336.855 445.539 337.471 444.919C338.086 444.299 338.922 443.947 339.796 443.941H574.419C575.291 443.954 576.123 444.307 576.737 444.926C577.351 445.545 577.699 446.38 577.705 447.252V447.252C577.699 448.121 577.35 448.953 576.735 449.568C576.121 450.183 575.289 450.532 574.419 450.538V450.538Z" fill="white"/>
<path d="M574.419 466.994H339.796C339.364 466.994 338.937 466.909 338.538 466.744C338.14 466.578 337.777 466.336 337.472 466.031C337.167 465.726 336.925 465.364 336.76 464.965C336.595 464.566 336.51 464.139 336.51 463.708V463.708C336.51 463.276 336.595 462.849 336.76 462.45C336.925 462.051 337.167 461.689 337.472 461.384C337.777 461.079 338.14 460.837 338.538 460.671C338.937 460.506 339.364 460.421 339.796 460.421H574.419C575.289 460.428 576.121 460.776 576.735 461.391C577.35 462.006 577.699 462.838 577.705 463.708V463.708C577.699 464.577 577.35 465.409 576.735 466.024C576.121 466.639 575.289 466.987 574.419 466.994Z" fill="white"/>
<path d="M575.842 505.105H500.879C499.85 505.105 499.016 505.939 499.016 506.969V509.666C499.016 510.696 499.85 511.53 500.879 511.53H575.842C576.871 511.53 577.706 510.696 577.706 509.666V506.969C577.706 505.939 576.871 505.105 575.842 505.105Z" fill="white"/>
<path d="M380.208 596.458H314.245C308.408 596.458 303.676 601.191 303.676 607.028V632.46C303.676 638.298 308.408 643.03 314.245 643.03H380.208C386.045 643.03 390.777 638.298 390.777 632.46V607.028C390.777 601.191 386.045 596.458 380.208 596.458Z" fill="#888888"/>
<path d="M494.185 596.458H428.222C422.385 596.458 417.653 601.191 417.653 607.028V632.46C417.653 638.298 422.385 643.03 428.222 643.03H494.185C500.022 643.03 504.754 638.298 504.754 632.46V607.028C504.754 601.191 500.022 596.458 494.185 596.458Z" fill="#888888"/>
<path d="M605.76 596.458H539.796C533.959 596.458 529.228 601.191 529.228 607.028V632.46C529.228 638.298 533.959 643.03 539.796 643.03H605.76C611.597 643.03 616.328 638.298 616.328 632.46V607.028C616.328 601.191 611.597 596.458 605.76 596.458Z" fill="#888888"/>
<path d="M380.208 672.459H314.245C308.408 672.459 303.676 677.192 303.676 683.029V708.461C303.676 714.299 308.408 719.031 314.245 719.031H380.208C386.045 719.031 390.777 714.299 390.777 708.461V683.029C390.777 677.192 386.045 672.459 380.208 672.459Z" fill="#888888"/>
<path d="M494.185 672.459H428.222C422.385 672.459 417.653 677.192 417.653 683.029V708.461C417.653 714.299 422.385 719.031 428.222 719.031H494.185C500.022 719.031 504.754 714.299 504.754 708.461V683.029C504.754 677.192 500.022 672.459 494.185 672.459Z" fill="#888888"/>
<path d="M605.76 672.459H539.796C533.959 672.459 529.228 677.192 529.228 683.029V708.461C529.228 714.299 533.959 719.031 539.796 719.031H605.76C611.597 719.031 616.328 714.299 616.328 708.461V683.029C616.328 677.192 611.597 672.459 605.76 672.459Z" fill="#888888"/>
<path d="M380.208 745.15H314.245C308.408 745.15 303.676 749.882 303.676 755.72V781.152C303.676 786.989 308.408 791.722 314.245 791.722H380.208C386.045 791.722 390.777 786.989 390.777 781.152V755.72C390.777 749.882 386.045 745.15 380.208 745.15Z" fill="#888888"/>
<path d="M494.185 745.15H428.222C422.385 745.15 417.653 749.882 417.653 755.72V781.152C417.653 786.989 422.385 791.722 428.222 791.722H494.185C500.022 791.722 504.754 786.989 504.754 781.152V755.72C504.754 749.882 500.022 745.15 494.185 745.15Z" fill="#888888"/>
<path d="M605.76 745.15H539.796C533.959 745.15 529.228 749.882 529.228 755.72V781.152C529.228 786.989 533.959 791.722 539.796 791.722H605.76C611.597 791.722 616.328 786.989 616.328 781.152V755.72C616.328 749.882 611.597 745.15 605.76 745.15Z" fill="#888888"/>
<path d="M380.208 821.175H314.245C308.408 821.175 303.676 825.908 303.676 831.745V857.177C303.676 863.015 308.408 867.747 314.245 867.747H380.208C386.045 867.747 390.777 863.015 390.777 857.177V831.745C390.777 825.908 386.045 821.175 380.208 821.175Z" fill="#F4554F"/>
<path d="M494.185 821.175H428.222C422.385 821.175 417.653 825.908 417.653 831.745V857.177C417.653 863.015 422.385 867.747 428.222 867.747H494.185C500.022 867.747 504.754 863.015 504.754 857.177V831.745C504.754 825.908 500.022 821.175 494.185 821.175Z" fill="#FDD901"/>
<path d="M605.76 821.175H539.796C533.959 821.175 529.228 825.908 529.228 831.745V857.177C529.228 863.015 533.959 867.747 539.796 867.747H605.76C611.597 867.747 616.328 863.015 616.328 857.177V831.745C616.328 825.908 611.597 821.175 605.76 821.175Z" fill="#5BD37A"/>
<path d="M572.974 77.399H347.104V315.629H572.974V77.399Z" fill="white"/>
<path d="M475.329 133.879H366.722C366.037 133.879 365.38 133.608 364.893 133.126C364.406 132.644 364.13 131.989 364.123 131.304V131.304C364.161 130.64 364.451 130.016 364.934 129.56C365.418 129.104 366.058 128.85 366.722 128.851H475.329C475.979 128.851 476.603 129.11 477.063 129.57C477.523 130.029 477.781 130.653 477.781 131.304C477.798 131.636 477.747 131.968 477.631 132.28C477.515 132.592 477.337 132.877 477.108 133.118C476.878 133.359 476.602 133.55 476.296 133.681C475.991 133.812 475.661 133.879 475.329 133.879Z" fill="#7F7F7F"/>
<path d="M475.328 184.301H366.721C366.036 184.301 365.379 184.03 364.892 183.548C364.405 183.066 364.129 182.411 364.122 181.726V181.726C364.112 181.377 364.172 181.03 364.298 180.705C364.424 180.379 364.614 180.083 364.856 179.831C365.098 179.58 365.387 179.38 365.708 179.242C366.028 179.104 366.373 179.031 366.721 179.028H475.328C475.992 179.066 476.615 179.356 477.072 179.84C477.528 180.323 477.781 180.963 477.78 181.628V181.628C477.811 181.968 477.77 182.311 477.661 182.634C477.551 182.958 477.376 183.255 477.145 183.506C476.914 183.758 476.633 183.959 476.32 184.096C476.007 184.232 475.669 184.302 475.328 184.301V184.301Z" fill="#7F7F7F"/>
<path d="M475.329 200.021H366.722C366.035 200.015 365.377 199.739 364.891 199.253C364.405 198.766 364.129 198.109 364.123 197.421V197.421C364.161 196.758 364.451 196.134 364.934 195.678C365.418 195.222 366.058 194.968 366.722 194.969H475.329C475.979 194.969 476.603 195.227 477.063 195.687C477.523 196.147 477.781 196.771 477.781 197.421C477.782 198.086 477.529 198.726 477.072 199.21C476.616 199.693 475.992 199.983 475.329 200.021V200.021Z" fill="#7F7F7F"/>
<path d="M463.411 247.231H366.575C365.221 247.231 364.123 248.329 364.123 249.683V249.953C364.123 251.307 365.221 252.405 366.575 252.405H463.411C464.766 252.405 465.863 251.307 465.863 249.953V249.683C465.863 248.329 464.766 247.231 463.411 247.231Z" fill="#7F7F7F"/>
<path d="M513.19 272.025H366.722C366.058 272.026 365.418 271.772 364.934 271.316C364.451 270.86 364.161 270.236 364.123 269.572V269.572C364.13 268.887 364.406 268.232 364.893 267.75C365.38 267.268 366.037 266.997 366.722 266.997H513.19C513.533 266.98 513.876 267.034 514.196 267.157C514.516 267.281 514.807 267.47 515.05 267.712C515.293 267.955 515.482 268.246 515.605 268.566C515.728 268.887 515.783 269.23 515.765 269.572V269.572C515.765 269.905 515.698 270.234 515.567 270.54C515.437 270.846 515.245 271.122 515.004 271.351C514.763 271.581 514.478 271.759 514.166 271.874C513.855 271.99 513.522 272.041 513.19 272.025Z" fill="#7F7F7F"/>
<path d="M501.69 152.223H366.82C366.47 152.233 366.121 152.172 365.794 152.045C365.467 151.917 365.169 151.726 364.917 151.481C364.666 151.236 364.466 150.944 364.33 150.62C364.193 150.297 364.123 149.95 364.123 149.599V149.599C364.161 148.935 364.451 148.311 364.934 147.855C365.418 147.399 366.058 147.145 366.722 147.146H501.592C502.242 147.146 502.866 147.405 503.325 147.865C503.785 148.325 504.044 148.948 504.044 149.599C504.053 150.252 503.816 150.885 503.379 151.371C502.943 151.857 502.34 152.161 501.69 152.223V152.223Z" fill="#7F7F7F"/>
<path d="M258.902 387.09C268.473 345.958 242.89 304.854 201.762 295.282C160.634 285.71 119.535 311.295 109.964 352.427C100.393 393.56 125.976 434.664 167.104 444.236C208.232 453.808 249.331 428.223 258.902 387.09Z" fill="#FDD901"/>
<path d="M184.427 439.061C222.686 439.061 253.701 408.042 253.701 369.779C253.701 331.516 222.686 300.498 184.427 300.498C146.168 300.498 115.153 331.516 115.153 369.779C115.153 408.042 146.168 439.061 184.427 439.061Z" fill="#FCBB03"/>
<path d="M141.568 283.679C172.618 277.979 193.169 248.185 187.47 217.132C181.772 186.078 151.981 165.525 120.931 171.224C89.881 176.923 69.3297 206.717 75.0284 237.771C80.7272 268.824 110.518 289.378 141.568 283.679Z" fill="#FDD901"/>
<path d="M150.942 275.355C177.394 264.473 190.017 234.205 179.135 207.75C168.254 181.295 137.99 168.67 111.537 179.553C85.0853 190.435 72.4625 220.703 83.3437 247.158C94.2249 273.613 124.49 286.238 150.942 275.355Z" fill="#FCBB03"/>
<path d="M636.24 92.2608C636.002 92.0321 635.814 91.7578 635.685 91.4544C635.556 91.151 635.489 90.8247 635.489 90.4951C635.489 90.1654 635.556 89.8391 635.685 89.5358C635.814 89.2324 636.002 88.9581 636.24 88.7293L667.186 57.7795C667.415 57.5421 667.689 57.3534 667.992 57.2244C668.296 57.0954 668.622 57.029 668.952 57.029C669.281 57.029 669.607 57.0954 669.911 57.2244C670.214 57.3534 670.488 57.5421 670.717 57.7795V57.7795C670.954 58.0083 671.143 58.2826 671.272 58.5859C671.401 58.8893 671.468 59.2156 671.468 59.5453C671.468 59.8749 671.401 60.2012 671.272 60.5046C671.143 60.808 670.954 61.0822 670.717 61.311L639.771 92.2608C639.542 92.4982 639.268 92.687 638.964 92.8159C638.661 92.9449 638.335 93.0113 638.005 93.0113C637.676 93.0113 637.349 92.9449 637.046 92.8159C636.743 92.687 636.468 92.4982 636.24 92.2608V92.2608Z" fill="white"/>
<path d="M670.717 92.2608C670.488 92.4982 670.214 92.687 669.911 92.8159C669.607 92.9449 669.281 93.0113 668.952 93.0113C668.622 93.0113 668.296 92.9449 667.992 92.8159C667.689 92.687 667.415 92.4982 667.186 92.2608L636.24 61.311C636.002 61.0822 635.814 60.808 635.685 60.5046C635.556 60.2012 635.489 59.8749 635.489 59.5453C635.489 59.2156 635.556 58.8893 635.685 58.5859C635.814 58.2826 636.002 58.0083 636.24 57.7795V57.7795C636.468 57.5421 636.743 57.3534 637.046 57.2244C637.349 57.0954 637.676 57.029 638.005 57.029C638.335 57.029 638.661 57.0954 638.964 57.2244C639.268 57.3534 639.542 57.5421 639.771 57.7795L670.717 88.7293C670.954 88.9581 671.143 89.2324 671.272 89.5358C671.401 89.8391 671.468 90.1654 671.468 90.4951C671.468 90.8247 671.401 91.151 671.272 91.4544C671.143 91.7578 670.954 92.0321 670.717 92.2608V92.2608Z" fill="white"/>
<path d="M196.639 152.051C196.398 151.822 196.206 151.546 196.075 151.241C195.944 150.935 195.876 150.606 195.876 150.273C195.876 149.941 195.944 149.612 196.075 149.306C196.206 149 196.398 148.724 196.639 148.495L227.586 117.717C227.814 117.48 228.089 117.291 228.392 117.162C228.695 117.033 229.022 116.967 229.351 116.967C229.681 116.967 230.007 117.033 230.31 117.162C230.614 117.291 230.888 117.48 231.117 117.717C231.358 117.946 231.55 118.222 231.681 118.528C231.812 118.833 231.88 119.163 231.88 119.495C231.88 119.828 231.812 120.157 231.681 120.463C231.55 120.768 231.358 121.044 231.117 121.273L200.17 152.051C199.942 152.289 199.667 152.477 199.364 152.606C199.061 152.735 198.734 152.802 198.405 152.802C198.075 152.802 197.749 152.735 197.446 152.606C197.142 152.477 196.868 152.289 196.639 152.051Z" fill="white"/>
<path d="M231.117 152.051C230.888 152.289 230.614 152.477 230.31 152.606C230.007 152.735 229.681 152.802 229.351 152.802C229.022 152.802 228.695 152.735 228.392 152.606C228.089 152.477 227.814 152.289 227.586 152.051L196.639 121.175C196.398 120.946 196.206 120.67 196.075 120.365C195.944 120.059 195.876 119.73 195.876 119.397C195.876 119.064 195.944 118.735 196.075 118.43C196.206 118.124 196.398 117.848 196.639 117.619C196.868 117.382 197.142 117.193 197.446 117.064C197.749 116.935 198.075 116.869 198.405 116.869C198.734 116.869 199.061 116.935 199.364 117.064C199.667 117.193 199.942 117.382 200.17 117.619L231.117 148.569C231.347 148.797 231.529 149.068 231.654 149.367C231.778 149.666 231.842 149.986 231.842 150.31C231.842 150.634 231.778 150.954 231.654 151.253C231.529 151.552 231.347 151.823 231.117 152.051Z" fill="white"/>
<path d="M79.0092 742.428C78.7719 742.199 78.5831 741.924 78.4542 741.621C78.3252 741.318 78.2588 740.991 78.2588 740.662C78.2588 740.332 78.3252 740.006 78.4542 739.702C78.5831 739.399 78.7719 739.125 79.0092 738.896L109.956 707.946C110.184 707.709 110.459 707.52 110.762 707.391C111.065 707.262 111.392 707.196 111.721 707.196C112.051 707.196 112.377 707.262 112.68 707.391C112.984 707.52 113.258 707.709 113.487 707.946V707.946C113.724 708.175 113.913 708.449 114.042 708.753C114.171 709.056 114.237 709.382 114.237 709.712C114.237 710.042 114.171 710.368 114.042 710.671C113.913 710.975 113.724 711.249 113.487 711.478L82.5403 742.428C82.3116 742.665 82.0373 742.854 81.734 742.983C81.4306 743.112 81.1044 743.178 80.7748 743.178C80.4452 743.178 80.1189 743.112 79.8156 742.983C79.5122 742.854 79.238 742.665 79.0092 742.428V742.428Z" fill="white"/>
<path d="M113.487 742.428C113.258 742.665 112.984 742.854 112.68 742.983C112.377 743.112 112.051 743.178 111.721 743.178C111.392 743.178 111.065 743.112 110.762 742.983C110.459 742.854 110.184 742.665 109.956 742.428L79.0092 711.478C78.7719 711.249 78.5831 710.975 78.4542 710.671C78.3252 710.368 78.2588 710.042 78.2588 709.712C78.2588 709.382 78.3252 709.056 78.4542 708.753C78.5831 708.449 78.7719 708.175 79.0092 707.946V707.946C79.238 707.709 79.5122 707.52 79.8156 707.391C80.1189 707.262 80.4452 707.196 80.7748 707.196C81.1044 707.196 81.4306 707.262 81.734 707.391C82.0373 707.52 82.3116 707.709 82.5403 707.946L113.487 738.896C113.724 739.125 113.913 739.399 114.042 739.702C114.171 740.006 114.237 740.332 114.237 740.662C114.237 740.991 114.171 741.318 114.042 741.621C113.913 741.924 113.724 742.199 113.487 742.428V742.428Z" fill="white"/>
<path d="M1014.73 548.488C1014.49 548.26 1014.3 547.985 1014.18 547.682C1014.05 547.379 1013.98 547.052 1013.98 546.723C1013.98 546.393 1014.05 546.067 1014.18 545.763C1014.3 545.46 1014.49 545.186 1014.73 544.957L1045.68 514.007C1045.91 513.77 1046.18 513.581 1046.48 513.452C1046.79 513.323 1047.11 513.257 1047.44 513.257C1047.77 513.257 1048.1 513.323 1048.4 513.452C1048.71 513.581 1048.98 513.77 1049.21 514.007V514.007C1049.45 514.236 1049.63 514.51 1049.76 514.814C1049.89 515.117 1049.96 515.443 1049.96 515.773C1049.96 516.102 1049.89 516.429 1049.76 516.732C1049.63 517.036 1049.45 517.31 1049.21 517.539L1018.29 548.488C1018.06 548.73 1017.78 548.922 1017.48 549.053C1017.17 549.184 1016.84 549.252 1016.51 549.252C1016.18 549.252 1015.85 549.184 1015.54 549.053C1015.24 548.922 1014.96 548.73 1014.73 548.488V548.488Z" fill="white"/>
<path d="M1049.21 548.488C1048.98 548.726 1048.71 548.915 1048.4 549.043C1048.1 549.172 1047.77 549.239 1047.44 549.239C1047.11 549.239 1046.79 549.172 1046.48 549.043C1046.18 548.915 1045.91 548.726 1045.68 548.488L1014.73 517.465C1014.49 517.236 1014.3 516.962 1014.18 516.659C1014.05 516.355 1013.98 516.029 1013.98 515.699C1013.98 515.37 1014.05 515.043 1014.18 514.74C1014.3 514.437 1014.49 514.162 1014.73 513.933C1014.96 513.692 1015.24 513.5 1015.54 513.369C1015.85 513.238 1016.18 513.17 1016.51 513.17C1016.84 513.17 1017.17 513.238 1017.48 513.369C1017.78 513.5 1018.06 513.692 1018.29 513.933L1049.21 544.883C1049.46 545.113 1049.66 545.392 1049.79 545.702C1049.93 546.012 1050 546.347 1050 546.686C1050 547.025 1049.93 547.36 1049.79 547.67C1049.66 547.98 1049.46 548.259 1049.21 548.488Z" fill="white"/>
<path d="M822.677 312.809C832.076 312.809 839.695 305.189 839.695 295.789C839.695 286.389 832.076 278.769 822.677 278.769C813.278 278.769 805.659 286.389 805.659 295.789C805.659 305.189 813.278 312.809 822.677 312.809Z" fill="white"/>
<path d="M71.8735 333.017C81.2723 333.017 88.8916 325.397 88.8916 315.997C88.8916 306.597 81.2723 298.977 71.8735 298.977C62.4747 298.977 54.8555 306.597 54.8555 315.997C54.8555 325.397 62.4747 333.017 71.8735 333.017Z" stroke="white" stroke-width="2.04" stroke-miterlimit="10"/>
<path d="M1064.17 710.742C1075.92 710.742 1085.45 701.211 1085.45 689.455C1085.45 677.698 1075.92 668.168 1064.17 668.168C1052.41 668.168 1042.88 677.698 1042.88 689.455C1042.88 701.211 1052.41 710.742 1064.17 710.742Z" stroke="white" stroke-width="2.04" stroke-miterlimit="10"/>
<path d="M717.823 908.286C727.222 908.286 734.841 900.666 734.841 891.266C734.841 881.866 727.222 874.246 717.823 874.246C708.424 874.246 700.805 881.866 700.805 891.266C700.805 900.666 708.424 908.286 717.823 908.286Z" stroke="white" stroke-width="2.04" stroke-miterlimit="10"/>
<path d="M226.703 541.254C235.37 541.254 242.397 534.227 242.397 525.558C242.397 516.89 235.37 509.862 226.703 509.862C218.035 509.862 211.009 516.89 211.009 525.558C211.009 534.227 218.035 541.254 226.703 541.254Z" stroke="white" stroke-width="2.04" stroke-miterlimit="10" stroke-linecap="round"/>
<path d="M673.855 275.483C688.82 275.483 700.952 263.35 700.952 248.383C700.952 233.417 688.82 221.284 673.855 221.284C658.89 221.284 646.759 233.417 646.759 248.383C646.759 263.35 658.89 275.483 673.855 275.483Z" stroke="white" stroke-width="2.04" stroke-miterlimit="10" stroke-linecap="round"/>
<path d="M991.117 350.356C991.117 353.46 990.197 356.495 988.472 359.076C986.748 361.657 984.297 363.669 981.429 364.857C978.562 366.045 975.406 366.355 972.362 365.75C969.317 365.144 966.521 363.649 964.326 361.454C962.131 359.259 960.637 356.462 960.031 353.418C959.426 350.373 959.736 347.217 960.924 344.349C962.112 341.481 964.124 339.03 966.704 337.305C969.285 335.581 972.319 334.66 975.423 334.66C979.586 334.66 983.578 336.314 986.521 339.257C989.464 342.201 991.117 346.193 991.117 350.356Z" stroke="white" stroke-width="2.04" stroke-miterlimit="10" stroke-linecap="round"/>
<path d="M213.656 641.313C221.768 641.313 228.345 634.736 228.345 626.623C228.345 618.51 221.768 611.933 213.656 611.933C205.544 611.933 198.968 618.51 198.968 626.623C198.968 634.736 205.544 641.313 213.656 641.313Z" fill="white"/>
<path d="M874.124 896.514C874.124 899.337 873.287 902.097 871.719 904.444C870.151 906.791 867.922 908.621 865.314 909.701C862.706 910.781 859.837 911.064 857.068 910.513C854.3 909.962 851.757 908.603 849.761 906.607C847.765 904.611 846.406 902.068 845.855 899.299C845.305 896.53 845.587 893.66 846.667 891.052C847.748 888.444 849.577 886.215 851.924 884.647C854.271 883.078 857.03 882.241 859.853 882.241C863.638 882.241 867.268 883.745 869.944 886.422C872.621 889.098 874.124 892.729 874.124 896.514V896.514Z" fill="white"/>
<path d="M236.389 865.54C236.394 868.365 235.56 871.128 233.994 873.479C232.428 875.83 230.199 877.663 227.59 878.747C224.981 879.83 222.11 880.115 219.339 879.565C216.568 879.015 214.023 877.655 212.026 875.657C210.028 873.66 208.669 871.114 208.119 868.343C207.569 865.572 207.854 862.7 208.937 860.091C210.02 857.482 211.853 855.253 214.204 853.687C216.554 852.12 219.317 851.286 222.142 851.291C225.918 851.298 229.538 852.801 232.209 855.472C234.879 858.143 236.382 861.763 236.389 865.54Z" fill="white"/>
<path d="M782.732 195.484C794.541 195.484 804.115 185.91 804.115 174.099C804.115 162.288 794.541 152.714 782.732 152.714C770.922 152.714 761.349 162.288 761.349 174.099C761.349 185.91 770.922 195.484 782.732 195.484Z" stroke="white" stroke-width="2.04" stroke-miterlimit="10" stroke-linecap="round"/>
<path d="M125.428 541.254C125.428 544.078 124.59 546.838 123.021 549.186C121.452 551.534 119.221 553.363 116.612 554.443C114.003 555.522 111.132 555.804 108.363 555.251C105.594 554.698 103.051 553.336 101.056 551.338C99.0612 549.339 97.7039 546.794 97.156 544.023C96.6081 541.253 96.8942 538.382 97.9782 535.775C99.0621 533.167 100.895 530.939 103.245 529.374C105.596 527.809 108.357 526.976 111.181 526.98C113.054 526.98 114.909 527.35 116.639 528.067C118.369 528.785 119.941 529.837 121.264 531.163C122.587 532.488 123.636 534.062 124.351 535.793C125.065 537.525 125.431 539.38 125.428 541.254V541.254Z" stroke="white" stroke-width="2.04" stroke-miterlimit="10" stroke-linecap="round"/>
<g clip-path="url(#clip1)">
<path d="M205.611 399.556C204.404 399.556 203.308 399.38 202.355 399.036C201.408 398.698 200.501 398.144 199.664 397.395C198.822 396.644 198.019 395.745 197.287 394.721C196.541 393.677 195.795 392.614 195.074 391.561L185.189 376.407H168.451V391.946C168.451 394.466 167.867 396.384 166.717 397.655C165.555 398.933 164.106 399.554 162.289 399.554C160.408 399.554 158.947 398.926 157.82 397.635C156.695 396.352 156.125 394.437 156.125 391.946V376.407H146.545C144.039 376.407 142 374.368 142 371.862C142 369.356 144.039 367.317 146.545 367.317H156.125V359.56H146.545C144.039 359.561 142 357.522 142 355.017C142 352.512 144.039 350.472 146.545 350.472H156.125V339.146C156.125 336.957 156.363 335.237 156.832 334.036C157.418 332.646 158.34 331.572 159.666 330.714C160.992 329.854 162.385 329.436 163.924 329.436C165.113 329.436 166.145 329.63 166.985 330.015C167.848 330.409 168.579 330.921 169.221 331.58C169.875 332.249 170.551 333.127 171.233 334.186C171.934 335.276 172.657 336.411 173.424 337.623L181.916 350.472H200.662V337.046C200.662 334.492 201.209 332.562 202.287 331.307C203.369 330.048 204.793 329.436 206.639 329.436C208.547 329.436 210.01 330.049 211.108 331.31C212.201 332.564 212.754 334.495 212.754 337.046V350.472H222.447C224.953 350.472 226.992 352.511 226.992 355.017C226.992 357.523 224.953 359.561 222.447 359.561H212.754V367.319H222.447C224.953 367.319 226.992 369.357 226.992 371.864C226.992 374.37 224.953 376.407 222.447 376.407H212.754V390.874C212.754 396.716 210.418 399.556 205.611 399.556ZM166.951 373.407H186.002C186.508 373.407 186.981 373.663 187.258 374.087L197.57 389.896C198.258 390.906 198.996 391.951 199.727 392.977C200.331 393.818 200.983 394.552 201.665 395.16C202.214 395.652 202.786 396.006 203.372 396.215C204.001 396.444 204.753 396.558 205.612 396.558C207.359 396.558 209.755 396.558 209.755 390.875V374.907C209.755 374.079 210.428 373.407 211.255 373.407H222.448C223.301 373.407 223.993 372.714 223.993 371.862C223.993 371.01 223.301 370.317 222.448 370.317H211.254C210.426 370.317 209.754 369.645 209.754 368.817V358.061C209.754 357.233 210.426 356.561 211.254 356.561H222.447C223.299 356.561 223.992 355.869 223.992 355.017C223.992 354.165 223.299 353.472 222.447 353.472H211.254C210.426 353.472 209.754 352.8 209.754 351.972V337.046C209.754 334.796 209.26 333.756 208.844 333.279C208.481 332.861 207.936 332.435 206.639 332.435C205.668 332.435 205.067 332.674 204.563 333.261C204.154 333.74 203.664 334.784 203.664 337.045V351.971C203.664 352.799 202.992 353.471 202.164 353.471H181.109C180.605 353.471 180.134 353.218 179.857 352.798L170.906 339.253C170.125 338.023 169.406 336.894 168.709 335.81C168.137 334.919 167.586 334.201 167.072 333.675C166.693 333.284 166.258 332.981 165.738 332.743C165.299 332.542 164.67 332.435 163.924 332.435C162.969 332.435 162.135 332.688 161.297 333.231C160.481 333.76 159.945 334.375 159.611 335.165C159.439 335.605 159.125 336.767 159.125 339.146V351.971C159.125 352.799 158.453 353.471 157.625 353.471H146.545C145.693 353.472 145 354.165 145 355.017C145 355.869 145.693 356.561 146.545 356.561H157.625C158.453 356.561 159.125 357.233 159.125 358.061V368.818C159.125 369.646 158.453 370.318 157.625 370.318H146.545C145.693 370.317 145 371.011 145 371.862C145 372.713 145.693 373.407 146.545 373.407H157.625C158.453 373.407 159.125 374.079 159.125 374.907V391.946C159.125 393.665 159.455 394.95 160.078 395.661C160.625 396.288 161.285 396.556 162.289 396.556C163.252 396.556 163.91 396.283 164.494 395.639C165.119 394.951 165.451 393.673 165.451 391.949V374.907C165.451 374.079 166.123 373.407 166.951 373.407ZM202.162 385.331C201.668 385.331 201.193 385.085 200.91 384.657L195.014 375.733C194.711 375.272 194.684 374.681 194.947 374.196C195.209 373.71 195.718 373.407 196.266 373.407H202.162C202.99 373.407 203.662 374.079 203.662 374.907V383.831C203.662 384.493 203.226 385.077 202.594 385.268C202.451 385.31 202.305 385.331 202.162 385.331ZM199.055 376.407L200.662 378.839V376.407H199.055ZM202.162 370.317H192.242C191.738 370.317 191.267 370.064 190.99 369.644L183.883 358.887C183.578 358.426 183.551 357.835 183.813 357.349C184.075 356.864 184.583 356.56 185.133 356.56H202.162C202.99 356.56 203.662 357.232 203.662 358.06V368.817C203.662 369.646 202.99 370.317 202.162 370.317ZM193.049 367.317H200.662V359.56H187.922L193.049 367.317ZM182.029 370.317H166.951C166.123 370.317 165.451 369.645 165.451 368.817V358.061C165.451 357.233 166.123 356.561 166.951 356.561H175.014C175.52 356.561 175.993 356.817 176.27 357.242L183.286 367.999C183.587 368.46 183.61 369.048 183.349 369.532C183.086 370.017 182.58 370.317 182.029 370.317ZM168.451 367.317H179.26L174.201 359.56H168.451V367.317ZM171.041 353.473H166.951C166.123 353.473 165.451 352.801 165.451 351.973V345.702C165.451 345.038 165.887 344.453 166.523 344.264C167.158 344.076 167.845 344.326 168.207 344.882L172.297 351.153C172.598 351.614 172.623 352.203 172.361 352.687C172.098 353.17 171.592 353.473 171.041 353.473Z" fill="black"/>
</g>
<path d="M148.409 252.926C147.586 252.926 146.838 252.805 146.187 252.571C145.541 252.34 144.922 251.962 144.351 251.451C143.776 250.938 143.228 250.325 142.729 249.626C142.22 248.914 141.711 248.188 141.219 247.47L134.473 237.128H123.051V247.732C123.051 249.452 122.652 250.761 121.867 251.628C121.074 252.5 120.086 252.924 118.846 252.924C117.562 252.924 116.565 252.496 115.796 251.615C115.028 250.739 114.639 249.432 114.639 247.732V237.128H108.102C106.391 237.128 105 235.737 105 234.027C105 232.317 106.391 230.925 108.102 230.925H114.639V225.632H108.102C106.391 225.632 105 224.241 105 222.531C105 220.822 106.391 219.43 108.102 219.43H114.639V211.701C114.639 210.207 114.802 209.033 115.122 208.214C115.522 207.265 116.151 206.532 117.056 205.947C117.96 205.36 118.911 205.074 119.961 205.074C120.773 205.074 121.477 205.207 122.05 205.47C122.639 205.738 123.138 206.088 123.576 206.538C124.022 206.994 124.484 207.593 124.949 208.316C125.427 209.06 125.921 209.834 126.444 210.661L132.239 219.43H145.032V210.268C145.032 208.525 145.405 207.208 146.141 206.351C146.879 205.492 147.851 205.074 149.111 205.074C150.413 205.074 151.411 205.493 152.16 206.353C152.906 207.209 153.284 208.527 153.284 210.268V219.43H159.898C161.609 219.43 163 220.821 163 222.531C163 224.242 161.609 225.632 159.898 225.632H153.284V230.926H159.898C161.609 230.926 163 232.317 163 234.028C163 235.738 161.609 237.128 159.898 237.128H153.284V247.001C153.284 250.988 151.69 252.926 148.409 252.926ZM122.027 235.081H135.028C135.373 235.081 135.696 235.256 135.885 235.545L142.922 246.333C143.391 247.023 143.895 247.736 144.394 248.436C144.806 249.01 145.251 249.511 145.716 249.926C146.091 250.261 146.481 250.503 146.881 250.646C147.311 250.802 147.824 250.88 148.41 250.88C149.602 250.88 151.237 250.88 151.237 247.002V236.105C151.237 235.54 151.696 235.081 152.261 235.081H159.899C160.481 235.081 160.953 234.608 160.953 234.027C160.953 233.445 160.481 232.972 159.899 232.972H152.26C151.695 232.972 151.236 232.514 151.236 231.949V224.609C151.236 224.044 151.695 223.585 152.26 223.585H159.898C160.48 223.585 160.953 223.113 160.953 222.531C160.953 221.95 160.48 221.477 159.898 221.477H152.26C151.695 221.477 151.236 221.018 151.236 220.453V210.268C151.236 208.732 150.899 208.023 150.615 207.697C150.368 207.412 149.996 207.121 149.111 207.121C148.448 207.121 148.038 207.284 147.694 207.685C147.415 208.012 147.081 208.724 147.081 210.267V220.453C147.081 221.018 146.622 221.476 146.057 221.476H131.689C131.345 221.476 131.023 221.304 130.834 221.017L124.726 211.774C124.193 210.934 123.702 210.164 123.227 209.424C122.836 208.816 122.46 208.326 122.11 207.967C121.851 207.7 121.554 207.494 121.199 207.331C120.9 207.194 120.47 207.121 119.961 207.121C119.31 207.121 118.74 207.294 118.169 207.664C117.612 208.025 117.246 208.445 117.018 208.984C116.901 209.284 116.686 210.077 116.686 211.701V220.453C116.686 221.018 116.228 221.476 115.663 221.476H108.102C107.52 221.477 107.047 221.95 107.047 222.531C107.047 223.113 107.52 223.585 108.102 223.585H115.663C116.228 223.585 116.686 224.044 116.686 224.609V231.949C116.686 232.514 116.228 232.973 115.663 232.973H108.102C107.52 232.972 107.047 233.446 107.047 234.027C107.047 234.607 107.52 235.081 108.102 235.081H115.663C116.228 235.081 116.686 235.54 116.686 236.105V247.732C116.686 248.905 116.912 249.782 117.337 250.268C117.71 250.695 118.16 250.878 118.846 250.878C119.503 250.878 119.952 250.692 120.35 250.253C120.777 249.783 121.003 248.911 121.003 247.734V236.105C121.003 235.54 121.462 235.081 122.027 235.081ZM146.056 243.218C145.718 243.218 145.394 243.05 145.201 242.758L141.178 236.668C140.971 236.354 140.952 235.95 141.132 235.619C141.311 235.288 141.658 235.081 142.032 235.081H146.056C146.621 235.081 147.079 235.54 147.079 236.105V242.195C147.079 242.646 146.782 243.045 146.35 243.175C146.253 243.204 146.153 243.218 146.056 243.218ZM143.935 237.128L145.032 238.788V237.128H143.935ZM146.056 232.972H139.286C138.942 232.972 138.621 232.8 138.432 232.513L133.582 225.172C133.374 224.858 133.355 224.454 133.534 224.123C133.713 223.792 134.059 223.584 134.435 223.584H146.056C146.621 223.584 147.079 224.043 147.079 224.608V231.949C147.079 232.514 146.621 232.972 146.056 232.972ZM139.837 230.925H145.032V225.632H136.338L139.837 230.925ZM132.316 232.972H122.027C121.462 232.972 121.003 232.514 121.003 231.949V224.609C121.003 224.044 121.462 223.585 122.027 223.585H127.529C127.875 223.585 128.197 223.76 128.386 224.05L133.174 231.391C133.38 231.705 133.395 232.106 133.217 232.437C133.038 232.768 132.692 232.972 132.316 232.972ZM123.051 230.925H130.427L126.975 225.632H123.051V230.925ZM124.818 221.478H122.027C121.462 221.478 121.003 221.019 121.003 220.454V216.175C121.003 215.722 121.301 215.322 121.735 215.193C122.168 215.065 122.637 215.236 122.884 215.615L125.675 219.895C125.881 220.209 125.898 220.611 125.719 220.941C125.539 221.271 125.194 221.478 124.818 221.478Z" fill="#AD8C30"/>
</g>
<defs>
<clipPath id="clip0">
<rect width="1174" height="963" fill="white"/>
</clipPath>
<clipPath id="clip1">
<rect width="84.992" height="84.992" fill="white" transform="translate(142 322)"/>
</clipPath>
</defs>
</svg>
