<svg width="20" height="20" viewBox="0 0 20 20" fill="none" xmlns="http://www.w3.org/2000/svg">
<path fill-rule="evenodd" clip-rule="evenodd" d="M10 0.437134C4.48 0.437134 0 4.802 0 10.1801C0 15.5583 4.48 19.9231 10 19.9231C15.52 19.9231 20 15.5583 20 10.1801C20 4.802 15.52 0.437134 10 0.437134ZM2 10.1801C2 9.58581 2.08 9.00123 2.21 8.44588L6.99 13.103V14.0773C6.99 15.1491 7.89 16.0259 8.99 16.0259V17.9063C5.06 17.4192 2 14.1455 2 10.1801ZM13.99 14.0773C14.89 14.0773 15.63 14.6522 15.89 15.4413C17.19 14.0578 18 12.2067 18 10.1801C18 6.91623 15.92 4.11024 12.99 2.96057V3.36003C12.99 4.43176 12.09 5.30863 10.99 5.30863H8.99V7.25723C8.99 7.7931 8.54 8.23153 7.99 8.23153H5.99V10.1801H11.99C12.54 10.1801 12.99 10.6186 12.99 11.1544V14.0773H13.99Z" fill="black" fill-opacity="0.54"/>
</svg>
