<svg width="308" height="186" viewBox="0 0 308 186" fill="none" xmlns="http://www.w3.org/2000/svg">
<path d="M20.1966 136.188L18.3471 128.874C15.0675 127.481 11.7122 126.274 8.29709 125.26L8.06356 128.658L7.1166 124.914C2.88128 123.702 0 123.168 0 123.168C0 123.168 3.89195 138.005 12.055 149.348L21.5668 151.022L14.1774 152.091C15.2046 153.329 16.3086 154.502 17.4828 155.602C29.3577 166.652 42.5842 171.722 47.025 166.926C51.4657 162.13 45.4391 149.284 33.5641 138.234C29.8827 134.808 25.2581 132.059 20.629 129.896L20.1966 136.188Z" fill="#E6E6E6"/>
<path d="M37.7873 128.246L39.9748 121.027C37.8857 118.134 35.6357 115.363 33.2353 112.725L31.2829 115.513L32.4029 111.817C29.4024 108.584 27.2113 106.634 27.2113 106.634C27.2113 106.634 22.8929 121.352 24.0323 135.292L31.3111 141.655L24.4347 138.74C24.6754 140.333 25.0157 141.909 25.4537 143.459C29.9216 159.072 38.63 170.266 44.9045 168.461C51.1789 166.657 52.6433 152.537 48.1753 136.924C46.7902 132.084 44.2488 127.334 41.4016 123.083L37.7873 128.246Z" fill="#E6E6E6"/>
<path d="M48.6854 88.8723C48.6854 88.8723 46.287 117.782 45.7721 123.976C45.419 127.86 44.5532 131.679 43.1974 135.333C43.1974 135.333 42.1675 137.398 42.1675 139.463V165.791C42.1675 165.791 40.1077 165.791 40.6227 167.856C41.1376 169.921 41.6526 173.534 41.6526 173.534H49.3767C49.3767 173.534 48.8617 171.986 50.4066 171.469C51.9514 170.953 50.4066 166.823 50.4066 166.823L58.6456 135.85L71.0042 110.038C71.0042 110.038 78.2134 133.269 79.7582 135.85C79.7582 135.85 85.4225 164.758 86.4524 167.34C87.4823 169.921 87.9973 169.921 87.4823 170.953C86.9674 171.986 86.9674 173.018 87.4823 173.534C87.9973 174.051 97.7811 173.534 97.7811 173.534L95.2064 136.882L90.572 93.0026L66.8847 85.7754L48.6854 88.8723Z" fill="#2F2E41"/>
<path d="M47.3163 169.405C47.3163 169.405 44.7416 160.112 40.622 167.34C36.5025 174.567 36.5025 177.148 36.5025 177.148C36.5025 177.148 29.8082 186.956 39.0772 185.924C48.3461 184.891 46.2864 180.245 46.2864 180.245C46.2864 180.245 49.891 178.18 49.891 176.632C49.891 175.083 47.3163 169.405 47.3163 169.405Z" fill="#2F2E41"/>
<path d="M89.0268 168.372C89.0268 168.372 91.6015 159.08 95.7211 166.307C99.8406 173.534 99.8406 176.116 99.8406 176.116C99.8406 176.116 106.535 185.924 97.2659 184.891C87.997 183.859 90.0567 179.213 90.0567 179.213C90.0567 179.213 86.4521 177.148 86.4521 175.599C86.4521 174.051 89.0268 168.372 89.0268 168.372Z" fill="#2F2E41"/>
<path d="M64.8246 19.1819C64.8246 19.1819 65.8545 25.8928 62.7649 27.4415C59.6752 28.9902 69.4591 34.6687 72.0338 34.6687C74.6085 34.6687 79.243 29.5064 79.243 29.5064C79.243 29.5064 76.6683 21.763 77.1832 20.2143L64.8246 19.1819Z" fill="#A0616A"/>
<path d="M70.4895 24.3442C76.4618 24.3442 81.3033 19.4906 81.3033 13.5033C81.3033 7.51613 76.4618 2.66254 70.4895 2.66254C64.5173 2.66254 59.6758 7.51613 59.6758 13.5033C59.6758 19.4906 64.5173 24.3442 70.4895 24.3442Z" fill="#A0616A"/>
<path d="M91.6014 35.7012L78.7283 27.8823C78.7283 27.8823 71.4038 36.2174 63.4797 26.9253L49.8911 30.5389L51.9509 65.6425C51.9509 65.6425 48.8613 79.5807 49.8911 82.1618C50.921 84.743 47.3164 85.7754 48.3463 86.2916C49.3762 86.8079 48.3463 90.4215 48.3463 90.4215C48.3463 90.4215 68.429 100.746 90.5715 93.0026L88.5117 86.2916C88.792 85.4144 88.8446 84.4799 88.6644 83.5766C88.4842 82.6733 88.0772 81.831 87.4818 81.1294C87.4818 81.1294 89.5416 78.032 86.9669 75.4508C86.9669 75.4508 87.9968 70.8048 85.4221 68.7398L84.9071 61.5126L86.4519 57.899L91.6014 35.7012Z" fill="#CFCCE0"/>
<path d="M64.955 8.46965C64.955 8.46965 63.6658 11.2667 68.8226 10.1479C68.8226 10.1479 70.7565 11.2667 70.7565 9.58846C70.7565 9.58846 73.3349 12.3855 73.9795 10.7073C74.6241 9.02905 75.9134 11.2667 75.9134 11.2667L77.2026 8.46965L78.4918 10.1479H83.004C83.004 10.1479 84.2933 -1.04016 68.8226 0.0786461C53.352 1.19745 60.9627 18.9237 60.9627 18.9237C60.9627 18.9237 61.0873 15.7419 62.3765 17.4201C63.6658 19.0983 64.955 8.46965 64.955 8.46965Z" fill="#2F2E41"/>
<path d="M96.2364 56.3504L96.7514 67.1912C96.7514 67.1912 98.8111 87.3241 94.6916 96.1V100.746C94.6916 100.746 93.6617 112.619 88.5123 112.103C83.3629 111.587 90.0572 95.0675 90.0572 95.0675L89.0273 72.3535L87.9974 59.4477L96.2364 56.3504Z" fill="#A0616A"/>
<path d="M85.9372 36.2174L91.074 35.3808C94.7743 38.945 97.2949 43.5614 98.2958 48.6069C99.8406 56.8666 100.356 58.4153 100.356 58.4153L87.997 61.5127L81.3027 48.6069L85.9372 36.2174Z" fill="#CFCCE0"/>
<path d="M145.083 30.326H63.8203V70.7945H145.083V30.326Z" fill="white"/>
<path d="M72.6929 32.7597C70.6051 31.501 68.0878 31.5972 67.1309 31.6933C67.4953 32.5853 68.5888 34.8604 70.6765 36.1197C72.7693 37.3815 75.2833 37.2825 76.2388 37.187C75.8745 36.2953 74.7809 34.0192 72.6929 32.7597Z" fill="#0A54A2" fill-opacity="0.59"/>
<path d="M82.5031 57.7347H69.4547C69.0689 57.7343 68.6868 57.8101 68.3302 57.9579C67.9736 58.1056 67.6496 58.3223 67.3767 58.5957C67.1037 58.869 66.8872 59.1936 66.7394 59.5509C66.5917 59.9082 66.5156 60.2912 66.5156 60.678C66.5156 61.0648 66.5917 61.4477 66.7394 61.805C66.8872 62.1623 67.1037 62.4869 67.3767 62.7603C67.6496 63.0336 67.9736 63.2504 68.3302 63.3981C68.6868 63.5458 69.0689 63.6216 69.4547 63.6212H82.5031C82.889 63.6216 83.2711 63.5458 83.6276 63.3981C83.9842 63.2504 84.3082 63.0336 84.5812 62.7603C84.8542 62.4869 85.0707 62.1623 85.2184 61.805C85.3662 61.4477 85.4422 61.0648 85.4422 60.678C85.4422 60.2912 85.3662 59.9082 85.2184 59.5509C85.0707 59.1936 84.8542 58.869 84.5812 58.5957C84.3082 58.3223 83.9842 58.1056 83.6276 57.9579C83.2711 57.8101 82.889 57.7343 82.5031 57.7347Z" fill="#0A54A2" fill-opacity="0.59"/>
<path d="M141.591 26.6672H68.4327C67.5817 26.6672 66.739 26.8352 65.9527 27.1617C65.1664 27.4882 64.452 27.9668 63.8502 28.57C63.2485 29.1733 62.7711 29.8895 62.4454 30.6777C62.1198 31.466 61.9521 32.3108 61.9521 33.1639V68.8974C61.9521 70.6205 62.6349 72.2729 63.8503 73.4913C65.0656 74.7097 66.7139 75.3942 68.4327 75.3942H141.591C143.31 75.3942 144.958 74.7097 146.174 73.4913C147.389 72.2729 148.072 70.6205 148.072 68.8974V33.1639C148.072 32.3108 147.904 31.466 147.578 30.6777C147.253 29.8895 146.775 29.1733 146.174 28.57C145.572 27.9668 144.858 27.4882 144.071 27.1617C143.285 26.8352 142.442 26.6672 141.591 26.6672ZM66.6226 31.099C66.7671 31.0728 70.1928 30.4884 73.0295 32.1995C75.866 33.9103 76.9558 37.2186 77.0007 37.3585L77.1154 37.7152L76.7473 37.7807C76.2221 37.8628 75.6912 37.9019 75.1597 37.8976C73.4736 37.9299 71.8097 37.5094 70.3403 36.6798C67.5038 34.9693 66.4141 31.661 66.3692 31.5212L66.2545 31.1644L66.6226 31.099ZM82.5034 64.2752H69.455C68.5033 64.2752 67.5906 63.8963 66.9177 63.2216C66.2447 62.547 65.8667 61.632 65.8667 60.678C65.8667 59.7239 66.2447 58.8089 66.9177 58.1343C67.5906 57.4597 68.5033 57.0807 69.455 57.0807H82.5034C83.4551 57.0807 84.3678 57.4597 85.0407 58.1343C85.7137 58.8089 86.0917 59.7239 86.0917 60.678C86.0917 61.632 85.7137 62.547 85.0407 63.2216C84.3678 63.8963 83.4551 64.2752 82.5034 64.2752ZM141.874 63.6212C141.871 64.6611 141.457 65.6575 140.724 66.3928C139.99 67.128 138.997 67.5425 137.959 67.5455H128.173C127.136 67.5425 126.142 67.128 125.408 66.3928C124.675 65.6575 124.261 64.6611 124.258 63.6212V57.7347C124.261 56.6949 124.675 55.6985 125.408 54.9632C126.142 54.2279 127.136 53.8134 128.173 53.8104H137.959C138.997 53.8134 139.99 54.2279 140.724 54.9632C141.457 55.6985 141.871 56.6949 141.874 57.7347V63.6212Z" fill="#028C21"/>
<path d="M131.272 62.4766H127.031C126.729 62.4766 126.438 62.5972 126.224 62.8119C126.01 63.0265 125.89 63.3176 125.89 63.6212C125.89 63.9248 126.01 64.2159 126.224 64.4306C126.438 64.6452 126.729 64.7658 127.031 64.7658H131.272C131.575 64.7658 131.865 64.6452 132.079 64.4306C132.294 64.2159 132.414 63.9248 132.414 63.6212C132.414 63.3176 132.294 63.0265 132.079 62.8119C131.865 62.5972 131.575 62.4766 131.272 62.4766V62.4766ZM131.272 64.1117H127.031C126.967 64.1119 126.903 64.0994 126.844 64.0748C126.784 64.0502 126.73 64.0141 126.685 63.9685C126.639 63.923 126.603 63.8688 126.578 63.8092C126.553 63.7496 126.541 63.6857 126.541 63.6212C126.541 63.5567 126.553 63.4928 126.578 63.4332C126.603 63.3736 126.639 63.3195 126.685 63.2739C126.73 63.2283 126.784 63.1922 126.844 63.1676C126.903 63.1431 126.967 63.1305 127.031 63.1307H131.272C131.402 63.131 131.526 63.1829 131.617 63.2748C131.709 63.3668 131.76 63.4913 131.76 63.6212C131.76 63.7511 131.709 63.8757 131.617 63.9676C131.526 64.0596 131.402 64.1114 131.272 64.1117V64.1117Z" fill="#0A54A2" fill-opacity="0.59"/>
<path d="M139.101 62.4766H134.86C134.558 62.4766 134.267 62.5972 134.053 62.8119C133.839 63.0265 133.719 63.3176 133.719 63.6212C133.719 63.9248 133.839 64.2159 134.053 64.4306C134.267 64.6452 134.558 64.7658 134.86 64.7658H139.101C139.404 64.7658 139.694 64.6452 139.909 64.4306C140.123 64.2159 140.243 63.9248 140.243 63.6212C140.243 63.3176 140.123 63.0265 139.909 62.8119C139.694 62.5972 139.404 62.4766 139.101 62.4766V62.4766ZM139.101 64.1117H134.86C134.796 64.1119 134.732 64.0994 134.673 64.0748C134.613 64.0502 134.559 64.0141 134.514 63.9685C134.468 63.923 134.432 63.8688 134.407 63.8092C134.383 63.7496 134.37 63.6857 134.37 63.6212C134.37 63.5567 134.383 63.4928 134.407 63.4332C134.432 63.3736 134.468 63.3195 134.514 63.2739C134.559 63.2283 134.613 63.1922 134.673 63.1676C134.732 63.1431 134.796 63.1305 134.86 63.1307H139.101C139.231 63.131 139.355 63.1829 139.446 63.2748C139.538 63.3668 139.589 63.4913 139.589 63.6212C139.589 63.7511 139.538 63.8757 139.446 63.9676C139.355 64.0596 139.231 64.1114 139.101 64.1117V64.1117Z" fill="#0A54A2" fill-opacity="0.59"/>
<path d="M131.272 59.5334H127.031C126.729 59.5334 126.438 59.654 126.224 59.8686C126.01 60.0833 125.89 60.3744 125.89 60.678C125.89 60.9815 126.01 61.2727 126.224 61.4873C126.438 61.702 126.729 61.8226 127.031 61.8226H131.272C131.575 61.8226 131.865 61.702 132.079 61.4873C132.294 61.2727 132.414 60.9815 132.414 60.678C132.414 60.3744 132.294 60.0833 132.079 59.8686C131.865 59.654 131.575 59.5334 131.272 59.5334V59.5334ZM131.272 61.1685H127.031C126.967 61.1685 126.903 61.1558 126.844 61.1312C126.785 61.1065 126.731 61.0704 126.685 61.0248C126.64 60.9793 126.604 60.9252 126.579 60.8657C126.555 60.8062 126.542 60.7424 126.542 60.678C126.542 60.6135 126.555 60.5498 126.579 60.4902C126.604 60.4307 126.64 60.3767 126.685 60.3311C126.731 60.2856 126.785 60.2494 126.844 60.2248C126.903 60.2001 126.967 60.1874 127.031 60.1874H131.272C131.336 60.1874 131.4 60.2001 131.459 60.2248C131.519 60.2494 131.573 60.2856 131.618 60.3311C131.664 60.3767 131.7 60.4307 131.724 60.4902C131.749 60.5498 131.761 60.6135 131.761 60.678C131.761 60.7424 131.749 60.8062 131.724 60.8657C131.7 60.9252 131.664 60.9793 131.618 61.0248C131.573 61.0704 131.519 61.1065 131.459 61.1312C131.4 61.1558 131.336 61.1685 131.272 61.1685V61.1685Z" fill="#0A54A2" fill-opacity="0.59"/>
<path d="M139.101 59.5334H134.86C134.558 59.5334 134.267 59.654 134.053 59.8686C133.839 60.0833 133.719 60.3744 133.719 60.678C133.719 60.9815 133.839 61.2727 134.053 61.4873C134.267 61.702 134.558 61.8226 134.86 61.8226H139.101C139.404 61.8226 139.694 61.702 139.909 61.4873C140.123 61.2727 140.243 60.9815 140.243 60.678C140.243 60.3744 140.123 60.0833 139.909 59.8686C139.694 59.654 139.404 59.5334 139.101 59.5334V59.5334ZM139.101 61.1685H134.86C134.796 61.1685 134.733 61.1558 134.673 61.1312C134.614 61.1065 134.56 61.0704 134.514 61.0248C134.469 60.9793 134.433 60.9252 134.408 60.8657C134.384 60.8062 134.371 60.7424 134.371 60.678C134.371 60.6135 134.384 60.5498 134.408 60.4902C134.433 60.4307 134.469 60.3767 134.514 60.3311C134.56 60.2856 134.614 60.2494 134.673 60.2248C134.733 60.2001 134.796 60.1874 134.86 60.1874H139.101C139.166 60.1874 139.229 60.2001 139.288 60.2248C139.348 60.2494 139.402 60.2856 139.447 60.3311C139.493 60.3767 139.529 60.4307 139.553 60.4902C139.578 60.5498 139.591 60.6135 139.591 60.678C139.591 60.7424 139.578 60.8062 139.553 60.8657C139.529 60.9252 139.493 60.9793 139.447 61.0248C139.402 61.0704 139.348 61.1065 139.288 61.1312C139.229 61.1558 139.166 61.1685 139.101 61.1685V61.1685Z" fill="#0A54A2" fill-opacity="0.59"/>
<path d="M131.272 56.5901H127.031C126.729 56.5901 126.438 56.7107 126.224 56.9254C126.01 57.14 125.89 57.4312 125.89 57.7347C125.89 58.0383 126.01 58.3294 126.224 58.5441C126.438 58.7587 126.729 58.8793 127.031 58.8793H131.272C131.575 58.8793 131.865 58.7587 132.079 58.5441C132.294 58.3294 132.414 58.0383 132.414 57.7347C132.414 57.4312 132.294 57.14 132.079 56.9254C131.865 56.7107 131.575 56.5901 131.272 56.5901V56.5901ZM131.272 58.2253H127.031C126.967 58.2254 126.903 58.2129 126.844 58.1883C126.784 58.1637 126.73 58.1276 126.685 58.0821C126.639 58.0365 126.603 57.9824 126.578 57.9228C126.553 57.8632 126.541 57.7993 126.541 57.7347C126.541 57.6702 126.553 57.6063 126.578 57.5467C126.603 57.4871 126.639 57.433 126.685 57.3874C126.73 57.3418 126.784 57.3057 126.844 57.2811C126.903 57.2566 126.967 57.244 127.031 57.2442H131.272C131.402 57.2445 131.526 57.2964 131.617 57.3883C131.709 57.4803 131.76 57.6049 131.76 57.7347C131.76 57.8646 131.709 57.9892 131.617 58.0811C131.526 58.1731 131.402 58.2249 131.272 58.2253V58.2253Z" fill="#0A54A2" fill-opacity="0.59"/>
<path d="M139.101 56.5901H134.86C134.558 56.5901 134.267 56.7107 134.053 56.9254C133.839 57.14 133.719 57.4312 133.719 57.7347C133.719 58.0383 133.839 58.3294 134.053 58.5441C134.267 58.7587 134.558 58.8793 134.86 58.8793H139.101C139.404 58.8793 139.694 58.7587 139.909 58.5441C140.123 58.3294 140.243 58.0383 140.243 57.7347C140.243 57.4312 140.123 57.14 139.909 56.9254C139.694 56.7107 139.404 56.5901 139.101 56.5901V56.5901ZM139.101 58.2253H134.86C134.796 58.2254 134.732 58.2129 134.673 58.1883C134.613 58.1637 134.559 58.1276 134.514 58.0821C134.468 58.0365 134.432 57.9824 134.407 57.9228C134.383 57.8632 134.37 57.7993 134.37 57.7347C134.37 57.6702 134.383 57.6063 134.407 57.5467C134.432 57.4871 134.468 57.433 134.514 57.3874C134.559 57.3418 134.613 57.3057 134.673 57.2811C134.732 57.2566 134.796 57.244 134.86 57.2442H139.101C139.231 57.2445 139.355 57.2964 139.446 57.3883C139.538 57.4803 139.589 57.6049 139.589 57.7347C139.589 57.8646 139.538 57.9892 139.446 58.0811C139.355 58.1731 139.231 58.2249 139.101 58.2253V58.2253Z" fill="#0A54A2" fill-opacity="0.59"/>
<path d="M42.1673 50.1556C42.1673 50.1556 37.5328 69.7723 43.1972 69.7723C48.8615 69.7723 62.25 47.5745 62.25 47.5745C62.25 47.5745 76.1534 40.3473 70.489 37.7661C64.8247 35.185 57.6155 41.8959 57.6155 41.8959L49.2971 53.4738L48.8615 47.5745L42.1673 50.1556Z" fill="#A0616A"/>
<path d="M52.981 33.6363L49.8913 30.5389C49.8913 30.5389 43.712 34.1525 43.1971 37.7661C42.6821 41.3797 40.1074 52.7368 40.1074 52.7368L49.6338 53.5111L52.7235 48.865L52.981 33.6363Z" fill="#CFCCE0"/>
<path d="M199.344 26.2928C198.956 25.1445 194.091 21.241 197.072 20.5849L199.517 23.8526L210.756 12.5856L211.886 13.7188L199.344 26.2928Z" fill="#0A54A2"/>
<path d="M199.344 64.6054C198.956 63.457 194.091 59.5536 197.072 58.8975L199.517 62.1652L210.756 50.8982L211.886 52.0314L199.344 64.6054Z" fill="#0A54A2"/>
<path d="M199.344 103.465C198.956 102.317 194.091 98.4135 197.072 97.7574L199.517 101.025L210.756 89.7581L211.886 90.8913L199.344 103.465Z" fill="#0A54A2"/>
<path d="M233.386 25.1108C235.302 25.1108 236.854 23.5542 236.854 21.634C236.854 19.7138 235.302 18.1572 233.386 18.1572C231.471 18.1572 229.918 19.7138 229.918 21.634C229.918 23.5542 231.471 25.1108 233.386 25.1108Z" fill="#3F3D56"/>
<path d="M302.23 21.2863H246.393V21.9816H302.23V21.2863Z" fill="#3F3D56"/>
<path d="M233.386 63.4234C235.302 63.4234 236.854 61.8668 236.854 59.9466C236.854 58.0264 235.302 56.4697 233.386 56.4697C231.471 56.4697 229.918 58.0264 229.918 59.9466C229.918 61.8668 231.471 63.4234 233.386 63.4234Z" fill="#3F3D56"/>
<path d="M302.23 59.5988H246.393V60.2942H302.23V59.5988Z" fill="#3F3D56"/>
<path d="M233.386 102.283C235.302 102.283 236.854 100.727 236.854 98.8065C236.854 96.8863 235.302 95.3297 233.386 95.3297C231.471 95.3297 229.918 96.8863 229.918 98.8065C229.918 100.727 231.471 102.283 233.386 102.283Z" fill="#3F3D56"/>
<path d="M302.23 98.4587H246.393V99.1541H302.23V98.4587Z" fill="#3F3D56"/>
<path d="M208.103 108.646H190.763V90.9139H202.554V91.6093H191.456V107.95H207.41V99.9537H208.103V108.646Z" fill="#3F3D56"/>
<path d="M208.103 69.7053H190.763V51.9734H202.554V52.6688H191.456V69.0099H207.41V61.0132H208.103V69.7053Z" fill="#3F3D56"/>
<path d="M208.103 30.0694H190.763V12.3375H202.554V13.0329H191.456V29.374H207.41V21.3773H208.103V30.0694Z" fill="#3F3D56"/>
</svg>
