<svg width="344" height="240" viewBox="0 0 344 240" fill="none" xmlns="http://www.w3.org/2000/svg">
<path d="M15.3224 92.1026C15.6513 112.372 23.2414 114.566 32.5622 112.452C43.2101 110.037 51.9496 102.468 56.257 92.4525L59.2276 85.5455C61.2025 80.9537 61.269 75.7669 59.4124 71.1261C57.5559 66.4853 53.9284 62.7707 49.328 60.7995H49.3279C47.05 59.8235 44.6018 59.3049 42.1231 59.2732C39.6444 59.2415 37.1837 59.6975 34.8815 60.6151C32.5793 61.5326 30.4808 62.8938 28.7056 64.6209C26.9305 66.3479 25.5135 68.4071 24.5357 70.6807C14.9767 74.4287 13.0888 82.1881 15.3224 92.1026Z" fill="#2F2E41"/>
<path d="M75.2566 51.3069L78.1174 46.4748C78.4668 45.8848 78.6777 45.2234 78.7344 44.5404C78.7911 43.8573 78.6922 43.1703 78.4449 42.5309C78.1976 41.8915 77.8085 41.3163 77.3067 40.8484C76.8049 40.3806 76.2035 40.0322 75.5476 39.8294C74.8553 39.6154 74.1217 39.5697 73.4081 39.696C72.6945 39.8223 72.0214 40.1171 71.445 40.5557C70.8687 40.9943 70.4057 41.564 70.0946 42.2174C69.7836 42.8709 69.6335 43.589 69.6569 44.312L69.8251 49.5061L56.3804 86.2826L63.712 87.8104L75.2566 51.3069Z" fill="#9F616A"/>
<path d="M4.52443 141.967L1.00308 146.343C0.573074 146.878 0.269884 147.502 0.116256 148.17C-0.0373726 148.838 -0.0374506 149.532 0.116027 150.2C0.269504 150.868 0.572552 151.493 1.00244 152.027C1.43232 152.562 1.97788 152.992 2.59818 153.286C3.2529 153.596 3.97243 153.746 4.69682 153.723C5.4212 153.699 6.12945 153.503 6.76254 153.151C7.39563 152.799 7.93523 152.3 8.33636 151.698C8.73748 151.095 8.98853 150.406 9.06857 149.687L9.64353 144.522L28.2003 110.033L21.1615 107.478L4.52443 141.967Z" fill="#9F616A"/>
<path d="M26.2808 178.373L26.7991 184.587L26.9207 186.037L61.385 182.729C62.573 182.595 63.7126 182.184 64.7113 181.528C65.7099 180.872 66.5394 179.99 67.1324 178.954C67.7253 177.917 68.0649 176.756 68.1236 175.564C68.1824 174.373 67.9586 173.184 67.4704 172.094L56.3555 148.278L52.5162 140.051L35.8791 136.219C22.1599 146.7 34.5033 158.267 50.0334 169.968C50.6413 170.428 51.2556 170.887 51.8763 171.347L26.2808 178.373Z" fill="#2F2E41"/>
<path d="M14.668 199.892C15.0879 199.952 15.5162 199.904 15.9118 199.751C16.3074 199.598 16.657 199.346 16.9272 199.02L28.2006 185.398L27.5607 179.012L23.7168 176.71C23.4024 176.521 23.0507 176.403 22.686 176.365C22.3214 176.326 21.9527 176.366 21.6055 176.484C21.2582 176.602 20.9408 176.793 20.6753 177.046C20.4098 177.298 20.2025 177.605 20.0678 177.946L12.7149 196.538C12.5776 196.886 12.5209 197.259 12.549 197.632C12.5771 198.004 12.6894 198.365 12.8773 198.688C13.0652 199.01 13.324 199.286 13.6341 199.495C13.9443 199.704 14.2977 199.84 14.668 199.892Z" fill="#2F2E41"/>
<path opacity="0.2" d="M24.3608 177.095L25.0007 184.76L26.7988 184.587L59.4651 181.451C60.6531 181.318 61.7927 180.906 62.7914 180.25C63.79 179.594 64.6195 178.712 65.2124 177.676C65.8054 176.64 66.145 175.479 66.2037 174.287C66.2625 173.095 66.0386 171.906 65.5505 170.817L56.3553 150.27V148.278L52.516 140.051L35.8788 136.219C22.1596 146.7 34.5031 158.267 50.0332 169.968L49.9564 170.07L24.3608 177.095Z" fill="black"/>
<path d="M11.4683 197.338C11.8882 197.398 12.3165 197.349 12.7121 197.196C13.1077 197.043 13.4573 196.791 13.7275 196.465L25.0009 182.844L24.361 176.457L20.5171 174.155C20.2027 173.966 19.8509 173.849 19.4863 173.81C19.1217 173.771 18.753 173.812 18.4058 173.929C18.0585 174.047 17.7411 174.239 17.4756 174.491C17.21 174.743 17.0028 175.051 16.8681 175.391L9.51524 193.983C9.37791 194.331 9.32117 194.705 9.34929 195.077C9.37741 195.449 9.48966 195.81 9.67759 196.133C9.86553 196.456 10.1243 196.732 10.4344 196.94C10.7445 197.149 11.098 197.285 11.4683 197.338Z" fill="#2F2E41"/>
<path d="M23.0811 175.818L23.7209 183.482L58.1854 180.173C59.3733 180.039 60.5128 179.628 61.5115 178.972C62.5102 178.317 63.3398 177.435 63.933 176.399C64.5261 175.363 64.8661 174.202 64.9252 173.01C64.9844 171.819 64.7611 170.63 64.2734 169.54L55.0755 148.993V137.496L32.6794 133.664C18.4203 144.557 32.3135 156.623 48.6766 168.792L23.0811 175.818Z" fill="#2F2E41"/>
<path d="M44.8376 85.7622C50.1386 85.7622 54.4359 81.4729 54.4359 76.1817C54.4359 70.8906 50.1386 66.6013 44.8376 66.6013C39.5366 66.6013 35.2393 70.8906 35.2393 76.1817C35.2393 81.4729 39.5366 85.7622 44.8376 85.7622Z" fill="#9F616A"/>
<path d="M32.0396 92.1491L45.4772 101.091L56.9952 98.536L50.5963 92.1491V82.5687L40.3581 81.93C40.1431 85.7557 37.9468 89.2566 32.0396 92.1491Z" fill="#9F616A"/>
<path d="M30.1202 136.858L55.0758 140.051L60.8348 113.226C63.5103 106.105 61.9752 99.8144 57.0218 94.1968C56.8324 93.2513 56.3278 92.3979 55.5901 91.7754C54.8525 91.1529 53.9254 90.7982 52.9599 90.769L50.5966 90.8717C50.8639 99.3424 44.6114 97.3022 35.2393 90.233L34.1076 90.5719C32.6446 91.0099 31.3886 91.9592 30.5694 93.2458C29.7501 94.5325 29.4224 96.0706 29.6463 97.5787L30.6782 104.531C31.1158 107.287 31.7955 110 32.7095 112.637C35.2681 120.27 34.3538 128.35 30.1202 136.858Z" fill="#0A54A2"/>
<path d="M18.6021 108.116L30.12 111.949L35.2392 93.4265L33.5049 92.6397C32.0671 91.9873 30.4345 91.9054 28.9383 92.4105C27.4422 92.9157 26.1947 93.97 25.4488 95.3596L18.6021 108.116Z" fill="#0A54A2"/>
<path d="M52.5161 90.8718L58.9152 97.8972L66.5936 85.762L56.9952 80.6526L52.5161 90.8718Z" fill="#0A54A2"/>
<path d="M33.6396 73.3076C39.6712 75.5777 46.1082 75.3424 52.8363 73.3076V65.6432H33.6396V73.3076Z" fill="#2F2E41"/>
<path d="M332.996 204.873L326.378 207.625L282.264 147.632L250.281 208.726L242.01 207.075L266.273 122.864H294.395L332.996 204.873Z" fill="#2F2E41"/>
<path d="M341.873 218.869C341.506 218.969 341.123 218.995 340.746 218.947C340.369 218.898 340.005 218.776 339.676 218.586L325.721 210.566C325.344 210.35 325.022 210.05 324.78 209.689C324.539 209.329 324.383 208.918 324.326 208.488C324.269 208.057 324.312 207.62 324.452 207.209C324.591 206.798 324.824 206.425 325.131 206.118L326.378 204.873L332.996 204.323L343.111 214.016C343.479 214.369 343.747 214.812 343.887 215.302C344.027 215.791 344.035 216.309 343.909 216.802C343.783 217.296 343.528 217.747 343.17 218.11C342.813 218.473 342.365 218.735 341.873 218.869Z" fill="#2F2E41"/>
<path d="M233.684 221.07C234.051 221.17 234.434 221.197 234.811 221.148C235.188 221.1 235.552 220.977 235.882 220.788L249.837 212.768C250.213 212.552 250.535 212.252 250.777 211.891C251.019 211.531 251.174 211.119 251.231 210.689C251.288 210.259 251.245 209.822 251.106 209.411C250.966 209 250.734 208.627 250.426 208.32L249.179 207.075L242.562 206.525L232.446 216.218C232.078 216.57 231.811 217.014 231.67 217.503C231.53 217.993 231.523 218.511 231.649 219.004C231.775 219.497 232.029 219.949 232.387 220.312C232.745 220.675 233.192 220.936 233.684 221.07Z" fill="#2F2E41"/>
<path d="M247.524 35.3498L244.767 37.001L239.053 27.7336C238.702 27.1645 238.493 26.5194 238.445 25.8529C238.396 25.1863 238.508 24.5179 238.773 23.9038C239.037 23.2898 239.445 22.7482 239.963 22.3248C240.481 21.9013 241.094 21.6084 241.749 21.4707C242.332 21.3483 242.934 21.3516 243.515 21.4805C244.096 21.6093 244.643 21.8607 245.119 22.2178C245.595 22.5749 245.988 23.0294 246.274 23.5509C246.559 24.0724 246.73 24.6487 246.774 25.2413L247.524 35.3498Z" fill="#FFB9B9"/>
<path d="M323.901 107.501L325.045 104.502L335.277 108.258C335.905 108.489 336.469 108.867 336.92 109.361C337.371 109.855 337.697 110.449 337.87 111.095C338.042 111.741 338.057 112.419 337.912 113.071C337.767 113.724 337.468 114.332 337.038 114.844C336.656 115.3 336.181 115.669 335.644 115.927C335.108 116.184 334.522 116.324 333.927 116.337C333.332 116.35 332.741 116.236 332.193 116.002C331.646 115.769 331.155 115.421 330.753 114.982L323.901 107.501Z" fill="#FFB9B9"/>
<path d="M280.61 68.3739C285.179 68.3739 288.882 64.6775 288.882 60.1179C288.882 55.5582 285.179 51.8619 280.61 51.8619C276.042 51.8619 272.339 55.5582 272.339 60.1179C272.339 64.6775 276.042 68.3739 280.61 68.3739Z" fill="#FFB9B9"/>
<path d="M287.778 77.7306H276.198V65.0715L286.124 63.9706L287.778 77.7306Z" fill="#FFB9B9"/>
<path d="M296.05 126.166H264.618C265.726 108.661 266.604 91.745 264.618 82.1339L266.446 73.3776C266.699 72.1644 267.4 71.0907 268.411 70.3701C269.421 69.6495 270.666 69.3348 271.898 69.4885L276.198 70.0251C279.111 75.1357 282.63 75.0864 286.675 70.5755H291.856C292.546 70.5755 293.23 70.713 293.867 70.9799C294.503 71.2469 295.08 71.6379 295.564 72.1301C296.047 72.6224 296.428 73.2059 296.682 73.8466C296.937 74.4874 297.061 75.1724 297.048 75.8616C298.397 82.0288 298.846 88.3585 298.38 94.654L296.05 126.166Z" fill="#3F3D56"/>
<path d="M243.112 35.3497L247.524 33.1483L271.235 72.2268L264.618 82.1339L243.112 35.3497Z" fill="#3F3D56"/>
<path d="M323.964 109.067L327.734 105.893L307.702 77.8748C305.742 75.1337 303.04 73.0067 299.913 71.743C296.786 70.4792 293.362 70.131 290.044 70.7391L289.412 70.855L296.987 84.086L306.964 91.6254L323.964 109.067Z" fill="#3F3D56"/>
<path d="M290.176 55.2442C290.176 55.2442 291.721 51.8502 287.703 50.3075C287.703 50.3075 284.303 44.7536 277.502 48.4562C277.502 48.4562 272.865 50.3075 272.865 55.2442C272.865 60.1809 271.319 61.1066 271.319 61.1066C271.319 61.1066 273.621 58.7496 274.239 56.8984C274.858 55.0471 279.666 54.6271 281.52 56.4784C283.375 58.3296 288.012 58.0211 288.012 58.0211L287.703 64.8091C287.703 64.8091 289.248 60.798 289.867 60.798C290.485 60.798 291.103 55.2442 290.176 55.2442Z" fill="#2F2E41"/>
<path d="M289.413 240C317.365 240 340.024 238.822 340.024 237.369C340.024 235.916 317.365 234.738 289.413 234.738C261.461 234.738 238.802 235.916 238.802 237.369C238.802 238.822 261.461 240 289.413 240Z" fill="#E6E6E6"/>
<path d="M36.7188 238.76C51.4933 238.76 63.4704 238.137 63.4704 237.369C63.4704 236.601 51.4933 235.978 36.7188 235.978C21.9444 235.978 9.96729 236.601 9.96729 237.369C9.96729 238.137 21.9444 238.76 36.7188 238.76Z" fill="#E6E6E6"/>
<path d="M241.109 46.2908L78.4783 60.8392C77.6797 60.9097 76.8858 60.6611 76.2706 60.1481C75.6554 59.6351 75.2692 58.8994 75.1967 58.1025L71.5811 17.836C71.5105 17.039 71.7595 16.2465 72.2735 15.6325C72.7875 15.0184 73.5245 14.6329 74.3229 14.5606L236.954 0.0121832C237.752 -0.0583068 238.546 0.190226 239.161 0.703261C239.777 1.2163 240.163 1.95194 240.235 2.74883L243.851 43.0153C243.922 43.8124 243.673 44.6048 243.159 45.2189C242.645 45.8329 241.908 46.2184 241.109 46.2908Z" fill="#0A54A2"/>
<path d="M97.482 48.4898C104.496 48.4898 110.182 42.8146 110.182 35.8138C110.182 28.813 104.496 23.1378 97.482 23.1378C90.4681 23.1378 84.7822 28.813 84.7822 35.8138C84.7822 42.8146 90.4681 48.4898 97.482 48.4898Z" fill="white"/>
<path d="M125.939 24.7835C125.381 24.8345 124.866 25.1046 124.507 25.5344C124.148 25.9642 123.974 26.5186 124.024 27.076C124.074 27.6334 124.344 28.1482 124.774 28.5074C125.204 28.8666 125.759 29.0409 126.317 28.992L225.703 20.1013C225.98 20.0769 226.249 19.9983 226.496 19.8698C226.743 19.7413 226.961 19.5655 227.14 19.3526C227.318 19.1396 227.453 18.8936 227.536 18.6286C227.62 18.3636 227.65 18.0848 227.625 17.8082C227.6 17.5317 227.521 17.2627 227.392 17.0167C227.263 16.7707 227.086 16.5525 226.873 16.3746C226.659 16.1967 226.412 16.0626 226.147 15.9799C225.881 15.8973 225.602 15.8677 225.325 15.8929L125.939 24.7835Z" fill="white"/>
<path d="M127.073 37.409C126.796 37.4332 126.526 37.5118 126.28 37.6402C126.033 37.7687 125.814 37.9444 125.635 38.1574C125.457 38.3704 125.322 38.6165 125.239 38.8816C125.155 39.1466 125.125 39.4255 125.15 39.7021C125.175 39.9788 125.254 40.2479 125.383 40.494C125.512 40.74 125.689 40.9582 125.903 41.1361C126.116 41.314 126.363 41.4481 126.629 41.5307C126.895 41.6133 127.174 41.6428 127.451 41.6174L226.837 32.7268C227.114 32.7024 227.383 32.6237 227.63 32.4952C227.877 32.3667 228.095 32.191 228.274 31.978C228.453 31.765 228.587 31.519 228.67 31.254C228.754 30.989 228.784 30.7103 228.759 30.4337C228.734 30.1571 228.655 29.8881 228.526 29.6421C228.397 29.3961 228.22 29.1779 228.007 29C227.793 28.8221 227.546 28.688 227.281 28.6054C227.015 28.5227 226.736 28.4931 226.459 28.5183L127.073 37.409Z" fill="white"/>
</svg>
