<svg width="24" height="25" viewBox="0 0 24 25" fill="none" xmlns="http://www.w3.org/2000/svg">
<g id="how_to_vote_24px">
<path id="icon/content/how_to_vote_24px" fill-rule="evenodd" clip-rule="evenodd" d="M11.34 15.4032C11.73 15.7832 12.36 15.7832 12.75 15.4032L19.11 9.2067C19.5 8.82672 19.5 8.21291 19.11 7.83293L14.16 3.01015C13.78 2.62043 13.15 2.62043 12.76 3.00041L6.39 9.2067C6 9.58667 6 10.2005 6.39 10.5805L11.34 15.4032ZM17.32 13.4352H18L21 16.3581V20.2553C21 21.3367 20.1 22.2039 19 22.2039H4.99C3.89 22.2039 3 21.327 3 20.2553V16.3581L6 13.4352H6.83L8.83 15.3838H6.78L5 17.3324H19L17.23 15.3838H15.32L17.32 13.4352ZM5 20.2553H19V19.281H5V20.2553ZM17 8.51495L13.46 5.06592L8.51 9.88871L12.05 13.3377L17 8.51495Z" fill="black" fill-opacity="0.54"/>
</g>
</svg>
