<svg xmlns="http://www.w3.org/2000/svg" xmlns:xlink="http://www.w3.org/1999/xlink" viewBox="0 0 347.85 442.47"><defs><style>.cls-1{fill:none;}.cls-2{font-size:127.19px;font-family:BloggerSans-Bold, Blogger Sans;font-weight:700;}.cls-16,.cls-2{fill:#056093;}.cls-3{font-size:18.43px;font-family:BloggerSans, Blogger Sans;}.cls-13,.cls-3{fill:#00bce9;}.cls-4{letter-spacing:-0.02em;}.cls-5{letter-spacing:0em;}.cls-6{letter-spacing:-0.01em;}.cls-7{letter-spacing:-0.01em;}.cls-8{letter-spacing:0em;}.cls-9{letter-spacing:0em;}.cls-10{letter-spacing:-0.02em;}.cls-11{letter-spacing:-0.01em;}.cls-12{letter-spacing:-0.07em;}.cls-14{fill:#e1eaef;}.cls-15{fill:#a6b3bd;}.cls-17{fill:#059ac9;}.cls-18{fill:#0288b7;}.cls-19{fill:#004d77;}.cls-20{clip-path:url(#clip-path);}.cls-21{fill:#fff;}.cls-22{fill:#7195a5;}.cls-23{fill:#57808e;}.cls-24{fill:#7c8b96;}.cls-25{fill:#637079;}.cls-26{fill:#cad6dd;}.cls-27{fill:#6ac17b;}.cls-28{fill:#929fa9;}.cls-29{fill:#d8e2e7;}.cls-30{fill:#f0f8f1;}.cls-31{fill:#525d65;}.cls-32{fill:#fdb827;}</style><clipPath id="clip-path"><rect class="cls-1" x="151.08" y="265.55" width="45.2" height="16.53" rx="3.43" ry="3.43"/></clipPath></defs><title>Asset 3</title><g id="Layer_2" data-name="Layer 2"><g id="OBJECTS"><text class="cls-2" transform="translate(70.9 108.43)">404</text><text class="cls-3" transform="translate(79.55 136.38)"><tspan class="cls-4">W</tspan><tspan x="13.9" y="0">e can’t seem </tspan><tspan class="cls-5" x="112.04" y="0">t</tspan><tspan x="117.94" y="0">o find the</tspan><tspan x="9.14" y="17.41">p</tspan><tspan class="cls-6" x="17.96" y="17.41">a</tspan><tspan class="cls-7" x="26.66" y="17.41">g</tspan><tspan x="35.54" y="17.41">e </tspan><tspan class="cls-8" x="49.09" y="17.41">y</tspan><tspan x="56.74" y="17.41">ou’</tspan><tspan class="cls-9" x="78.92" y="17.41">r</tspan><tspan x="85.09" y="17.41">e loo</tspan><tspan class="cls-7" x="119.95" y="17.41">k</tspan><tspan x="127.84" y="17.41">i</tspan><tspan class="cls-10" x="132.36" y="17.41">n</tspan><tspan x="141.36" y="17.41">g </tspan><tspan class="cls-11" x="155.97" y="17.41">f</tspan><tspan x="161.95" y="17.41">o</tspan><tspan class="cls-12" x="170.5" y="17.41">r</tspan><tspan x="175.37" y="17.41">.</tspan></text><polygon class="cls-13" points="194.87 306.33 173.93 306.33 152.98 306.33 117.71 328.38 117.71 423.18 173.93 423.18 230.15 423.18 230.15 328.38 194.87 306.33"/><rect class="cls-14" x="153.53" y="288.7" width="40.79" height="18.74"/><rect class="cls-15" x="152.43" y="288.7" width="42.99" height="2.42"/><rect class="cls-15" x="152.43" y="294.14" width="42.99" height="2.42"/><rect class="cls-15" x="152.43" y="299.58" width="42.99" height="2.42"/><rect class="cls-15" x="152.43" y="305.02" width="42.99" height="2.42"/><rect class="cls-15" x="111.64" y="200.51" width="2.76" height="41.34"/><circle class="cls-14" cx="113.85" cy="243.5" r="3.86"/><path class="cls-13" d="M116.88,200.51a3.86,3.86,0,1,1-3.86-3.86A3.86,3.86,0,0,1,116.88,200.51Z"/><ellipse class="cls-16" cx="122.12" cy="243.5" rx="7.72" ry="9.37"/><rect class="cls-13" x="106.96" y="207.12" width="12.13" height="2.76"/><rect class="cls-13" x="106.96" y="212.63" width="12.13" height="2.76"/><rect class="cls-15" x="233.45" y="200.51" width="2.76" height="41.34" transform="translate(469.66 442.36) rotate(180)"/><circle class="cls-14" cx="234" cy="243.5" r="3.86"/><path class="cls-13" d="M231,200.51a3.86,3.86,0,1,0,3.86-3.86A3.86,3.86,0,0,0,231,200.51Z"/><ellipse class="cls-16" cx="225.74" cy="243.5" rx="7.72" ry="9.37"/><rect class="cls-13" x="228.77" y="207.12" width="12.13" height="2.76" transform="translate(469.66 417) rotate(180)"/><rect class="cls-13" x="228.77" y="212.63" width="12.13" height="2.76" transform="translate(469.66 428.02) rotate(180)"/><circle class="cls-13" cx="173.93" cy="244.05" r="51.81"/><rect class="cls-17" x="136.45" y="225.86" width="74.96" height="36.38" rx="9.77" ry="9.77"/><rect class="cls-18" x="138.65" y="228.07" width="70.55" height="31.97" rx="7.56" ry="7.56"/><rect class="cls-16" x="166.67" y="237.99" width="14.02" height="20.39" rx="1.27" ry="1.27"/><path class="cls-19" d="M179.42,240.54H168a1.28,1.28,0,0,1-1.28-1.28h0A1.27,1.27,0,0,1,168,238h11.47a1.27,1.27,0,0,1,1.27,1.27h0A1.27,1.27,0,0,1,179.42,240.54Z"/><path class="cls-19" d="M179.42,245H168a1.28,1.28,0,0,1-1.28-1.28h0a1.27,1.27,0,0,1,1.28-1.27h11.47a1.27,1.27,0,0,1,1.27,1.27h0A1.27,1.27,0,0,1,179.42,245Z"/><rect class="cls-19" x="166.67" y="246.91" width="14.02" height="2.55" rx="1.27" ry="1.27"/><path class="cls-19" d="M179.42,253.92H168a1.27,1.27,0,0,1-1.28-1.27h0a1.28,1.28,0,0,1,1.28-1.28h11.47a1.27,1.27,0,0,1,1.27,1.28h0A1.27,1.27,0,0,1,179.42,253.92Z"/><path class="cls-19" d="M179.42,258.38H168a1.27,1.27,0,0,1-1.28-1.27h0a1.28,1.28,0,0,1,1.28-1.28h11.47a1.27,1.27,0,0,1,1.27,1.28h0A1.27,1.27,0,0,1,179.42,258.38Z"/><rect class="cls-17" x="149.43" y="263.89" width="48.5" height="19.84" rx="2.87" ry="2.87"/><g class="cls-20"><rect class="cls-21" x="151.08" y="265.55" width="45.2" height="16.53"/><rect class="cls-14" x="173.37" y="265.55" width="1.1" height="16.53"/><rect class="cls-14" x="168.41" y="265.55" width="1.1" height="16.53"/><rect class="cls-14" x="163.45" y="265.55" width="1.1" height="16.53"/><rect class="cls-14" x="158.49" y="265.55" width="1.1" height="16.53"/><rect class="cls-14" x="153.53" y="265.55" width="1.1" height="16.53"/><rect class="cls-14" x="178.34" y="265.55" width="1.1" height="16.53" transform="translate(357.77 547.63) rotate(180)"/><rect class="cls-14" x="183.3" y="265.55" width="1.1" height="16.53" transform="translate(367.69 547.63) rotate(180)"/><rect class="cls-14" x="188.26" y="265.55" width="1.1" height="16.53" transform="translate(377.61 547.63) rotate(180)"/><rect class="cls-14" x="193.22" y="265.55" width="1.1" height="16.53" transform="translate(387.54 547.63) rotate(180)"/></g><rect class="cls-14" x="151.08" y="273.26" width="45.2" height="1.1"/><circle class="cls-16" cx="151.08" cy="244.6" r="9.37" transform="translate(-114.61 354.43) rotate(-80.76)"/><circle class="cls-19" cx="151.08" cy="244.6" r="8.27" transform="translate(-81.75 75.95) rotate(-22.38)"/><path class="cls-21" d="M157.7,244.6a6.62,6.62,0,1,1-6.62-6.61A6.62,6.62,0,0,1,157.7,244.6Z"/><circle class="cls-16" cx="196.28" cy="244.6" r="9.37" transform="translate(-51.13 51.87) rotate(-13.34)"/><circle class="cls-19" cx="196.28" cy="244.6" r="8.27" transform="translate(-51.11 51.85) rotate(-13.33)"/><path class="cls-21" d="M189.67,244.6a6.61,6.61,0,1,0,6.61-6.61A6.61,6.61,0,0,0,189.67,244.6Z"/><path class="cls-17" d="M196.83,219.8h-46.3a1.1,1.1,0,0,1-1.1-1.1h0a1.1,1.1,0,0,1,1.1-1.1h46.3a1.1,1.1,0,0,1,1.1,1.1h0A1.1,1.1,0,0,1,196.83,219.8Z"/><path class="cls-17" d="M196.83,214.84h-46.3a1.1,1.1,0,0,1-1.1-1.1h0a1.11,1.11,0,0,1,1.1-1.11h46.3a1.11,1.11,0,0,1,1.1,1.11h0A1.1,1.1,0,0,1,196.83,214.84Z"/><path class="cls-17" d="M196.83,209.88h-46.3a1.1,1.1,0,0,1-1.1-1.1h0a1.11,1.11,0,0,1,1.1-1.11h46.3a1.11,1.11,0,0,1,1.1,1.11h0A1.1,1.1,0,0,1,196.83,209.88Z"/><ellipse class="cls-16" cx="173.93" cy="194.68" rx="15.66" ry="9.14"/><ellipse class="cls-17" cx="173.93" cy="182.93" rx="4.03" ry="3.92"/><rect class="cls-14" x="103.76" y="332.02" width="11.42" height="85.86" transform="translate(60.29 -12.55) rotate(9.04)"/><rect class="cls-15" x="110.21" y="332.53" width="11.42" height="3.83" transform="translate(54.01 -14.06) rotate(9.04)"/><rect class="cls-15" x="108.92" y="340.63" width="11.42" height="3.83" transform="translate(55.26 -13.76) rotate(9.04)"/><rect class="cls-15" x="107.63" y="348.74" width="11.42" height="3.83" transform="translate(56.52 -13.46) rotate(9.04)"/><rect class="cls-15" x="106.34" y="356.84" width="11.42" height="3.83" transform="translate(57.78 -13.15) rotate(9.04)"/><rect class="cls-15" x="105.05" y="364.94" width="11.42" height="3.83" transform="translate(59.04 -12.85) rotate(9.04)"/><rect class="cls-15" x="103.76" y="373.04" width="11.42" height="3.83" transform="translate(60.29 -12.55) rotate(9.04)"/><rect class="cls-15" x="102.47" y="381.14" width="11.42" height="3.83" transform="translate(61.55 -12.24) rotate(9.04)"/><rect class="cls-15" x="101.18" y="389.24" width="11.42" height="3.83" transform="translate(62.81 -11.94) rotate(9.04)"/><rect class="cls-15" x="99.9" y="397.34" width="11.42" height="3.83" transform="translate(64.07 -11.64) rotate(9.04)"/><rect class="cls-15" x="98.61" y="405.45" width="11.42" height="3.83" transform="translate(65.32 -11.33) rotate(9.04)"/><rect class="cls-15" x="97.32" y="413.55" width="11.42" height="3.83" transform="translate(66.58 -11.03) rotate(9.04)"/><circle class="cls-16" cx="117.46" cy="328.38" r="14.33"/><rect class="cls-14" x="140.14" y="376.12" width="11.42" height="85.86" transform="translate(565.61 275.26) rotate(90.28)"/><rect class="cls-15" x="181.16" y="417.33" width="11.42" height="3.83" transform="translate(607.03 234.45) rotate(90.28)"/><rect class="cls-15" x="172.95" y="417.29" width="11.42" height="3.83" transform="translate(598.74 242.61) rotate(90.28)"/><rect class="cls-15" x="164.75" y="417.25" width="11.42" height="3.83" transform="translate(590.46 250.77) rotate(90.28)"/><rect class="cls-15" x="156.55" y="417.21" width="11.42" height="3.83" transform="translate(582.18 258.94) rotate(90.28)"/><rect class="cls-15" x="148.34" y="417.17" width="11.42" height="3.83" transform="translate(573.89 267.1) rotate(90.28)"/><rect class="cls-15" x="140.14" y="417.13" width="11.42" height="3.83" transform="translate(565.61 275.26) rotate(90.28)"/><rect class="cls-15" x="131.94" y="417.09" width="11.42" height="3.83" transform="translate(557.32 283.43) rotate(90.28)"/><rect class="cls-15" x="123.73" y="417.05" width="11.42" height="3.83" transform="translate(549.04 291.59) rotate(90.28)"/><rect class="cls-15" x="115.53" y="417.01" width="11.42" height="3.83" transform="translate(540.75 299.75) rotate(90.28)"/><rect class="cls-15" x="107.33" y="416.97" width="11.42" height="3.83" transform="translate(532.47 307.91) rotate(90.28)"/><rect class="cls-15" x="99.12" y="416.93" width="11.42" height="3.83" transform="translate(524.19 316.07) rotate(90.28)"/><circle class="cls-16" cx="103.13" cy="414.91" r="14.33"/><rect class="cls-14" x="232.67" y="332.02" width="11.42" height="85.86" transform="matrix(-0.99, 0.16, -0.16, -0.99, 532.73, 707.78)"/><rect class="cls-15" x="226.23" y="332.53" width="11.42" height="3.83" transform="translate(513.55 628.28) rotate(170.96)"/><rect class="cls-15" x="227.52" y="340.63" width="11.42" height="3.83" transform="translate(517.38 644.18) rotate(170.96)"/><rect class="cls-15" x="228.8" y="348.74" width="11.42" height="3.83" transform="matrix(-0.99, 0.16, -0.16, -0.99, 521.22, 660.08)"/><rect class="cls-15" x="230.09" y="356.84" width="11.42" height="3.83" transform="translate(525.06 675.98) rotate(170.96)"/><rect class="cls-15" x="231.38" y="364.94" width="11.42" height="3.83" transform="translate(528.9 691.88) rotate(170.96)"/><rect class="cls-15" x="232.67" y="373.04" width="11.42" height="3.83" transform="translate(532.73 707.78) rotate(170.96)"/><rect class="cls-15" x="233.96" y="381.14" width="11.42" height="3.83" transform="translate(536.56 723.68) rotate(170.96)"/><rect class="cls-15" x="235.25" y="389.24" width="11.42" height="3.83" transform="translate(540.4 739.58) rotate(170.96)"/><rect class="cls-15" x="236.54" y="397.34" width="11.42" height="3.83" transform="translate(544.24 755.48) rotate(170.96)"/><rect class="cls-15" x="237.83" y="405.45" width="11.42" height="3.83" transform="translate(548.08 771.38) rotate(170.96)"/><rect class="cls-15" x="239.12" y="413.55" width="11.42" height="3.83" transform="matrix(-0.99, 0.16, -0.16, -0.99, 551.91, 787.28)"/><circle class="cls-16" cx="230.39" cy="328.38" r="14.33"/><rect class="cls-14" x="196.3" y="376.12" width="11.42" height="85.86" transform="translate(620.05 214.99) rotate(89.72)"/><rect class="cls-15" x="155.28" y="417.33" width="11.42" height="3.83" transform="translate(579.44 256.2) rotate(89.72)"/><rect class="cls-15" x="163.48" y="417.29" width="11.42" height="3.83" transform="translate(587.56 247.96) rotate(89.72)"/><rect class="cls-15" x="171.69" y="417.25" width="11.42" height="3.83" transform="translate(595.68 239.72) rotate(89.72)"/><rect class="cls-15" x="179.89" y="417.21" width="11.42" height="3.83" transform="translate(603.81 231.47) rotate(89.72)"/><rect class="cls-15" x="188.09" y="417.17" width="11.42" height="3.83" transform="translate(611.93 223.23) rotate(89.72)"/><rect class="cls-15" x="196.3" y="417.13" width="11.42" height="3.83" transform="translate(620.05 214.98) rotate(89.72)"/><rect class="cls-15" x="204.5" y="417.09" width="11.42" height="3.83" transform="translate(628.17 206.74) rotate(89.72)"/><rect class="cls-15" x="212.7" y="417.05" width="11.42" height="3.83" transform="translate(636.3 198.5) rotate(89.72)"/><rect class="cls-15" x="220.91" y="417.01" width="11.42" height="3.83" transform="translate(644.42 190.26) rotate(89.72)"/><rect class="cls-15" x="229.11" y="416.97" width="11.42" height="3.83" transform="translate(652.54 182.01) rotate(89.72)"/><rect class="cls-15" x="237.31" y="416.93" width="11.42" height="3.83" transform="translate(660.67 173.77) rotate(89.72)"/><circle class="cls-16" cx="244.72" cy="414.91" r="14.33"/><rect class="cls-17" x="141.8" y="325.62" width="64.24" height="28.11"/><rect class="cls-18" x="144.96" y="327.83" width="5.02" height="23.7"/><rect class="cls-18" x="153.78" y="327.83" width="5.02" height="23.7"/><rect class="cls-18" x="162.59" y="327.83" width="5.02" height="23.7"/><rect class="cls-18" x="171.41" y="327.83" width="5.02" height="23.7"/><rect class="cls-18" x="180.23" y="327.83" width="5.02" height="23.7"/><rect class="cls-18" x="189.05" y="327.83" width="5.02" height="23.7"/><rect class="cls-18" x="197.87" y="327.83" width="5.02" height="23.7"/><path class="cls-22" d="M9.09,442.47H338.76a9.09,9.09,0,0,0,9.09-9.09h0a9.09,9.09,0,0,0-9.09-9.1H9.09A9.09,9.09,0,0,0,0,433.38H0A9.09,9.09,0,0,0,9.09,442.47Z"/><path class="cls-23" d="M9.09,433.1H338.76a9.09,9.09,0,0,1,9.09,9.09v.28a0,0,0,0,1,0,0H0a0,0,0,0,1,0,0v-.28A9.09,9.09,0,0,1,9.09,433.1Z" transform="translate(347.85 875.57) rotate(180)"/><rect class="cls-24" x="124.01" y="346.02" width="99.83" height="78.27" rx="4.75" ry="4.75"/><rect class="cls-25" x="124.01" y="418.22" width="99.83" height="6.06"/><path class="cls-26" d="M174,374.13c0-.37,0-.74.05-1.1H174A12.13,12.13,0,1,0,186,386.25,12.12,12.12,0,0,1,174,374.13Z"/><polygon class="cls-15" points="306.82 424.28 278.65 424.28 275.45 374.36 310.02 374.36 306.82 424.28"/><polygon class="cls-27" points="308.1 409.56 277.37 409.56 276.09 389.08 309.38 389.08 308.1 409.56"/><rect class="cls-28" x="274.17" y="369.24" width="37.12" height="5.12"/><path class="cls-29" d="M279.8,364.76h25.88a3.06,3.06,0,0,1,3.06,3.06v1.42a0,0,0,0,1,0,0h-32a0,0,0,0,1,0,0v-1.42A3.06,3.06,0,0,1,279.8,364.76Z"/><path class="cls-30" d="M296.67,401.78a3.94,3.94,0,1,1-7.87,0c0-2.17,3.93-8.86,3.93-8.86S296.67,399.61,296.67,401.78Z"/><path class="cls-24" d="M294,376.92a1.28,1.28,0,1,1-1.28-1.28A1.28,1.28,0,0,1,294,376.92Z"/><path class="cls-24" d="M289.53,376.92a1.28,1.28,0,1,1-1.28-1.28A1.28,1.28,0,0,1,289.53,376.92Z"/><path class="cls-24" d="M285.05,376.92a1.28,1.28,0,1,1-1.28-1.28A1.28,1.28,0,0,1,285.05,376.92Z"/><path class="cls-24" d="M280.57,376.92a1.28,1.28,0,1,1-1.28-1.28A1.28,1.28,0,0,1,280.57,376.92Z"/><path class="cls-24" d="M295.93,376.92a1.29,1.29,0,1,0,1.28-1.28A1.28,1.28,0,0,0,295.93,376.92Z"/><path class="cls-24" d="M300.42,376.92a1.28,1.28,0,1,0,1.28-1.28A1.28,1.28,0,0,0,300.42,376.92Z"/><circle class="cls-24" cx="292.73" cy="421.72" r="1.28"/><path class="cls-24" d="M289.53,421.72a1.28,1.28,0,0,1-2.56,0,1.28,1.28,0,1,1,2.56,0Z"/><path class="cls-24" d="M285.05,421.72a1.28,1.28,0,1,1-2.56,0,1.28,1.28,0,1,1,2.56,0Z"/><path class="cls-24" d="M295.93,421.72a1.29,1.29,0,1,0,1.28-1.28A1.28,1.28,0,0,0,295.93,421.72Z"/><path class="cls-24" d="M300.42,421.72a1.28,1.28,0,0,0,2.56,0,1.28,1.28,0,0,0-2.56,0Z"/><path class="cls-24" d="M304.9,376.92a1.28,1.28,0,1,0,1.28-1.28A1.28,1.28,0,0,0,304.9,376.92Z"/><rect class="cls-15" x="12.19" y="405.54" width="66.14" height="18.74"/><rect class="cls-24" x="44.16" y="407.75" width="2.2" height="14.33"/><rect class="cls-24" x="48.02" y="407.75" width="2.2" height="14.33"/><rect class="cls-24" x="51.87" y="407.75" width="2.2" height="14.33"/><rect class="cls-24" x="55.73" y="407.75" width="2.2" height="14.33"/><rect class="cls-24" x="59.59" y="407.75" width="2.2" height="14.33"/><rect class="cls-24" x="63.45" y="407.75" width="2.2" height="14.33"/><rect class="cls-24" x="67.31" y="407.75" width="2.2" height="14.33"/><rect class="cls-24" x="71.16" y="407.75" width="2.2" height="14.33"/><path class="cls-24" d="M21,411.61a2.76,2.76,0,1,1-2.76-2.76A2.76,2.76,0,0,1,21,411.61Z"/><circle class="cls-31" cx="18.25" cy="411.61" r="1.65"/><path class="cls-24" d="M28.17,411.61a2.76,2.76,0,1,1-2.75-2.76A2.75,2.75,0,0,1,28.17,411.61Z"/><circle class="cls-31" cx="25.42" cy="411.61" r="1.65"/><path class="cls-24" d="M35.34,411.61a2.76,2.76,0,1,1-2.76-2.76A2.76,2.76,0,0,1,35.34,411.61Z"/><circle class="cls-31" cx="32.58" cy="411.61" r="1.65"/><path class="cls-24" d="M42.5,411.61a2.76,2.76,0,1,1-2.75-2.76A2.75,2.75,0,0,1,42.5,411.61Z"/><circle class="cls-31" cx="39.75" cy="411.61" r="1.65"/><path class="cls-32" d="M19.35,419.32a1.1,1.1,0,1,1-1.1-1.1A1.11,1.11,0,0,1,19.35,419.32Z"/><path class="cls-32" d="M23.76,419.32a1.1,1.1,0,1,1-1.1-1.1A1.11,1.11,0,0,1,23.76,419.32Z"/><path class="cls-32" d="M28.17,419.32a1.1,1.1,0,1,1-1.1-1.1A1.11,1.11,0,0,1,28.17,419.32Z"/><path class="cls-32" d="M32.58,419.32a1.1,1.1,0,1,1-1.1-1.1A1.11,1.11,0,0,1,32.58,419.32Z"/><path class="cls-29" d="M37,419.32a1.1,1.1,0,1,1-1.1-1.1A1.11,1.11,0,0,1,37,419.32Z"/><path class="cls-29" d="M41.4,419.32a1.1,1.1,0,1,1-1.1-1.1A1.11,1.11,0,0,1,41.4,419.32Z"/><rect class="cls-15" x="12.19" y="384.05" width="66.14" height="18.74" transform="translate(90.52 786.84) rotate(180)"/><rect class="cls-24" x="44.16" y="386.25" width="2.2" height="14.33" transform="translate(90.52 786.84) rotate(180)"/><rect class="cls-24" x="40.3" y="386.25" width="2.2" height="14.33" transform="translate(82.8 786.84) rotate(180)"/><rect class="cls-24" x="36.44" y="386.25" width="2.2" height="14.33" transform="translate(75.09 786.84) rotate(180)"/><rect class="cls-24" x="32.58" y="386.25" width="2.2" height="14.33" transform="translate(67.37 786.84) rotate(180)"/><rect class="cls-24" x="28.72" y="386.25" width="2.2" height="14.33" transform="translate(59.65 786.84) rotate(180)"/><rect class="cls-24" x="24.87" y="386.25" width="2.2" height="14.33" transform="translate(51.94 786.84) rotate(180)"/><rect class="cls-24" x="21.01" y="386.25" width="2.2" height="14.33" transform="translate(44.22 786.84) rotate(180)"/><rect class="cls-24" x="17.15" y="386.25" width="2.2" height="14.33" transform="translate(36.5 786.84) rotate(180)"/><path class="cls-24" d="M69.51,390.11a2.76,2.76,0,1,0,2.76-2.75A2.76,2.76,0,0,0,69.51,390.11Z"/><circle class="cls-31" cx="72.27" cy="390.11" r="1.65"/><path class="cls-24" d="M62.35,390.11a2.76,2.76,0,1,0,2.75-2.75A2.76,2.76,0,0,0,62.35,390.11Z"/><circle class="cls-31" cx="65.1" cy="390.11" r="1.65"/><path class="cls-24" d="M55.18,390.11a2.76,2.76,0,1,0,2.76-2.75A2.76,2.76,0,0,0,55.18,390.11Z"/><circle class="cls-31" cx="57.94" cy="390.11" r="1.65"/><path class="cls-24" d="M48,390.11a2.76,2.76,0,1,0,2.75-2.75A2.76,2.76,0,0,0,48,390.11Z"/><circle class="cls-31" cx="50.77" cy="390.11" r="1.65"/><path class="cls-32" d="M71.16,397.83a1.11,1.11,0,1,0,1.11-1.11A1.11,1.11,0,0,0,71.16,397.83Z"/><path class="cls-32" d="M66.76,397.83a1.1,1.1,0,1,0,1.1-1.11A1.1,1.1,0,0,0,66.76,397.83Z"/><path class="cls-32" d="M62.35,397.83a1.1,1.1,0,1,0,1.1-1.11A1.1,1.1,0,0,0,62.35,397.83Z"/><path class="cls-32" d="M57.94,397.83a1.1,1.1,0,1,0,1.1-1.11A1.1,1.1,0,0,0,57.94,397.83Z"/><path class="cls-29" d="M53.53,397.83a1.1,1.1,0,1,0,1.1-1.11A1.1,1.1,0,0,0,53.53,397.83Z"/><path class="cls-29" d="M49.12,397.83a1.1,1.1,0,1,0,1.1-1.11A1.1,1.1,0,0,0,49.12,397.83Z"/><rect class="cls-24" x="13.57" y="402.79" width="63.38" height="2.76"/><rect class="cls-31" x="131.24" y="420.43" width="9.92" height="2.2"/><rect class="cls-31" x="143.92" y="420.43" width="9.92" height="2.2"/><rect class="cls-31" x="156.6" y="420.43" width="9.92" height="2.2"/><path class="cls-31" d="M197.93,421.53a1.65,1.65,0,1,1-1.65-1.66A1.65,1.65,0,0,1,197.93,421.53Z"/><circle class="cls-31" cx="201.24" cy="421.53" r="1.65"/><circle class="cls-31" cx="206.2" cy="421.53" r="1.65"/><circle class="cls-31" cx="211.16" cy="421.53" r="1.65"/><circle class="cls-31" cx="216.12" cy="421.53" r="1.65"/></g></g></svg>