<svg width="439" height="555" viewBox="0 0 439 555" fill="none" xmlns="http://www.w3.org/2000/svg">
<g clip-path="url(#clip0)">
<path d="M416.994 9.26025H269.006C258.406 9.26025 249.812 17.8534 249.812 28.4539V120.52C249.812 131.121 258.406 139.714 269.006 139.714H310.844C313.332 139.714 315.631 141.039 316.878 143.192L338.174 179.958C340.322 183.668 345.677 183.668 347.826 179.958L369.121 143.192C370.368 141.039 372.667 139.714 375.155 139.714H416.994C427.594 139.714 436.187 131.121 436.187 120.52V28.4539C436.187 17.8534 427.594 9.26025 416.994 9.26025V9.26025Z" fill="#DE2E3E"/>
<path d="M345.512 143.191L331.195 167.91L338.174 179.958C340.322 183.667 345.677 183.667 347.826 179.958L369.121 143.191C370.368 141.039 372.667 139.713 375.155 139.713H351.547C349.059 139.713 346.759 141.039 345.512 143.191V143.191Z" fill="#27292D"/>
<path d="M416.993 9.26025H393.385C403.985 9.26025 412.578 17.8534 412.578 28.4539V120.52C412.578 131.121 403.985 139.714 393.385 139.714H416.993C427.594 139.714 436.187 131.121 436.187 120.52V28.4539C436.187 17.8534 427.594 9.26025 416.993 9.26025V9.26025Z" fill="#27292D"/>
<path d="M436.188 115.42C434.634 115.42 433.375 116.679 433.375 118.233V120.519C433.375 129.552 426.026 136.9 416.994 136.9H375.155C371.676 136.9 368.431 138.771 366.688 141.781L345.392 178.548C344.326 180.389 341.673 180.386 340.608 178.548L319.312 141.781C317.569 138.771 314.324 136.9 310.845 136.9H269.006C259.973 136.9 252.625 129.552 252.625 120.519V28.4531C252.625 19.4209 259.973 12.072 269.006 12.072H271.391C272.944 12.072 274.203 10.8127 274.203 9.25949C274.203 7.70624 272.944 6.44699 271.391 6.44699H269.006C256.872 6.44699 247 16.3189 247 28.4531V120.519C247 132.654 256.872 142.525 269.006 142.525H310.844C312.323 142.525 313.703 143.321 314.445 144.601L335.74 181.367C338.971 186.944 347.025 186.952 350.26 181.367L371.556 144.6C372.297 143.32 373.676 142.525 375.156 142.525H416.994C429.128 142.525 439 132.653 439 120.519V118.232C439 116.679 437.741 115.42 436.188 115.42Z" fill="black"/>
<path d="M416.994 6.44699H284.539C282.986 6.44699 281.727 7.70624 281.727 9.25949C281.727 10.8127 282.986 12.072 284.539 12.072H416.994C426.026 12.072 433.375 19.4205 433.375 28.4531V105.451C433.375 107.004 434.634 108.264 436.187 108.264C437.741 108.264 439 107.004 439 105.451V28.4531C439 16.3189 429.128 6.44699 416.994 6.44699V6.44699Z" fill="black"/>
<path d="M343.001 121.753C368.782 121.753 389.683 100.852 389.683 75.0705C389.683 49.2886 368.782 28.3882 343.001 28.3882C317.219 28.3882 296.318 49.2886 296.318 75.0705C296.318 100.852 317.219 121.753 343.001 121.753Z" fill="#FFE07D"/>
<path d="M343.001 28.3882C338.982 28.3882 335.081 28.899 331.357 29.8582C351.483 35.0441 366.396 53.3486 366.396 75.0705C366.396 96.7924 351.483 115.096 331.357 120.282C335.081 121.242 338.983 121.752 343.001 121.752C368.742 121.752 389.683 100.811 389.683 75.0705C389.683 49.3301 368.742 28.3882 343.001 28.3882V28.3882Z" fill="#FFD064"/>
<path d="M328.811 66.0866C324.186 66.0866 320.424 62.3242 320.424 57.6994C320.424 56.1461 321.683 54.8869 323.236 54.8869C324.79 54.8869 326.049 56.1461 326.049 57.6994C326.049 59.2226 327.288 60.4616 328.811 60.4616C330.334 60.4616 331.573 59.2226 331.573 57.6994C331.573 56.1461 332.832 54.8869 334.385 54.8869C335.939 54.8869 337.198 56.1461 337.198 57.6994C337.198 62.3242 333.436 66.0866 328.811 66.0866Z" fill="black"/>
<path d="M357.192 66.0866C352.567 66.0866 348.805 62.3242 348.805 57.6994C348.805 56.1461 350.064 54.8869 351.617 54.8869C353.171 54.8869 354.43 56.1461 354.43 57.6994C354.43 59.2226 355.669 60.4616 357.192 60.4616C358.715 60.4616 359.954 59.2226 359.954 57.6994C359.954 56.1461 361.213 54.8869 362.766 54.8869C364.32 54.8869 365.579 56.1461 365.579 57.6994C365.579 62.3242 361.816 66.0866 357.192 66.0866Z" fill="black"/>
<path d="M362.293 97.5634C359.35 92.1956 351.597 88.5889 343 88.5889C334.403 88.5889 326.65 92.1952 323.707 97.5634C322.961 98.925 321.251 99.4238 319.889 98.6775C318.527 97.9309 318.028 96.2212 318.775 94.8592C322.736 87.633 332.245 82.9639 343 82.9639C353.755 82.9639 363.264 87.633 367.225 94.8592C367.972 96.2212 367.473 97.9309 366.111 98.6775C364.741 99.429 363.034 98.9164 362.293 97.5634Z" fill="black"/>
<path d="M343.001 124.565C315.709 124.565 293.506 102.362 293.506 75.0705C293.506 47.7791 315.709 25.5757 343.001 25.5757C370.292 25.5757 392.495 47.7787 392.495 75.0705C392.495 102.361 370.292 124.565 343.001 124.565ZM343.001 31.2007C318.81 31.2007 299.131 50.8804 299.131 75.0705C299.131 99.2602 318.81 118.94 343.001 118.94C367.191 118.94 386.87 99.2602 386.87 75.0705C386.87 50.8804 367.191 31.2007 343.001 31.2007V31.2007Z" fill="black"/>
</g>
<g clip-path="url(#clip1)">
<path d="M204 555.001C316.667 555.001 408.001 463.667 408.001 351C408.001 238.334 316.667 147 204 147C91.3341 147 0 238.334 0 351C0 463.667 91.3341 555.001 204 555.001Z" fill="#E24C4B"/>
<path d="M408.001 351C408.001 463.201 316.201 555.001 204 555.001C138.976 555.001 81.6005 525.676 44.625 478.501C79.05 506.551 123.675 523.126 172.125 523.126C284.325 523.126 376.125 431.326 376.125 319.126C376.125 270.676 359.55 226.051 331.5 191.626C378.676 228.6 408.001 285.975 408.001 351Z" fill="#D1403F"/>
<path d="M297.074 444.075C289.425 451.725 276.674 451.725 269.024 444.075L204 379.051L138.975 444.075C131.325 451.725 118.574 451.725 110.925 444.075C103.275 436.426 103.275 423.675 110.925 416.025L175.949 351L110.925 285.976C103.275 278.326 103.275 265.575 110.925 257.926C118.574 250.276 131.325 250.276 138.975 257.926L204 322.95L269.024 257.926C276.674 250.276 289.425 250.276 297.074 257.926C304.724 265.575 304.724 278.326 297.074 285.976L232.05 351L297.074 416.025C304.724 423.675 304.724 436.425 297.074 444.075Z" fill="white"/>
</g>
<defs>
<clipPath id="clip0">
<rect width="192" height="192" fill="white" transform="translate(247)"/>
</clipPath>
<clipPath id="clip1">
<rect width="408" height="408" fill="white" transform="translate(0 147)"/>
</clipPath>
</defs>
</svg>
