<svg height="58" viewBox="0 0 60 58" width="60" xmlns="http://www.w3.org/2000/svg"><g id="Page-1" fill="none" fill-rule="evenodd"><g id="015---Locked-Payment" fill-rule="nonzero"><path id="Shape" d="m51 7v26h-20c-.8532257-.0060548-1.6669944.3588639-2.23 1h-21.77c-3.3137085 0-6-2.6862915-6-6v-21c0-3.3137085 2.6862915-6 6-6h38c3.3137085 0 6 2.6862915 6 6z" fill="#e8edfc"/><path id="Shape" d="m45 1h-3c3.3137085 0 6 2.6862915 6 6v26h3v-26c0-3.3137085-2.6862915-6-6-6z" fill="#cad9fc"/><path id="Shape" d="m28.77 34c-.4970501.547345-.7716714 1.2606472-.77 2v7h-13c-3.3137085 0-6-2.6862915-6-6v-3z" fill="#a4c2f7"/><path id="Shape" d="m59 16v21c.0011619 2.9270328-2.1132211 5.4262335-5 5.91v-6.91c0-1.6568542-1.3431458-3-3-3v-23h2c3.3137085 0 6 2.6862915 6 6z" fill="#a4c2f7"/><path id="Shape" d="m53 10h-2v.09c2.8846041.4875855 4.9970353 2.9844793 5 5.91v21c-.001871 1.7003192-.7295185 3.318971-2 4.449v1.461c2.8867789-.4837665 5.0011619-2.9829672 5-5.91v-21c0-3.3137085-2.6862915-6-6-6z" fill="#7facfa"/><rect id="Rectangle-path" fill="#e8edfc" height="8" rx="2" width="10" x="6" y="6"/><circle id="Oval" cx="43" cy="10" fill="#e8edfc" r="3"/><circle id="Oval" cx="37" cy="10" fill="#a4c2f7" r="3"/><path id="Shape" d="m54 36v17c0 2.209139-1.790861 4-4 4h-18c-2.209139 0-4-1.790861-4-4v-17c.0060328-1.6543489 1.3456511-2.9939672 3-3h20c1.6568542 0 3 1.3431458 3 3z" fill="#e8edfc"/><path id="Shape" d="m51 33h-3c1.6568542 0 3 1.3431458 3 3v17c0 2.209139-1.790861 4-4 4h3c2.209139 0 4-1.790861 4-4v-17c0-1.6568542-1.3431458-3-3-3z" fill="#cad9fc"/><path id="Shape" d="m51 33v-4c0-.21-.01-.42-.02-.62-.3411306-5.3866314-4.8953426-9.5305708-10.2901682-9.3631638-5.3948257.167407-9.6833414 4.5857453-9.6898318 9.9831638v4h4v-4c0-3.3137085 2.6862915-6 6-6s6 2.6862915 6 6v4z" fill="#a4c2f7"/><path id="Shape" d="m50.98 28.38c-.1528497-2.8077879-1.4901383-5.4187891-3.6792787-7.1836405s-5.0244287-2.5177179-7.8007213-2.0713595c4.6486017.7121644 8.1760536 4.5619954 8.48 9.255.01.2.02.41.02.62v4h3v-4c0-.21-.01-.42-.02-.62z" fill="#7facfa"/><circle id="Oval" cx="41" cy="45" fill="#e8edfc" r="8"/><path id="Shape" d="m12 37v-3h-2c-3.3137085 0-6-2.6862915-6-6v-21c0-3.3137085 2.6862915-6 6-6h-3c-3.3137085 0-6 2.6862915-6 6v21c0 3.3137085 2.6862915 6 6 6h2v3c0 3.3137085 2.6862915 6 6 6h3c-3.3137085 0-6-2.6862915-6-6z" fill="#fff"/><path id="Rectangle-path" d="m0 20h2v8h-2z" fill="#fff"/><g fill="#428dff"><circle id="Oval" cx="1" cy="24" r="1"/><path id="Shape" d="m53 9h-1v-2c-.0044086-3.86416566-3.1358343-6.99559136-7-7h-38c-3.86416566.00440864-6.99559136 3.13583434-7 7v13c0 .5522847.44771525 1 1 1s1-.4477153 1-1v-13c.00330612-2.76005315 2.23994685-4.99669388 5-5h38c2.7600532.00330612 4.9966939 2.23994685 5 5v15.694c-2.7499718-3.934945-7.7356241-5.6298605-12.3140735-4.1862753-4.5784495 1.4435851-7.6902838 5.691638-7.6859265 10.4922753v3.142c-.5987376.1562324-1.1527595.4500215-1.618.858h-21.382c-2.76005315-.0033061-4.99669388-2.2399468-5-5 0-.5522847-.44771525-1-1-1s-1 .4477153-1 1c.00440864 3.8641657 3.13583434 6.9955914 7 7h1v2c.00440864 3.8641657 3.1358343 6.9955914 7 7h12v9c.0033061 2.7600532 2.2399468 4.9966939 5 5h18c2.7600532-.0033061 4.9966939-2.2399468 5-5v-9.3c2.9723176-.8712741 5.0106457-3.6026338 5-6.7v-21c-.0044086-3.8641657-3.1358343-6.99559136-7-7zm-12 11c4.7473528.003425 8.6768459 3.6913993 8.981 8.429.009.184.019.378.019.571v3h-2v-3c0-3.8659932-3.1340068-7-7-7s-7 3.1340068-7 7v3h-2v-3c.006061-4.9680501 4.0319499-8.993939 9-9zm-5 12v-3c0-2.7614237 2.2385763-5 5-5s5 2.2385763 5 5v3zm-21 10c-2.7600532-.0033061-4.9966939-2.2399468-5-5v-2h17.142c-.0900507.3258584-.1377763.6619541-.142 1v6zm38 11c0 1.6568542-1.3431458 3-3 3h-18c-1.6568542 0-3-1.3431458-3-3v-17c0-1.1045695.8954305-2 2-2h20c1.1045695 0 2 .8954305 2 2zm5-16c.0036023 1.9846527-1.1766621 3.7802283-3 4.564v-5.564c-.0068148-1.8184116-1.2393149-3.4034067-3-3.858v-21.142h1c2.7600532.0033061 4.9966939 2.2399468 5 5z"/><path id="Shape" d="m14 5h-6c-1.65685425 0-3 1.34314575-3 3v4c0 1.6568542 1.34314575 3 3 3h6c1.6568542 0 3-1.3431458 3-3v-4c0-1.65685425-1.3431458-3-3-3zm1 3v1h-4v-2h3c.5522847 0 1 .44771525 1 1zm-7-1h1v2h-2v-1c0-.55228475.44771525-1 1-1zm-1 5v-1h2v2h-1c-.55228475 0-1-.4477153-1-1zm7 1h-3v-2h4v1c0 .5522847-.4477153 1-1 1z"/><path id="Shape" d="m15 22c0-.5522847-.4477153-1-1-1h-6c-.55228475 0-1 .4477153-1 1s.44771525 1 1 1h6c.5522847 0 1-.4477153 1-1z"/><path id="Shape" d="m24 23c.5522847 0 1-.4477153 1-1s-.4477153-1-1-1h-6c-.5522847 0-1 .4477153-1 1s.4477153 1 1 1z"/><path id="Shape" d="m29 23c.5522847 0 1-.4477153 1-1s-.4477153-1-1-1h-1c-.5522847 0-1 .4477153-1 1s.4477153 1 1 1z"/><path id="Shape" d="m8 27c-.55228475 0-1 .4477153-1 1s.44771525 1 1 1h2c.5522847 0 1-.4477153 1-1s-.4477153-1-1-1z"/><path id="Shape" d="m15 29h2c.5522847 0 1-.4477153 1-1s-.4477153-1-1-1h-2c-.5522847 0-1 .4477153-1 1s.4477153 1 1 1z"/><path id="Shape" d="m37 14c1.1531181-.003719 2.247792-.5079987 3-1.382 1.093225 1.2628661 2.8560646 1.7134762 4.4212104 1.1301323 1.5651459-.5833438 2.6030376-2.0778115 2.6030376-3.7481323 0-1.67032082-1.0378917-3.16478849-2.6030376-3.74813234-1.5651458-.58334385-3.3279854-.13273376-4.4212104 1.13013234-1.2110928-1.38665941-3.2134336-1.76522309-4.8471665-.91640804-1.6337329.84881506-2.4750835 2.70483451-2.0366995 4.49295914.438384 1.7881246 2.0427901 3.0445323 3.883866 3.0414489zm6-6c1.1045695 0 2 .8954305 2 2s-.8954305 2-2 2-2-.8954305-2-2 .8954305-2 2-2zm-6 0c1.1045695 0 2 .8954305 2 2s-.8954305 2-2 2-2-.8954305-2-2 .8954305-2 2-2z"/><path id="Shape" d="m41 36c-4.9705627 0-9 4.0294373-9 9s4.0294373 9 9 9 9-4.0294373 9-9c-.006061-4.9680501-4.0319499-8.993939-9-9zm0 16c-3.8659932 0-7-3.1340068-7-7s3.1340068-7 7-7 7 3.1340068 7 7c-.0044086 3.8641657-3.1358343 6.9955914-7 7z"/><path id="Shape" d="m42 42v-1c0-.5522847-.4477153-1-1-1s-1 .4477153-1 1v2c0 .5522847.4477153 1 1 1v1c-.5522847 0-1 .4477153-1 1v3c0 .5522847.4477153 1 1 1s1-.4477153 1-1v-2c.5522847 0 1-.4477153 1-1v-3c0-.5522847-.4477153-1-1-1z"/></g></g></g></svg>