<svg width="24" height="25" viewBox="0 0 24 25" fill="none" xmlns="http://www.w3.org/2000/svg">
<g id="power_settings_new_24px">
<path id="icon/action/power_settings_new_24px" fill-rule="evenodd" clip-rule="evenodd" d="M11 3.84369H13V13.5867H11V3.84369ZM16.41 7.34142L17.83 5.95792C19.77 7.56551 21 9.9428 21 12.6124C21 17.4547 16.97 21.3811 12 21.3811C7.03 21.3811 3 17.4547 3 12.6124C3 9.9428 4.23 7.56551 6.17 5.95792L7.58 7.33168C6.01 8.57878 5 10.4787 5 12.6124C5 16.3829 8.13 19.4325 12 19.4325C15.87 19.4325 19 16.3829 19 12.6124C19 10.4787 17.99 8.57878 16.41 7.34142Z" fill="#F12B2C"/>
</g>
</svg>
