<svg width="41" height="40" viewBox="0 0 41 40" fill="none" xmlns="http://www.w3.org/2000/svg">
<circle cx="20.2709" cy="20" r="20" fill="#92FFAA" fill-opacity="0.4"/>
<path fill-rule="evenodd" clip-rule="evenodd" d="M19.45 22.5172C19.775 22.8422 20.3 22.8422 20.625 22.5172L25.925 17.2172C26.25 16.8922 26.25 16.3672 25.925 16.0422L21.8 11.9172C21.4833 11.5839 20.9583 11.5839 20.6333 11.9089L15.325 17.2172C15 17.5422 15 18.0672 15.325 18.3922L19.45 22.5172ZM24.4333 20.8339H25L27.5 23.3339V26.6672C27.5 27.5922 26.75 28.3339 25.8333 28.3339H14.1583C13.2417 28.3339 12.5 27.5839 12.5 26.6672V23.3339L15 20.8339H15.6917L17.3583 22.5005H15.65L14.1667 24.1672H25.8333L24.3583 22.5005H22.7667L24.4333 20.8339ZM14.1667 26.6672H25.8333V25.8339H14.1667V26.6672ZM24.1667 16.6255L21.2167 13.6755L17.0917 17.8005L20.0417 20.7505L24.1667 16.6255Z" fill="#00C12B"/>
</svg>
