<svg width="15" height="15" viewBox="0 0 15 15" fill="none" xmlns="http://www.w3.org/2000/svg">
<g id="visibility_24px">
<path id="icon/action/visibility_24px" fill-rule="evenodd" clip-rule="evenodd" d="M0.625 7.5C1.70625 4.75625 4.375 2.8125 7.5 2.8125C10.625 2.8125 13.2937 4.75625 14.375 7.5C13.2937 10.2438 10.625 12.1875 7.5 12.1875C4.375 12.1875 1.70625 10.2438 0.625 7.5ZM13.0125 7.5C11.9813 5.39375 9.86878 4.0625 7.50003 4.0625C5.13128 4.0625 3.01878 5.39375 1.98753 7.5C3.01878 9.60625 5.13128 10.9375 7.50003 10.9375C9.86878 10.9375 11.9813 9.60625 13.0125 7.5ZM7.5 5.9375C8.3625 5.9375 9.0625 6.6375 9.0625 7.5C9.0625 8.3625 8.3625 9.0625 7.5 9.0625C6.6375 9.0625 5.9375 8.3625 5.9375 7.5C5.9375 6.6375 6.6375 5.9375 7.5 5.9375ZM4.6875 7.5C4.6875 5.95 5.95 4.6875 7.5 4.6875C9.05 4.6875 10.3125 5.95 10.3125 7.5C10.3125 9.05 9.05 10.3125 7.5 10.3125C5.95 10.3125 4.6875 9.05 4.6875 7.5Z" fill="white"/>
</g>
</svg>
